<?xml version="1.0" encoding="UTF-8"?> <svg xmlns="http://www.w3.org/2000/svg" width="157" height="149" viewBox="0 0 157 149" fill="none"> <path d="M59.6135 86.8999C58.7681 86.2923 57.8937 85.7203 57.0193 85.1482C57.0097 84.8511 57.0048 84.5496 57 84.2524C57.3478 84.4742 57.6957 84.6959 58.0338 84.9309C58.8841 85.5163 59.657 86.1904 60.4638 86.8289C60.5072 86.8644 60.5507 86.9043 60.5942 86.9398C60.5797 87.0329 60.5942 87.1305 60.6377 87.2414C60.7778 87.5784 60.8986 87.911 61 88.2524C60.6715 87.6937 60.1401 87.2768 59.6135 86.8999Z" fill="#780A0F"></path> <path d="M88.9278 100.252C88.0526 99.9209 87.191 99.5419 86.3429 99.0893C86.3383 99.0682 86.3383 99.0472 86.3293 99.0314C86.2571 98.8156 86.1759 98.6103 86.0767 98.4103C86.0496 98.3577 86.0271 98.3051 86 98.2524C86.9925 98.7261 87.9895 99.184 89 99.5998C88.9594 99.8103 88.9368 100.031 88.9278 100.252Z" fill="#780A0F"></path> <path d="M122.563 125.693C126.581 130.993 130.554 136.315 134.053 141.967C134.239 142.264 134.399 142.582 134.621 142.852C135.543 143.972 136.466 145.101 137.605 146.016C138.217 146.509 138.909 146.927 139.619 147.271C140.182 147.546 140.82 147.69 141.481 147.572C142.346 147.42 143.073 147.027 143.645 146.378C143.965 146.012 143.902 145.868 143.481 145.607C143.02 145.323 142.528 145.049 142.151 144.674C141.446 143.972 140.767 143.231 140.16 142.447C135.29 136.153 130.43 129.855 125.57 123.558C125.729 123.466 125.889 123.37 126.031 123.252C130.412 128.923 134.794 134.589 139.171 140.259C139.925 141.235 140.612 142.259 141.397 143.209C142.013 143.955 142.718 144.626 143.632 145.04C144.208 145.302 144.767 145.624 145.37 145.781C146.284 146.016 147.22 146.077 148 145.262C147.858 145.964 147.353 146.474 146.59 146.513C145.956 146.544 145.308 146.382 144.656 146.304C143.836 147.694 142.532 148.313 140.878 148.248C140.532 148.235 140.182 148.1 139.858 147.969C138.67 147.481 137.579 146.857 136.732 145.868C136.12 145.158 135.406 144.526 134.856 143.776C133.659 142.146 132.514 140.477 131.384 138.799C128.417 134.388 125.202 130.147 122 125.898C122.191 125.837 122.377 125.767 122.554 125.676C122.559 125.689 122.563 125.689 122.563 125.693Z" fill="#780A0F"></path> <path d="M142.747 130.716C142.848 130.862 142.917 131.029 143 131.188C142.97 131.21 142.939 131.231 142.909 131.252C142.695 131.025 142.469 130.81 142.277 130.565C139.737 127.344 137.184 124.128 134.675 120.886C133.777 119.73 132.893 118.567 132 117.403C132.122 117.368 132.248 117.325 132.379 117.3C132.427 117.291 132.47 117.274 132.514 117.252C135.537 121.186 138.556 125.116 141.575 129.049C141.985 129.59 142.36 130.157 142.747 130.716Z" fill="#780A0F"></path> <path d="M110.027 87.5031C110.035 87.4233 110.046 87.3398 110.058 87.2524C111.04 88.179 112.018 89.1056 113 90.0322C112.873 90.1195 112.734 90.1879 112.588 90.2524C111.721 89.4246 110.863 88.593 110 87.7651C110.012 87.6778 110.015 87.5904 110.027 87.5031Z" fill="#780A0F"></path> <path d="M48 43.2524C48.8327 44.3113 49.6374 45.3939 50.4982 46.4243C51.0035 47.0274 51.4994 47.6447 52 48.2524C51.883 48.1622 51.7614 48.072 51.6491 47.9723C51.4854 47.8251 51.2982 47.7776 51.1251 47.7919C50.2503 46.6048 49.338 45.4462 48.4585 44.2638C48.2433 43.9694 48.1123 43.6086 48 43.2524Z" fill="#780A0F"></path> <path d="M52.0842 35.2524C52.5263 35.9231 53.0063 36.5662 53.4021 37.2644C55.1663 40.3604 57.4189 42.9695 60 45.2524C59.9158 45.2433 59.8358 45.2203 59.76 45.1927C59.6758 45.1009 59.5705 45.0503 59.461 45.0274C59.3432 44.9309 59.1958 44.9125 59.0568 44.9401C56.6989 42.5285 54.4632 39.9975 52.7916 36.9428C52.5053 36.4192 52.2653 35.8634 52 35.3213C52.0295 35.2984 52.0589 35.2754 52.0842 35.2524Z" fill="#780A0F"></path> <path d="M73.0333 60.2524V59.969C73.0333 59.907 73.019 59.845 73 59.7874C73.9469 59.69 74.8511 59.2205 75.4554 58.4588C75.4839 58.4234 75.5077 58.3835 75.541 58.3525C76.4404 57.4889 76.6688 56.5456 76.4309 55.589C76.5546 55.5182 76.664 55.4074 76.7259 55.2524C76.8068 55.5093 76.8782 55.7662 76.9448 56.023C77.1256 56.736 76.8401 57.3826 76.4118 57.9938C75.6029 59.1453 74.5322 59.9469 73.0666 60.2436C73.0523 60.248 73.0428 60.2524 73.0333 60.2524Z" fill="#780A0F"></path> <path d="M15.2979 12.398C13.918 12.3893 12.5336 12.3282 11.1537 12.398C9.86606 12.4635 8.57842 12.5944 7.30836 12.8214C5.40106 13.1574 3.50696 13.572 1.62164 14.0171C1.08109 14.1437 0.597675 14.4841 -1.83925e-06 14.7678C0.136233 14.4055 0.237321 14.0433 0.408714 13.7116C2.02156 10.6087 4.59684 8.50086 7.62477 6.86431C9.82212 5.68163 12.2348 5.12738 14.6343 4.5644C16.0889 4.224 17.5743 3.9927 19.0422 3.70467C19.152 3.68285 19.2751 3.65666 19.3674 3.59556C22.2415 1.70153 25.4144 0.627952 28.8423 0.339919C30.8199 0.174082 32.7843 0.226448 34.7575 0.649769C36.4671 1.01636 38.1722 1.33931 39.8158 1.97211C41.7495 2.71838 43.459 3.80941 45.0499 5.09247C46.3815 6.16168 47.3439 7.56694 48.2053 9.0071C49.0095 10.3556 49.7302 11.7652 50.3587 13.2054C52.1913 17.3906 54.7621 21.1132 57.5528 24.7006C57.7593 24.9668 58.0538 25.1806 58.3482 25.3639C61.1916 27.1357 64.4129 28.0348 67.4803 29.2785C70.4863 30.4961 73.4088 31.8708 75.9709 33.874C77.2849 34.9039 78.5198 36.0299 79.7723 37.134C83.3891 40.3285 86.8653 43.6671 90.1437 47.2064C92.0422 49.2619 93.9319 51.3262 95.7821 53.4253C96.894 54.6866 97.9311 56.0176 98.9814 57.3356C100.629 59.4086 102.168 61.5732 103.903 63.5676C106.905 67.0109 109.977 70.3975 113.11 73.723C115.158 75.8963 117.422 77.8689 119.483 80.0335C122.634 83.3415 125.692 86.7412 128.786 90.1016C128.83 90.1496 128.865 90.2063 128.883 90.2761C127.586 89.2637 126.65 87.8584 125.253 86.8896C125.174 87.4525 125.495 87.7275 125.807 87.9893C126.123 88.2555 126.47 88.4912 126.804 88.7356C126.861 88.7792 126.94 88.7923 126.989 88.8403C127.714 89.5779 128.435 90.3154 129.16 91.0573C129.125 91.0879 129.094 91.1228 129.059 91.1533C128.689 90.7606 128.325 90.3678 127.956 89.975C127.929 89.9968 127.903 90.0187 127.876 90.0405C128.127 90.3722 128.377 90.7038 128.624 91.0355C128.127 90.5816 127.622 90.1409 127.143 89.6739C125.582 88.1508 124.031 86.619 122.471 85.0959C122.449 85.0741 122.401 85.0741 122.308 85.0479C122.563 85.4625 122.748 85.8771 123.029 86.2044C124.541 87.9719 126.352 89.4208 128.175 90.8522C128.303 90.9526 128.483 90.9919 128.641 91.0573C128.861 91.293 129.072 91.533 129.296 91.76C130.206 92.6721 131.098 93.6016 132.034 94.4875C132.623 95.0462 133.273 95.5393 133.954 96.1066C133.902 95.9714 133.866 95.8841 133.831 95.7968C135.339 97.3722 136.855 98.9433 138.349 100.528C138.578 100.768 138.723 101.086 138.898 101.37C139.092 101.688 139.008 101.889 138.657 102.055C138.112 102.312 137.611 102.33 137.061 102.038C135.765 101.352 134.662 100.405 133.568 99.4539C131.66 97.7999 129.757 96.1459 127.854 94.4963C127.811 94.4614 127.762 94.4308 127.639 94.3479C127.674 94.5399 127.696 94.6534 127.714 94.7712C127.846 95.6179 128.065 96.4645 128.083 97.3155C128.105 98.3891 127.723 99.3448 126.655 99.8249C126.286 99.9907 125.829 100.082 125.433 100.039C124.818 99.9733 124.246 99.79 123.706 99.5281C123.838 99.1877 123.956 98.843 124.071 98.5069C124.299 98.664 124.532 98.8168 124.769 98.9608C124.923 99.0524 125.134 99.0524 125.319 99.0917C124.923 98.7949 124.506 98.5855 124.137 98.3105C124.22 98.0487 124.304 97.7956 124.383 97.5468C124.4 97.4901 124.409 97.4377 124.413 97.3897C124.471 97.4333 124.528 97.477 124.585 97.525C124.616 97.4901 124.646 97.4552 124.673 97.4202C124.594 97.3461 124.515 97.2762 124.435 97.202C124.471 97.106 124.501 97.01 124.537 96.914C124.747 97.0973 124.954 97.2806 125.165 97.4639C125.007 97.1715 124.822 96.9053 124.624 96.6434C124.756 96.2376 124.884 95.8186 124.985 95.3909C125.771 96.2157 126.255 97.2326 126.642 98.3105C126.637 98.1403 126.628 97.9701 126.576 97.813C126.466 97.4813 126.365 97.1409 126.198 96.8354C125.815 96.1415 125.495 95.4127 125.125 94.7145C125.209 94.2213 125.253 93.7282 125.231 93.2394C125.433 93.5711 125.618 93.9158 125.771 94.2868C125.807 94.265 125.837 94.2431 125.872 94.2213C125.802 93.99 125.736 93.7587 125.635 93.4183C125.837 93.6234 125.956 93.7456 126.075 93.8635C125.947 93.5318 125.758 93.2568 125.56 92.9906C125.424 92.803 125.279 92.6241 125.139 92.4408C125.09 92.2007 125.024 91.9694 124.932 91.7381C124.914 91.6945 124.888 91.6596 124.866 91.6247C124.866 91.6028 124.875 91.581 124.875 91.5592C124.875 91.2188 124.875 90.874 124.787 90.5424C124.756 90.4245 124.708 90.3111 124.655 90.1976C124.721 90.2543 124.783 90.3111 124.849 90.3678C125.068 90.5598 125.301 90.778 125.565 90.8697C126.483 91.1795 127.182 91.7861 127.863 92.4364C128.703 93.2307 129.546 94.0206 130.403 94.8018C130.641 95.02 130.922 95.1945 131.181 95.3866C131.221 95.3386 131.265 95.2862 131.304 95.2382C128.571 92.7375 125.934 90.1321 123.077 87.758C123.042 87.7929 123.007 87.8279 122.972 87.8584C123.578 88.4694 124.185 89.076 124.791 89.687C124.66 89.6346 124.537 89.5604 124.435 89.4688C123.174 88.2992 121.93 87.1078 120.652 85.9556C120.045 85.4058 119.373 84.9257 118.731 84.4195C118.722 84.4151 118.705 84.4238 118.595 84.45C118.656 84.5722 118.692 84.6769 118.758 84.7555C118.999 85.0479 119.228 85.3578 119.509 85.6109C120.594 86.5841 121.684 87.5486 122.774 88.5174C122.449 88.4214 122.111 88.3647 121.763 88.3341C121.64 88.2163 121.513 88.0984 121.386 87.9806C120.454 87.1602 119.549 86.3091 118.626 85.48C117.712 84.6595 116.793 83.8478 115.883 83.0273C115.672 82.8353 115.532 82.8091 115.308 83.0404C114.086 84.2842 112.57 85.0348 110.917 85.5149C110.614 85.6022 110.307 85.6589 109.99 85.7113C109.995 85.5629 109.986 85.4145 109.968 85.2705C110.162 85.2443 110.35 85.2137 110.539 85.1788C111.774 84.9563 112.842 84.3147 113.888 83.6688C114.345 83.3895 114.714 82.9662 115.11 82.6171C113.216 81.2991 111.418 80.0422 109.608 78.781C109.573 78.8246 109.537 78.8726 109.502 78.9163C109.458 78.9774 109.414 79.0341 109.375 79.0952C109.234 79.3265 109.072 79.5273 108.9 79.7062C108.869 79.6233 108.821 79.5447 108.742 79.4793C108.707 79.4487 108.667 79.4313 108.632 79.4051C108.865 79.1738 109.076 78.9032 109.261 78.589C108.659 78.0609 108.083 77.5459 107.494 77.0484C105.71 75.5515 103.895 74.0895 102.137 72.5621C100.858 71.4492 99.6011 70.2971 98.4277 69.0708C97.3686 67.9623 96.4457 66.7316 95.4393 65.5707C95.2855 65.3962 95.0306 65.2827 94.7977 65.2129C94.0858 65.0034 93.2903 64.9641 92.6663 64.615C91.5588 63.9953 90.5568 63.1966 89.5065 62.4722C89.1901 62.254 88.8649 62.0445 88.5441 61.835L88.443 61.9529C88.5616 62.0969 88.6803 62.2453 88.8034 62.3849C89.2736 62.9217 89.7878 63.4236 90.2097 63.9953C91.1941 65.3176 92.218 66.6138 92.4641 68.3332C92.6004 69.2846 92.6663 70.1749 92.029 70.991C91.7698 71.3183 91.8708 71.6282 92.1521 71.9249C94.3275 74.1943 96.6479 76.3022 99.2451 78.0958C99.0781 78.1438 98.9463 78.2573 98.8628 78.4013C97.6191 77.5765 96.4721 76.6207 95.3426 75.6344C95.18 75.4948 95.0174 75.3551 94.8548 75.2155C94.8373 75.2417 94.8153 75.2635 94.7977 75.2897C94.9383 75.4642 95.0746 75.6388 95.2152 75.8134L95.1581 75.8657C94.389 75.1849 93.6155 74.5085 92.8465 73.8277C92.8113 73.867 92.7718 73.9106 92.7366 73.9499C92.9124 74.1463 93.0882 74.3383 93.264 74.5347C93.242 74.5565 93.22 74.5783 93.198 74.6001C92.5828 74.0459 91.9675 73.4917 91.3523 72.933L91.2995 72.9767C91.9675 73.723 92.6399 74.4736 93.3079 75.2199C93.2991 75.2329 93.2859 75.246 93.2771 75.2635C93.075 75.1413 92.8728 75.0191 92.6707 74.8969C92.6355 74.9449 92.596 74.9929 92.5608 75.0409C92.8289 75.233 93.097 75.4206 93.365 75.6126C93.3343 75.6475 93.3035 75.6825 93.2727 75.7174C92.7849 75.377 92.2839 75.054 91.8137 74.6918C91.3567 74.3383 90.9348 73.9455 90.4953 73.5746C90.447 73.6182 90.3986 73.6619 90.3503 73.7055C90.6359 74.0764 90.9216 74.4474 91.2072 74.8184C91.1765 74.8445 91.1501 74.8751 91.1194 74.9013C90.926 74.7223 90.7238 74.5478 90.5349 74.3558C90.3459 74.1637 90.1701 73.9586 89.9899 73.7579C89.946 73.7972 89.8976 73.8364 89.8537 73.8713C90.047 74.1375 90.2448 74.3994 90.4382 74.6656C90.4074 74.6874 90.381 74.7092 90.3503 74.7311C89.9767 74.2903 89.6032 73.8495 89.2121 73.3826C88.6539 73.6531 88.065 73.9368 87.4542 74.2292C87.6519 74.4823 87.8277 74.7093 87.9991 74.9318C87.5904 75.3857 87.4454 74.7093 87.2037 74.7354C87.2872 75.0671 87.3707 75.3813 87.4718 75.7828C87.0806 75.5559 86.795 75.3944 86.5093 75.2286L86.4566 75.3028C86.9312 75.7043 87.4058 76.1101 87.8805 76.5116C87.8629 76.5291 87.8497 76.5509 87.8321 76.5684C87.3839 76.3065 86.9356 76.0447 86.4918 75.7785C86.4654 75.8265 86.4346 75.8745 86.4083 75.9269C86.5181 76.0098 86.628 76.097 86.7422 76.18C87.3883 76.6382 88.0475 77.079 88.6759 77.559C90.7722 79.1563 93.0091 80.4655 95.4437 81.3558C95.4086 81.3951 95.3734 81.4388 95.3426 81.4955C95.3031 81.5653 95.2635 81.6264 95.2196 81.6919C95.0877 81.6221 94.9603 81.5522 94.8285 81.4868C93.6902 80.9151 92.4993 80.4263 91.4006 79.7891C89.0934 78.4537 87.0323 76.7778 85.0547 75.0016C84.9404 74.9013 84.7866 74.7703 84.6548 74.7703C83.7627 74.7791 82.8925 74.4998 81.9696 74.8445C81.2049 75.1282 80.3304 75.1151 79.3899 75.2504C79.6097 75.4293 79.7635 75.5821 79.9437 75.6956C81.3544 76.5684 82.7475 77.4674 84.1845 78.2878C87.3399 80.0902 90.5832 81.6875 94.1165 82.6564C94.2308 82.6869 94.345 82.7131 94.4593 82.7393C94.2528 83.0448 94.0506 83.3633 93.8616 83.6863C93.6199 83.5816 93.3518 83.6514 93.0574 83.6994C92.0906 83.8434 91.1062 83.9089 90.1305 84.0049C89.9152 84.0267 89.6955 84.0223 89.4801 84.0529C86.984 84.3933 84.5185 84.4762 82.0883 83.6034C78.4275 82.2941 74.8019 80.9107 71.4004 79.021C71.4488 79.0298 71.4971 79.0385 71.5454 79.0428C71.7608 79.0734 71.9453 79.0123 72.086 78.8988C75.0524 80.4394 78.1506 81.7006 81.2797 82.8877C83.1782 83.6077 85.1162 84.1052 87.1729 83.9525C87.7179 83.9132 88.2672 83.9176 88.8385 83.8085C88.7462 83.7692 88.6539 83.7212 88.5572 83.695C83.9296 82.3421 79.5262 80.4437 75.2194 78.314C74.547 77.9824 73.879 77.6419 73.211 77.3059C72.8858 77.1401 72.5123 77.0222 72.2442 76.7909C71.5982 76.2367 70.8335 76.036 70.0512 75.8396C70.104 75.6999 70.1172 75.5472 70.0776 75.4075C70.7983 75.5646 71.5191 75.7086 72.2486 75.8221C73.6373 76.0403 75.0216 76.1538 76.4147 75.9399C76.7707 75.8832 77.1311 75.7741 77.4563 75.617C77.6013 75.5472 77.6892 75.3115 77.7331 75.1326C77.7463 75.0889 77.4958 74.9318 77.3508 74.9056C74.1691 74.3296 71.3565 73.0378 68.8075 71.2136C68.913 71.1176 68.9877 70.991 69.0229 70.8557C69.102 70.9168 69.1855 70.9735 69.2646 71.0346C71.9366 73.0771 75.026 74.1114 78.2825 74.67C79.2757 74.8402 80.326 74.6874 81.35 74.6612C81.5521 74.6569 81.7543 74.5434 81.9432 74.395C81.807 74.3558 81.6752 74.299 81.5345 74.2816C79.2054 73.9935 77.2234 72.885 75.2941 71.6631C73.8878 70.7728 72.6221 69.721 71.4531 68.5558C71.5366 68.4991 71.607 68.4249 71.6597 68.3332C72.3453 68.9486 73.0352 69.5552 73.7472 70.1313C75.4655 71.5147 77.3376 72.7105 79.4383 73.4218C81.1434 73.9979 82.9013 74.4561 84.7295 74.4649C85.103 74.4649 85.4854 74.3645 85.8501 74.2641C87.5465 73.7797 89.1549 73.112 90.6447 72.1388C91.9719 71.2747 92.5696 69.6599 92.1125 68.0321C91.7434 66.7098 91.0754 65.5795 90.236 64.5059C88.5177 62.302 86.5972 60.3119 84.4306 58.5401C82.3871 56.8686 80.4535 55.0706 78.7395 53.0544C78.2869 52.522 77.9089 51.9241 77.4739 51.3742C77.2849 51.1385 77.0608 50.9116 76.8059 50.7545C76.2477 50.4053 75.694 50.0562 75.2062 49.6285C75.2106 49.6198 75.2194 49.6154 75.2238 49.6111C75.3073 49.5107 75.3644 49.4016 75.3908 49.2838C75.9533 49.7856 76.5861 50.2002 77.2585 50.5537C78.8802 51.4135 80.5018 52.2863 82.352 52.5656C82.7607 52.6267 83.2177 52.6311 83.6132 52.5263C84.7075 52.2296 85.1733 51.5007 85.1602 50.3748C85.147 49.1572 84.7119 48.136 84.0044 47.1453C82.5981 45.1727 80.8841 43.51 79.1087 41.8866C78.0408 40.909 77.0476 39.8485 76.028 38.8142C75.8698 38.6571 75.7643 38.4476 75.6325 38.2643C75.6589 38.2338 75.6896 38.2076 75.716 38.1814C75.8346 38.2687 75.9665 38.3472 76.072 38.4476C78.0715 40.3024 80.0975 42.1266 82.0487 44.0293C82.8398 44.8018 83.4462 45.7575 84.1758 46.5955C84.6899 47.1933 85.1426 47.8261 85.3447 48.5768C85.6392 49.6765 85.6875 50.7981 85.27 51.8848C85.1602 52.1728 85.2129 52.3649 85.4282 52.5743C87.5025 54.6037 89.5812 56.6242 91.6291 58.6798C92.4026 59.4566 93.1014 60.3076 93.8221 61.1324C93.9451 61.2764 94.0067 61.4728 94.1517 61.7565C91.0095 58.5968 87.964 55.5376 84.8965 52.4565C84.0923 53.0937 83.1606 53.2726 82.1762 53.0282C81.4379 52.8449 80.7127 52.5918 80.0008 52.3256C79.5218 52.1466 79.0691 51.8979 78.6033 51.684C78.5022 51.6404 78.3967 51.6142 78.199 51.5531C78.2781 51.719 78.3001 51.8106 78.3572 51.8804C80.2777 54.1367 82.3607 56.2358 84.6636 58.0993C86.461 59.5526 88.3155 60.9447 90.1437 62.3631C90.8161 62.8824 91.449 63.4585 92.1653 63.9124C92.7761 64.3008 93.4529 64.615 94.1429 64.8376C94.8153 65.0558 95.369 64.6368 95.6107 63.8556C95.9315 62.8213 95.8436 61.7739 95.6151 60.7396C95.035 58.1211 93.7474 55.8736 91.9148 53.9272C91.0798 53.0413 90.1965 52.2077 89.3395 51.3436C89.111 51.1123 88.9132 50.8461 88.7374 50.5712C90.7019 52.2077 92.6399 53.8574 94.055 56.0176C95.1053 57.6193 95.7953 59.3518 96.1732 61.2197C96.2216 61.451 96.3402 61.6823 96.4809 61.8743C97.5883 63.3625 98.9023 64.6543 100.326 65.8413C102.251 67.4473 104.15 69.0839 106.061 70.7073C106.18 70.8077 106.307 70.8994 106.461 71.0128C106.479 70.4542 106.452 69.948 106.527 69.4592C106.589 69.049 106.729 68.6387 106.909 68.2634C107.032 68.0059 107.015 67.8488 106.839 67.6437C105.534 66.1555 104.198 64.6979 102.954 63.1617C101.126 60.9142 99.3726 58.6099 97.5751 56.3362C94.5384 52.4914 91.1985 48.9084 87.7706 45.4215C84.8745 42.4757 81.807 39.7001 78.7923 36.8765C77.7463 35.8946 76.6652 34.9345 75.5138 34.0835C74.5075 33.3372 73.4176 32.6651 72.2881 32.124C70.0556 31.0504 67.7792 30.0597 65.4983 29.0821C64.2459 28.5454 62.9494 28.1133 61.6706 27.6333C61.4772 27.5591 61.2926 27.4718 61.1037 27.3889C60.2115 27.0005 59.4513 26.3851 58.5284 26.0229C57.333 25.5516 56.6167 24.4518 55.9004 23.435C54.85 21.9381 53.8393 20.415 52.8329 18.8875C52.2044 17.9361 51.5716 16.9804 51.0267 15.9854C50.3894 14.8245 49.8357 13.6156 49.2688 12.4199C48.3371 10.4516 47.2692 8.56196 46.0255 6.77267C45.274 5.68599 44.1797 4.98337 43.1074 4.26328C41.6572 3.29008 40.1806 2.36051 38.493 1.82372C37.3153 1.44841 36.1331 1.10801 34.885 1.04691C34.2697 1.01636 33.6633 0.867983 33.048 0.819977C31.1407 0.667232 29.2115 0.61922 27.3349 0.97708C25.3485 1.3524 23.3929 1.91973 21.5823 2.87985C21.3098 3.02386 21.0286 3.15479 20.7473 3.27698C20.1364 3.54756 19.5519 3.84869 19.2575 4.55131C19.174 4.4553 19.1213 4.38984 19.0334 4.2851C18.8444 4.80007 18.6686 5.2714 18.484 5.76891C18.4489 5.68599 18.3654 5.5638 18.339 5.43287C18.3039 5.23212 18.3258 5.02264 18.2863 4.82189C18.2643 4.72152 18.15 4.6386 18.0797 4.54695C18.0226 4.63423 17.9347 4.71279 17.9083 4.80443C17.8248 5.07937 17.7633 5.36304 17.6139 5.62926C17.6578 5.20593 17.7062 4.77825 17.7545 4.30256C17.0382 4.45967 16.3263 4.59495 15.6231 4.76952C14.1289 5.14484 12.6259 5.49833 11.1493 5.94348C7.36988 7.07379 4.20572 9.12494 1.77985 12.2453C1.38873 12.7515 1.01518 13.2709 0.637232 13.7815C0.663601 13.8208 0.689965 13.86 0.716334 13.9037C0.878937 13.8557 1.05034 13.8208 1.20415 13.7553C1.94246 13.4367 2.65439 13.009 3.42346 12.7995C5.64717 12.1886 7.92362 11.8132 10.2264 11.5819C12.6435 11.3419 15.0562 11.1281 17.4864 11.355C18.6115 11.4598 19.7365 11.6954 20.8616 11.7129C22.0262 11.7347 23.1424 11.9093 24.2543 12.2017C24.4037 12.2409 24.5839 12.1449 24.7465 12.0489C24.3026 11.9442 23.8499 11.8743 23.4193 11.7303C23.0545 11.6081 22.7249 11.3856 22.3645 11.2459C22.0965 11.1412 21.802 11.0975 21.5208 11.0321C21.3494 10.9928 21.178 10.971 21.011 10.8357C21.8636 10.9055 22.7161 10.9797 23.5687 11.0495L23.595 10.9753C23.4588 10.923 23.3182 10.875 23.1907 10.8095C23.0985 10.7615 22.9402 10.6917 22.9402 10.6306C22.9315 10.1985 22.6106 10.168 22.3074 10.1025C21.5911 9.95412 20.8703 9.8232 20.1628 9.63554C19.7893 9.53517 19.4377 9.33878 19.0949 9.13366C19.9035 9.32568 20.7078 9.51771 21.5164 9.70973L21.5603 9.60499C21.4856 9.54389 21.4109 9.47843 21.2571 9.35187C22.7205 9.92357 24.0873 10.456 25.3793 10.9579C25.5771 10.8139 25.7353 10.7004 25.9111 10.5738C25.8847 10.5564 25.8363 10.4909 25.7836 10.4909C24.2762 10.4385 22.9402 9.82756 21.6174 9.19476C21.0373 8.91982 20.4924 8.50086 19.8859 8.36558C19.0202 8.17792 18.7785 7.47093 18.3258 6.92105C18.2951 6.88177 18.3039 6.8163 18.2951 6.75521C18.1588 6.34498 18.027 5.93475 17.8908 5.52452C17.9479 5.49834 18.005 5.47215 18.0665 5.44596C18.2687 6.40607 18.6642 7.2309 19.6311 7.68477C19.4289 7.4011 19.2443 7.14361 19.0597 6.89049C19.1037 6.83376 19.152 6.78139 19.196 6.72466C20.5539 8.25647 22.4085 8.8369 24.2147 9.5308C23.6742 9.3606 23.1292 9.1904 22.5887 9.0202C22.5755 9.04638 22.5667 9.07257 22.5535 9.09439C22.7645 9.19476 22.971 9.32132 23.1907 9.38678C23.9071 9.60063 24.6322 9.78392 25.3485 9.99777C25.6518 10.0894 25.9418 10.2291 26.2407 10.3338C26.2978 10.3556 26.3725 10.3163 26.5175 10.2945C26.3593 10.168 26.2626 10.0894 26.1659 10.0109C26.1747 9.98031 26.1835 9.94976 26.1967 9.91485C26.456 9.95412 26.7153 9.98903 26.9262 10.0196C26.8515 10.3163 26.7856 10.5738 26.7197 10.827C26.7592 10.84 26.7988 10.8531 26.8383 10.8662C26.5966 11.0932 26.3549 11.3201 26.0341 11.6212C26.2626 11.63 26.3989 11.6343 26.5703 11.6387C26.3285 11.7565 26.0517 11.8743 26.3989 12.1624C26.2187 12.2977 26.0693 12.4068 25.8451 12.577C26.0868 12.6643 26.2626 12.7254 26.4428 12.7865C26.4428 12.8039 26.4472 12.8214 26.4472 12.8388C26.1835 12.8301 25.9155 12.8257 25.6518 12.817C25.6474 12.8432 25.643 12.865 25.6386 12.8912C25.7528 12.9523 25.8671 13.0134 25.9814 13.0788C25.9726 13.1007 25.9682 13.1269 25.9594 13.1487C25.1332 13.0963 24.307 13.0221 23.4764 12.9959C22.8655 12.9741 22.2371 12.8912 21.679 13.2491C20.5847 13.2098 19.4948 13.1705 18.4005 13.1312C18.4005 13.1705 18.3961 13.2098 18.3961 13.2491L21.178 13.3232C21.1824 13.3712 21.1824 13.4193 21.1868 13.4673C20.8967 13.5196 20.6067 13.5676 20.4089 13.6025C20.3298 13.7466 20.2771 13.8382 20.2156 13.9473C21.1077 14.0302 22.0569 14.1175 23.0062 14.2048C23.0018 14.2615 22.9974 14.3139 22.993 14.3706C20.9758 14.3575 18.9587 14.3794 16.9591 14.0346C19.0466 14.5277 21.1384 15.0209 23.2259 15.5184C23.4808 15.5795 23.7225 15.6755 23.9466 15.8457C23.45 15.7235 22.9578 15.5708 22.4568 15.4835C22.0701 15.418 21.657 15.0951 21.2791 15.5359C21.2439 15.5751 21.0857 15.5184 20.9846 15.4966C20.2859 15.3482 19.5871 15.1998 18.8444 15.1169C18.9455 15.2042 19.0378 15.3307 19.1564 15.37C20.1013 15.6842 21.0549 15.981 22.0042 16.2778C22.659 16.4829 23.3138 16.7011 23.9774 16.8844C24.1883 16.9411 24.4388 16.8626 24.641 16.9324C24.9574 17.0415 25.2387 17.2335 25.5463 17.3644C26.0605 17.587 26.579 17.7921 27.0976 18.0016C27.1855 17.9056 27.269 17.8052 27.4272 17.6306C27.7085 17.8139 28.0469 18.0321 28.3853 18.2547C28.4028 18.2373 28.4204 18.2154 28.4336 18.198C28.3281 18.0234 28.2227 17.8489 28.082 17.6176C29.4268 18.2896 30.7013 18.9355 31.6593 19.9349C30.8551 19.433 29.9937 18.8919 29.1236 18.3507C29.7696 19.2847 30.3936 20.1837 31.0177 21.0871C30.9693 21.122 30.9254 21.1569 30.877 21.1918C30.2178 20.3277 29.8179 19.193 28.7544 18.9268C29.0401 19.2148 29.4136 19.5989 29.7872 19.9829C29.7652 20.0135 29.7432 20.044 29.7212 20.0702C28.5962 19.5465 27.5283 18.8613 26.1923 18.713C26.6977 19.3065 27.1591 19.852 27.625 20.3932C27.6118 20.4106 27.5986 20.4281 27.5854 20.4412C27.3701 20.284 27.1591 20.1313 26.9438 19.9742C26.9262 19.9916 26.9042 20.0047 26.8867 20.0222C26.9482 20.1051 27.0009 20.1968 27.0669 20.2753C27.4624 20.7248 27.8579 21.1787 28.2666 21.6195C28.4731 21.842 28.6006 22.1213 28.9917 22.1868C29.1895 22.2174 29.3477 22.5883 29.4883 22.824C29.9234 23.5571 29.9234 23.6619 29.9058 24.4954C29.9014 24.7617 29.774 25.1021 30.1475 25.2984C30.209 25.3334 30.1563 25.6214 30.1212 25.7829C30.0904 25.9443 30.0201 26.0971 29.9673 26.2542C30.0157 26.2804 30.064 26.3066 30.1124 26.3371C30.209 26.1931 30.3804 26.0534 30.3892 25.9007C30.42 25.3857 30.4288 24.862 30.3892 24.3471C30.3365 23.6706 30.231 22.9985 30.1563 22.3876C30.6705 22.8676 30.42 23.6837 30.6793 24.3296C30.7364 24.3209 30.7979 24.3078 30.8551 24.2991C30.8639 24.0808 30.8683 23.867 30.877 23.6532C30.9649 23.6881 31.0616 23.723 31.2462 23.7972C31.1803 24.3209 31.11 24.9144 31.0309 25.5385C31.1144 25.4599 31.1935 25.3857 31.2901 25.2984C31.2418 25.8658 30.6793 26.3938 29.8443 26.6208C29.7828 26.2978 29.7212 25.9749 29.6641 25.6563C29.6597 25.6301 29.6729 25.5996 29.6729 25.569C29.7959 24.3165 29.6333 23.9107 28.5566 22.9156C28.75 23.4742 28.9082 23.9237 29.062 24.3776C29.1675 24.6918 29.2774 25.006 29.3741 25.3203C29.6377 26.18 29.8619 27.0572 30.1607 27.9038C30.6353 29.2349 31.1583 30.5485 31.6505 31.8752C31.6988 32.0061 31.6637 32.1676 31.6681 32.316C31.6329 32.3203 31.5978 32.3291 31.5582 32.3334C31.2198 31.4126 30.877 30.4918 30.5386 29.5709C30.4815 29.5928 30.42 29.6146 30.3629 29.632C30.8023 30.902 31.2374 32.1676 31.6769 33.4376C31.6769 33.455 31.6769 33.4725 31.6857 33.4899C31.7252 33.599 31.756 33.7169 31.7867 33.8303C31.8351 34.3497 31.9318 34.8559 32.09 35.3491C32.0944 35.3796 32.0944 35.4102 32.0988 35.4407C32.2174 36.4532 32.4196 37.4526 32.5514 38.4607C32.7975 40.394 33.215 42.3099 33.1447 44.2825C33.1139 45.0855 33.3425 45.9016 33.4699 46.7089C33.7819 48.7252 34.0764 50.7501 34.4367 52.7576C34.4587 52.8711 34.4763 52.9846 34.4983 53.098C34.4104 53.2115 34.3576 53.3512 34.3576 53.4908C34.3576 53.5781 34.3576 53.6697 34.3532 53.757C34.3532 53.7832 34.3269 53.997 34.3444 53.8967C34.3401 53.9141 34.3444 53.9316 34.3444 53.949C34.2961 54.0538 34.2302 54.1585 34.1555 54.272C33.9797 53.5606 33.8171 52.8493 33.6677 52.1292C33.4128 50.8767 33.3688 49.5805 33.1974 48.3106C33.0612 47.3155 32.8722 46.3249 32.7228 45.3299C32.6613 44.9284 32.6525 44.5181 32.6173 44.1079C32.4767 42.5717 32.3712 41.0268 32.1735 39.495C32.0021 38.1814 31.7516 36.8765 31.4747 35.5804C31.2242 34.389 30.9605 33.1888 30.5826 32.0323C29.5982 29.0123 28.2666 26.132 26.7021 23.3695C25.5551 21.3445 24.0873 19.5596 22.2679 18.0845C22.1097 17.958 21.9295 17.8314 21.7405 17.779C19.2575 17.1244 16.7877 16.3869 14.2695 15.8719C12.7006 15.5533 11.0614 15.5228 9.45296 15.466C7.98514 15.4137 6.51293 15.4573 5.0495 15.5315C4.11782 15.5795 3.23888 15.8763 2.51816 16.6662C2.63681 16.0683 2.89171 15.6493 3.30481 15.3569C4.69353 14.3837 6.2844 13.9037 7.94119 13.6942C10.4022 13.3843 12.8764 13.1661 15.3462 12.913C16.2955 12.817 17.2447 12.7384 18.2072 12.5682C17.882 12.5246 17.5612 12.4548 17.236 12.4373C16.5636 12.4111 15.9307 12.4024 15.2979 12.398ZM124.616 86.7979C124.655 86.763 124.695 86.7325 124.739 86.6976C124.418 86.3048 124.093 85.912 123.772 85.5192C123.732 85.5498 123.688 85.5803 123.649 85.6109L124.616 86.7979ZM135.914 99.8511C135.18 99.1484 134.451 98.4415 133.721 97.7388C133.708 97.7519 133.699 97.7607 133.686 97.7737C134.429 98.4676 135.172 99.1572 135.914 99.8511ZM130.474 93.7064C130.518 93.6627 130.566 93.6234 130.61 93.5798C130.039 92.9994 129.472 92.4233 128.9 91.8429C128.87 91.8734 128.835 91.904 128.804 91.9345C129.362 92.5237 129.916 93.1128 130.474 93.7064ZM78.0584 75.617C77.5222 75.8046 77.0168 76.1451 76.4675 76.2236C75.382 76.372 74.2789 76.3807 73.1846 76.4505C73.0836 76.4593 72.9825 76.4942 72.7496 76.5466C72.9737 76.6993 73.0792 76.791 73.2022 76.852C75.1974 77.8209 77.1706 78.8246 79.1878 79.7367C82.1981 81.094 85.2612 82.3247 88.443 83.2673C89.8317 83.6776 91.2292 83.6688 92.6355 83.5248C93.0266 83.4855 93.4002 83.2673 93.7825 83.132C93.7825 83.0928 93.7825 83.0579 93.7825 83.0186C93.6814 82.9749 93.5848 82.9138 93.4749 82.8833C90.8689 82.1283 88.3771 81.0853 86.0215 79.7498C83.9165 78.5541 81.829 77.3321 79.7371 76.1232C79.4075 75.9312 79.0955 75.7043 78.7439 75.5733C78.5462 75.4904 78.2693 75.5428 78.0584 75.617ZM86.3907 74.8576C86.3643 74.8969 86.3423 74.9318 86.316 74.9711C86.4654 75.0671 86.6192 75.1631 86.7686 75.2635C86.7906 75.2286 86.817 75.1937 86.8389 75.1544C86.6895 75.054 86.5401 74.958 86.3907 74.8576ZM91.1633 73.592C91.3479 73.7535 91.5325 73.9106 91.717 74.0721C91.7302 74.059 91.7434 74.0459 91.7566 74.0328C91.5852 73.8539 91.4138 73.6793 91.238 73.5004C91.216 73.5309 91.1897 73.5615 91.1633 73.592ZM121.873 85.0959C121.838 85.1308 121.799 85.1614 121.763 85.1963L122.396 85.8771C122.427 85.8509 122.458 85.8204 122.493 85.7942C122.286 85.5585 122.08 85.3272 121.873 85.0959ZM121.913 86.104L122.049 86.2873C122.177 86.3702 122.326 86.4357 122.436 86.5361C123.543 87.5747 124.624 88.644 125.758 89.6564C126.127 89.9837 126.624 90.1714 127.059 90.4245C126.923 90.2151 126.751 90.0579 126.571 89.9096C125.508 89.0105 124.431 88.129 123.385 87.2125C122.871 86.7586 122.414 86.2437 121.922 85.7636C121.847 85.6894 121.715 85.4494 121.654 85.7811C121.315 85.4319 120.977 85.0872 120.638 84.738C120.599 84.7773 120.559 84.821 120.52 84.8603C120.986 85.2792 121.447 85.6894 121.913 86.104ZM106.69 71.6762C106.65 71.5627 106.553 71.4449 106.448 71.3794C104.462 70.1531 102.792 68.5384 101.038 67.0284C99.4165 65.6318 97.7377 64.2921 96.4809 62.5333C96.4457 62.4853 96.3798 62.4591 96.2963 62.4024C96.2699 62.5202 96.2567 62.59 96.2435 62.6555C96.0809 63.3014 95.9139 63.9429 95.7645 64.5888C95.7426 64.6892 95.7426 64.8288 95.7953 64.9074C96.5775 66.0333 97.228 67.2946 98.1816 68.2547C102.282 72.3701 106.786 76.0359 111.432 79.5316C111.928 79.9069 112.447 80.2561 112.957 80.6139C112.978 80.5834 113 80.5528 113.027 80.5223C112.957 80.4306 112.891 80.3346 112.82 80.2473C111.612 78.7592 110.394 77.2797 109.199 75.7741C108.193 74.5129 107.217 73.2298 106.69 71.6762ZM106.984 70.6157C107.182 72.0689 107.942 73.2735 108.821 74.395C110.443 76.468 112.174 78.4624 113.739 80.579C114.745 81.9363 116.055 82.6869 117.615 83.1102C118.314 83.2979 119.034 83.4332 119.751 83.5117C120.41 83.5815 121.095 83.6121 121.772 83.167C116.934 78.2311 112.13 73.3302 107.296 68.4031C106.923 69.0795 106.879 69.8389 106.984 70.6157ZM23.8192 11.1412C23.8104 11.1761 23.8016 11.2066 23.7928 11.2415L24.2059 11.3768C24.2191 11.3419 24.2279 11.3114 24.2411 11.2765C24.1004 11.2328 23.9598 11.1848 23.8192 11.1412ZM25.8495 10.8139C25.7704 10.9448 25.6913 11.0757 25.6122 11.2066L25.7221 11.2721C25.8056 11.1455 25.8935 11.019 25.977 10.8924C25.9374 10.8662 25.8935 10.84 25.8495 10.8139ZM25.5902 12.2235C25.7309 12.1755 25.8715 12.1275 26.0121 12.0838C25.9989 12.0445 25.9858 12.0096 25.9726 11.9704L25.5595 12.1318C25.5683 12.1624 25.5771 12.1929 25.5902 12.2235ZM28.3457 18.4206L27.0756 18.0103C27.3833 18.4162 27.8491 18.4686 28.271 18.6082L28.3457 18.4206ZM27.5151 18.6519L27.5503 18.5384L26.8208 18.3071C26.8032 18.3464 26.7812 18.3813 26.7636 18.4206C27.0141 18.4991 27.2646 18.5777 27.5151 18.6519ZM30.5211 25.5472C30.899 24.9973 30.9122 24.5871 30.5079 24.4954C30.4683 24.8489 30.4332 25.1937 30.3936 25.5385C30.4376 25.5428 30.4771 25.5472 30.5211 25.5472ZM29.0928 24.8664L28.6797 23.7841C28.6489 23.7928 28.6182 23.8015 28.5874 23.8059L28.961 24.91C29.0049 24.8969 29.0489 24.8839 29.0928 24.8664ZM28.5083 25.5167C28.5391 25.5036 28.5698 25.4905 28.5962 25.4774C28.5347 25.3115 28.4731 25.1457 28.4116 24.9799C28.3589 25.006 28.3105 25.0279 28.2578 25.0541C28.3413 25.2112 28.4248 25.3639 28.5083 25.5167ZM28.3633 23.256C28.3721 23.2473 28.3853 23.2429 28.394 23.2342C28.3501 23.1469 28.3062 23.0553 28.2402 22.9331C28.2227 22.9724 28.2007 22.9985 28.2051 23.0073C28.2534 23.0946 28.3105 23.1731 28.3633 23.256ZM27.4843 21.7635C27.5195 21.7373 27.5591 21.7111 27.5942 21.6849C27.269 21.2223 26.9394 20.7641 26.6142 20.3015C26.5703 20.3364 26.5263 20.367 26.4824 20.4019C26.8207 20.8557 27.1503 21.3096 27.4843 21.7635ZM25.6825 20.8776C25.7089 20.8514 25.7309 20.8252 25.7572 20.799C25.643 20.6681 25.5287 20.5415 25.4145 20.4106C25.3837 20.4368 25.3573 20.463 25.3266 20.4892C25.4452 20.6201 25.5639 20.751 25.6825 20.8776ZM26.2099 19.8651L26.3242 19.7123C25.7309 19.2803 25.1376 18.8482 24.5443 18.4206C24.5091 18.4729 24.4696 18.5253 24.43 18.5777C25.0233 19.0097 25.6166 19.4374 26.2099 19.8651ZM17.0338 14.3226C17.025 14.3706 17.0162 14.4186 17.0074 14.4666C17.4689 14.5365 17.9303 14.6063 18.3961 14.6761C18.4005 14.6543 18.4049 14.6325 18.4093 14.6107C17.9523 14.519 17.4908 14.423 17.0338 14.3226ZM21.9866 17.347C21.5823 16.9455 19.4421 16.1687 18.7389 16.1861C19.7893 16.5658 20.844 16.9411 21.9866 17.347ZM16.3526 15.4311C17.3854 15.6406 18.4225 15.8413 19.4509 16.0596C19.9079 16.1556 20.3694 16.2603 20.8176 16.3956C21.7801 16.688 22.7337 17.0066 23.6917 17.3077C23.7664 17.3295 23.8543 17.3077 23.9115 17.3033C23.2874 17.0197 22.6854 16.6574 22.0305 16.4654C20.8484 16.1207 19.6398 15.8632 18.4313 15.61C17.7545 15.466 17.0558 15.4093 16.3702 15.3133C16.3614 15.3526 16.357 15.3918 16.3526 15.4311Z" fill="#780A0F"></path> <path d="M71 39.2524C71.4279 39.6482 71.9004 40.0099 72.2793 40.4482C72.9881 41.261 73.5632 42.129 74 43.0524C73.893 43.095 73.7994 43.1588 73.7325 43.2524C73.5854 42.9503 73.425 42.6525 73.2333 42.3588C72.5423 41.3035 71.7311 40.3163 71 39.2524Z" fill="#780A0F"></path> <path d="M43.3251 49.8044C42.8276 49.3379 42.3941 48.8113 42 48.2524C42.4286 48.6589 42.8424 49.0792 43.2857 49.4718C43.5172 49.6751 43.7537 49.8321 44 49.9476C43.9704 50.0446 43.9606 50.1508 43.9803 50.2524C43.7389 50.1416 43.5074 49.9753 43.3251 49.8044Z" fill="#780A0F"></path> <path d="M109.041 90.2524C109.687 90.5324 110.338 90.7979 111 91.0488C110.964 91.067 110.933 91.0852 110.892 91.1033C110.79 91.1506 110.692 91.2015 110.59 91.2524C110.051 91.0415 109.523 90.8197 109 90.5906C109.015 90.4815 109.026 90.3688 109.041 90.2524Z" fill="#780A0F"></path> <path d="M120.909 104.75C120.931 104.702 120.945 104.658 120.953 104.615C120.98 104.628 121.006 104.641 121.033 104.654C121.783 105.006 122.604 105.233 123.412 105.463C124.012 105.633 124.573 105.511 125.067 105.015C124.855 104.767 124.656 104.537 124.458 104.31C123.752 103.506 123.041 102.71 122.352 101.892C122.472 101.687 122.582 101.474 122.688 101.252C123.478 102.201 124.268 103.149 125.071 104.084C127.075 106.416 129.079 108.747 131.131 111.04C136.414 116.947 141.697 122.859 147.546 128.24C149.346 129.897 151.306 131.38 153.204 132.933C153.402 133.094 153.681 133.159 153.897 133.303C155.212 134.177 156.055 135.395 156.492 136.883C156.872 138.162 157.031 139.476 156.995 140.807C156.955 142.203 156.466 142.607 155.115 142.738C154.519 142.795 153.892 142.616 153.288 142.512C152.97 142.46 152.665 142.342 152.374 142.259C151.73 143.19 150.953 143.912 149.845 144.16C148.843 144.382 147.863 144.191 146.976 143.717C143.979 142.107 141.697 139.784 140.051 136.848C140.016 136.787 139.994 136.722 140.011 136.626C140.594 137.292 141.155 137.979 141.759 138.619C142.845 139.767 143.895 140.959 145.092 141.985C145.842 142.629 146.773 143.169 147.718 143.473C149.43 144.03 150.498 143.643 151.54 142.473C151.619 142.381 151.668 142.129 151.619 142.09C151.46 141.964 151.253 141.842 151.059 141.829C149.907 141.764 148.861 141.42 147.952 140.711C146.716 139.745 145.657 138.619 144.721 137.374C144.394 136.935 144.085 136.483 143.772 136.035C143.807 136.009 143.843 135.982 143.878 135.961C144.2 136.33 144.522 136.696 144.836 137.074C145.815 138.244 146.901 139.31 148.115 140.25C148.918 140.868 149.827 141.211 150.803 141.424C151.725 141.624 152.648 141.816 153.561 142.046C154.369 142.246 155.159 142.299 155.954 141.994C156.293 141.864 156.633 141.442 156.576 141.085C156.351 139.663 156.21 138.218 155.826 136.839C155.583 135.969 154.987 135.186 154.488 134.408C154.329 134.16 153.972 134.038 153.703 133.864C151.001 132.12 148.464 130.154 146.195 127.896C142.827 124.546 139.5 121.158 136.282 117.669C132.786 113.88 129.441 109.957 126.029 106.09C125.826 105.863 125.623 105.637 125.416 105.411C125.155 105.559 124.934 105.711 124.696 105.816C124.458 105.92 124.197 105.977 123.88 106.072C123.977 106.211 124.061 106.351 124.162 106.477C125.336 108.004 126.506 109.526 127.68 111.053C127.609 111.001 127.543 110.948 127.481 110.888C127.269 110.687 127.022 110.666 126.815 110.748C126.338 110.131 125.866 109.509 125.389 108.891C124.802 108.13 124.1 107.46 123.456 106.742C123.271 106.538 123.103 106.316 122.926 106.098C122.67 105.776 122.251 105.642 121.955 105.785L121.964 105.776C121.571 105.559 121.178 105.341 120.794 105.128C120.358 105.702 120.362 105.698 120.768 106.229C121.695 107.429 122.617 108.63 123.544 109.831C123.491 109.818 123.438 109.804 123.385 109.796C123.235 109.778 123.085 109.774 122.935 109.765C122.419 109.091 121.902 108.421 121.386 107.747C121.152 107.442 120.887 107.164 120.636 106.873C120.463 106.716 120.291 106.559 120.119 106.398C120.079 106.385 120.04 106.368 120 106.355C120.291 105.907 120.561 105.446 120.786 104.98C120.834 104.915 120.874 104.832 120.909 104.75Z" fill="#780A0F"></path> <path d="M121.604 108.412C121.755 108.674 121.902 108.942 122 109.252C121.374 108.345 120.743 107.442 120.117 106.534C120.098 106.587 120.083 106.635 120.064 106.687H120C120.083 106.544 120.162 106.401 120.242 106.252C120.362 106.381 120.487 106.51 120.608 106.639C120.936 107.232 121.268 107.824 121.604 108.412Z" fill="#780A0F"></path> <path d="M130.351 118.252C132.847 121.463 135.339 124.677 137.836 127.888C137.916 127.987 137.987 128.096 138 128.252C137.387 127.64 136.712 127.071 136.17 126.402C134.58 124.447 133.025 122.466 131.479 120.477C130.986 119.842 130.493 119.204 130 118.565C130.12 118.465 130.24 118.361 130.351 118.252Z" fill="#780A0F"></path> <path d="M127.417 121.252C130.621 125.359 133.825 129.461 137.02 133.572C137.406 134.068 137.678 134.643 138 135.182L137.887 135.252C137.433 134.695 136.979 134.142 136.53 133.581C135.4 132.164 134.274 130.738 133.144 129.321C131.098 126.75 129.042 124.183 127 121.603C127.154 121.503 127.295 121.388 127.417 121.252Z" fill="#780A0F"></path> <path d="M58.4476 93.4566C58.6198 93.5066 58.7317 93.5691 58.8436 93.5649C59.2095 93.5483 59.5796 93.5149 59.9455 93.4774C60.0445 93.4691 60.1392 93.4233 60.2382 93.3983C60.4362 93.3441 60.6384 93.2358 60.8278 93.2566C60.8924 93.2649 60.944 93.2566 61 93.2524C60.9613 93.6149 60.9397 93.9858 60.9397 94.3608C60.759 94.3858 60.5868 94.3983 60.4706 94.4816C60.3285 94.5816 60.2855 94.8149 60.2339 94.9149C60.2253 94.8524 60.2123 94.6899 60.1951 94.5441C59.5968 94.4024 59.627 94.8441 59.5366 95.2524C59.4462 95.0108 59.3945 94.8733 59.33 94.7066C59.0459 94.7566 58.7747 94.8024 58.5036 94.8524C58.4605 94.8191 58.3745 94.7566 58.2582 94.6691C58.198 94.8691 58.1549 95.0066 58.1119 95.1399C58.0947 95.0149 58.0603 94.9108 58.0043 94.8274C58.0043 94.8191 58.0086 94.8149 58.0086 94.8066C58.0258 94.5608 58.0172 94.3149 58 94.0691C58.0689 93.9774 58.1162 93.8649 58.1162 93.7316C58.1162 93.7149 58.1162 93.7024 58.1162 93.6858C58.2367 93.6816 58.3572 93.6066 58.4476 93.4566Z" fill="#780A0F"></path> <path d="M53 93.005C53.2954 92.8149 53.601 92.6337 53.9219 92.4791C54.3345 92.2802 54.8998 92.2448 55.3888 92.2537C55.5925 92.2581 55.7963 92.2669 56 92.2758C55.9643 92.4304 55.9389 92.5895 55.9287 92.7486C55.0221 92.6779 54.1562 92.5851 53.4635 93.2524C53.3464 93.1199 53.1834 93.0359 53 93.005Z" fill="#780A0F"></path> <path d="M59.9556 92.2952C60.1834 92.2212 60.4413 92.2635 60.682 92.2741C60.7765 92.2793 60.8625 92.2688 60.9441 92.2529C60.9613 92.3904 60.9785 92.5279 61 92.6654C60.6261 92.7553 60.2565 92.8558 59.8911 92.9774C59.5258 93.0991 58.6748 93.2048 58.3267 93.1731C58.2278 93.1625 58.1246 93.2154 58.0258 93.2524C58.0172 93.2154 58.0129 93.1784 58 93.1467C58.0043 92.9457 58.0086 92.7394 58.0172 92.5385C58.6619 92.5544 59.3109 92.512 59.9556 92.2952Z" fill="#780A0F"></path> <path d="M55.926 84.2524C55.8999 84.2281 55.8737 84.2087 55.8476 84.1844C54.8853 83.3578 53.9361 82.5166 53 81.656C53.1829 81.5734 53.3657 81.4421 53.5443 81.2524C53.9231 81.6025 54.2975 81.9526 54.6763 82.2978C55.103 82.6868 55.5472 83.0515 56 83.4064C55.8737 83.5863 55.8171 83.8343 55.8737 84.0579C55.8868 84.126 55.9042 84.1892 55.926 84.2524Z" fill="#780A0F"></path> <path d="M86.936 90.0642C85.9868 88.9747 85.0287 87.926 84.3797 86.6321C84.3444 86.5595 84.3355 86.4687 84.3709 86.3325C85.9249 88.5933 87.8896 90.3366 90 91.8847C89.9426 92.0073 89.8852 92.1299 89.8234 92.2524C89.5099 92.0255 89.1921 91.7985 88.8786 91.5669C88.2163 91.0675 87.5541 90.6635 86.7594 90.3957C84.3488 89.5876 81.9338 88.7704 79.5806 87.8079C76.4724 86.5368 73.4172 85.1204 70.3444 83.7584C70.0044 83.6086 69.6821 83.427 69.3598 83.2409C68.3576 82.6598 67.3598 82.0742 66.3576 81.484C66.234 81.4113 66.1192 81.3296 66 81.2524C72.8433 84.5393 79.8013 87.5174 86.936 90.0642Z" fill="#780A0F"></path> <path d="M29.9492 9.85232C29.9356 9.8145 29.9175 9.77668 29.9039 9.74359C30.1079 9.64431 30.3073 9.54504 30.5113 9.44104C30.5385 9.4694 30.5657 9.49304 30.5975 9.52141C30.5249 9.63014 30.4524 9.73886 30.3799 9.84759C30.4796 9.88541 30.6655 9.91378 30.6655 9.95633C30.6745 10.084 30.6473 10.2825 30.5657 10.3298C30.1306 10.5992 29.6954 10.9065 29.2194 11.0578C28.8432 11.1807 28.408 11.1051 28 11.1145C28.5984 11.1854 29.2013 11.1949 29.7996 11.228C30.5113 11.2658 31.2185 11.2942 31.8441 11.7385C32.116 11.9324 32.4152 12.164 32.7235 12.2065C33.8658 12.3626 34.913 12.1404 35.7743 11.2374C36.1958 10.7978 36.699 10.4385 37.1614 10.0367C37.4288 9.80505 37.6918 9.56868 37.9592 9.33231C37.9411 9.29449 37.9184 9.25667 37.9003 9.21885C37.6691 9.19049 37.4334 9.16213 37.0934 9.11958C37.3382 8.85485 37.515 8.66575 37.6918 8.47666C37.447 8.36793 37.107 8.21665 36.7715 8.0701C36.7806 8.03701 36.7897 8.00392 36.7987 7.9661C37.1976 8.09374 37.6011 8.21665 38 8.34429C36.8441 7.38464 35.6609 6.48171 34.1741 6.28788C33.0045 6.13661 31.9438 6.45807 31.1686 7.47446C30.5476 8.28757 29.9583 9.14322 28.8432 9.52613C29.0925 9.58286 29.2058 9.6065 29.3781 9.64432C29.2375 9.75777 29.1514 9.82869 29.0879 9.88069C29.3146 9.92796 29.6591 9.90905 29.718 10.0272C29.8812 10.3912 30.1124 10.24 30.2122 10.2494C30.2937 10.0509 30.3436 9.93741 30.3889 9.82868C30.2484 9.84287 30.0988 9.8476 29.9492 9.85232ZM35.6655 9.89959C35.2937 11.0342 34.6228 11.5684 33.5258 11.5967C32.4742 11.6251 31.5585 11.0058 31.1732 9.99887C30.7289 8.85012 31.5494 7.37518 32.7869 7.10572C33.0544 7.049 33.3264 7.02536 33.5938 6.98754C35.2076 6.91663 36.1913 8.30174 35.6655 9.89959Z" fill="#780A0F"></path> <path d="M67.4114 79.2524C68.6998 80.078 70.0108 80.8675 71.3535 81.6119C74.3282 83.2631 77.538 84.1744 80.8517 84.797C81.2315 84.8692 81.6067 84.9369 81.9864 85.0045C81.991 85.0587 81.9955 85.1173 82 85.1715C81.8237 85.1985 81.6383 85.2707 81.4711 85.2481C77.3888 84.6707 73.4919 83.5248 69.9611 81.3367C68.9665 80.7187 67.981 80.0825 67 79.4419C67.1673 79.4374 67.3074 79.3652 67.4114 79.2524Z" fill="#780A0F"></path> <path d="M88.0734 86.2524C89.0068 87.2424 89.9891 88.1419 91 88.9761C90.9674 89.0665 90.9348 89.162 90.9103 89.2524C90.5394 88.956 90.1685 88.6545 89.7976 88.358C89.2228 87.8906 88.7418 87.2474 88.2242 86.6796C88.1386 86.5891 88.0734 86.4685 88 86.363C88.0245 86.3278 88.0489 86.2876 88.0734 86.2524Z" fill="#780A0F"></path> <path d="M86.9244 73.2524C84.7184 72.3547 82.4991 71.4346 80.4889 70.1616C77.9583 68.5582 74.5515 65.646 74 64.2524C74.1468 64.3552 74.2402 64.4088 74.3158 64.4758C76.1837 66.0703 77.9983 67.7408 79.9463 69.2371C81.0181 70.0589 82.3124 70.5904 83.5176 71.2381C84.5939 71.8142 85.6791 72.3725 86.7598 72.9398C86.8443 72.9845 86.9199 73.0514 87 73.1095C86.9733 73.1586 86.9466 73.2033 86.9244 73.2524Z" fill="#780A0F"></path> <path d="M33.0106 17.666C33.0566 17.912 33.0495 18.2318 33.1627 18.3941C33.6402 19.0927 33.7499 19.934 33.7004 20.8343C33.803 20.79 33.8808 20.7555 33.9621 20.7211C33.9657 20.544 33.9692 20.3423 33.9763 20.0127C34.2168 20.4899 34.4043 20.8589 34.5988 21.2524C34.6696 21.1098 34.7262 20.9966 34.7969 20.849C34.8889 21.0114 34.942 21.1048 34.995 21.2032C35.0092 21.0852 34.9915 20.9966 34.9632 20.913C34.6979 20.1455 34.4255 19.383 34.1602 18.6155C34.0258 18.217 33.9161 17.7988 33.764 17.42C33.7216 17.3167 33.566 17.302 33.4598 17.2528C33.4528 17.2478 33.4351 17.302 33.4139 17.3462C33.4988 17.361 33.5766 17.3757 33.6544 17.3905C33.5235 18.0743 33.5235 18.0743 33.0637 17.7201C33.0424 17.7054 33.0212 17.6906 33 17.6808L33.0106 17.666ZM34.1744 19.7421C33.9586 19.2649 33.7428 18.7877 33.527 18.3105C33.5553 18.2859 33.5836 18.2662 33.6119 18.2416C33.9727 18.6057 34.0824 19.1665 34.1744 19.7421Z" fill="#780A0F"></path> <path d="M36.1155 19.8529C35.9761 19.838 35.7183 19.8879 35.6634 19.783C35.4563 19.3935 35.3 18.9591 35.1521 18.5296C35.0803 18.3199 35.0676 18.0802 35 17.7006C35.1817 18.0252 35.3042 18.225 35.4141 18.4447C35.5282 18.6744 35.6254 18.9141 35.7648 19.2237C35.8535 19.0939 35.9887 18.979 35.9718 18.8991C35.8915 18.4447 35.9507 17.9653 35.638 17.5558C35.4014 17.2412 35.3085 16.7768 35.1521 16.3773C35.2155 16.3373 35.2746 16.2924 35.338 16.2524C35.5239 16.5471 35.7437 16.8167 35.8958 17.1363C36.2 17.7705 36.6479 18.1051 37.2479 18.2C37.4972 18.24 37.7423 18.3049 38 18.3598C37.7465 18.9341 37.3408 18.9241 36.1408 18.4197C36.369 19.014 36.593 19.6033 36.8211 20.1975C36.7915 20.2175 36.7577 20.2325 36.7282 20.2524C36.593 19.9278 36.4535 19.6082 36.3183 19.2836C36.2845 19.2836 36.2507 19.2787 36.2211 19.2787C36.1873 19.4534 36.1535 19.6332 36.1155 19.8529Z" fill="#780A0F"></path> <path d="M54 45.1987C53.9767 45.2166 53.958 45.23 53.9347 45.2524C53.3655 44.5132 52.7963 43.7739 52.2364 43.0257C51.6205 42.2058 51.21 41.256 51 40.2524C51.7092 42.0849 52.8056 43.6709 54 45.1987Z" fill="#780A0F"></path> <path d="M27 19.2524C27.7701 19.5878 28.4329 20.0475 28.8851 20.8218C28.7663 20.7555 28.6475 20.6893 28.5326 20.623C29.1724 21.4098 29.728 22.2255 30 23.2524C28.9962 21.915 28.0077 20.5982 27 19.2524Z" fill="#780A0F"></path> <path d="M60 34.2524C62.013 36.2659 64.0086 38.2569 66 40.2524C63.8099 38.4677 61.8315 36.4542 60 34.2524Z" fill="#780A0F"></path> <path d="M36.7266 16.1184C36.5675 16.0201 36.4007 15.9308 36.2567 15.8236C35.9725 15.6122 35.9762 15.6032 36.0255 15.2578C36.7759 15.1982 37.7082 15.6449 38 16.2524C37.7991 16.1661 37.6551 16.1065 37.5073 16.044C37.5376 16.0082 37.568 15.9725 37.5983 15.9338C37.4505 15.8593 37.3065 15.7759 37.1511 15.7134C36.829 15.5794 36.4992 15.4573 36.1733 15.3292C36.1544 15.359 36.1354 15.3888 36.1165 15.4186C36.5902 15.63 37.0601 15.8415 37.5339 16.0529C37.4239 16.0499 37.3103 16.044 37.2004 16.041C37.0829 15.9755 36.9692 15.907 36.8479 15.8385C36.8024 15.9397 36.7645 16.0291 36.7266 16.1184Z" fill="#780A0F"></path> <path d="M62 44.2524C59.6507 42.6101 57.6022 40.6524 56 38.2524C57.7244 40.5254 59.7917 42.4595 62 44.2524Z" fill="#780A0F"></path> <path d="M39 16.2524C38.343 15.9401 37.6823 15.6278 37 15.3057C37.704 15.0788 38.4621 15.6114 39 16.2524Z" fill="#780A0F"></path> <path d="M31.8468 18.3635C31.5711 18.2736 31.2954 18.1889 31.0591 18.1149C31.3435 18.3741 31.6718 18.6757 32 18.9773C31.93 19.0672 31.8643 19.1572 31.7943 19.2524C31.1947 18.6546 30.5996 18.0567 30 17.4588C30.035 17.39 30.0657 17.3212 30.1007 17.2524C30.7046 17.5487 31.3085 17.8397 31.9168 18.136C31.895 18.2101 31.8687 18.2895 31.8468 18.3635Z" fill="#780A0F"></path> <path d="M39 14.2524C37.9891 14.0371 36.9224 14.3448 36 13.4524C36.0093 13.3832 36.014 13.3217 36.0233 13.2524C36.1537 13.2909 36.2842 13.314 36.4099 13.3755C36.8432 13.5909 37.2438 13.714 37.7096 13.3755C38.2453 12.9986 38.6366 13.6755 39 14.2524Z" fill="#780A0F"></path> <path d="M39 14.2524C38.1227 13.6936 37.0913 13.4312 36 13.2949C36.9458 13.0938 38.6534 13.6391 39 14.2524Z" fill="#780A0F"></path> <path d="M36.3724 16.3638C36.8539 16.7006 37.3162 17.0806 38 16.9026C37.9952 16.9652 37.9952 17.0277 37.9904 17.0903C37.7255 17.148 37.4366 17.2971 37.1958 17.2394C36.6372 17.1095 36.0883 16.9026 35.5538 16.691C35.366 16.6188 35.2263 16.436 35 16.2532C35.3708 16.2291 35.4045 16.792 35.7705 16.4985C36.0064 16.5948 36.2568 16.7824 36.3724 16.3638Z" fill="#780A0F"></path> <path d="M32 20.2524C30.9949 19.5982 29.9949 18.9481 29 18.3021C29.0102 18.2856 29.0204 18.269 29.0306 18.2524C29.9745 18.77 30.9286 19.2794 31.8571 19.8177C31.9847 19.8881 31.9643 20.1199 32 20.2524Z" fill="#780A0F"></path> <path d="M21 13.3136C22.3564 13.1518 23.6831 13.3311 25 13.6154C23.6683 13.5104 22.3366 13.4098 21 13.3136Z" fill="#780A0F"></path> <path d="M48.8515 17.2524C48.3649 16.3072 48.0389 15.3164 48 14.2524C48.0487 14.4671 48.0778 14.6908 48.1508 14.8963C48.3746 15.5082 48.6228 16.1155 48.8563 16.7228C48.9244 16.9008 49.158 17.0881 48.8271 17.2479L48.8515 17.2524Z" fill="#780A0F"></path> <path d="M32 22.9656C31.8904 23.3959 31.7809 23.8222 31.6713 24.2524C31.645 24.2524 31.6231 24.2524 31.5968 24.2486C31.6318 23.5896 31.6713 22.9269 31.7063 22.2679C31.7326 22.2641 31.7633 22.2563 31.7896 22.2524C31.8597 22.4928 31.9255 22.7331 31.9956 22.9734L32 22.9656Z" fill="#780A0F"></path> <path d="M133 95.2409C132.248 94.6678 131.555 94.0524 131 93.3332C131.036 93.3063 131.076 93.2794 131.112 93.2524C131.738 93.9178 132.365 94.5832 132.991 95.2524L133 95.2409Z" fill="#780A0F"></path> <path d="M18.0089 11.2524C19.0045 11.5321 20.0045 11.8118 21 12.0914C20.9955 12.1423 20.9911 12.2016 20.9911 12.2524C19.9955 12.0236 18.9955 11.7948 18 11.566C18 11.4643 18.0045 11.3541 18.0089 11.2524Z" fill="#780A0F"></path> <path d="M35 14.2612C35.6549 14.3793 36.4154 13.9944 37 14.6373C36.3231 14.5061 35.6637 14.3837 35 14.2612Z" fill="#780A0F"></path> <path d="M49 16.2608C49.3333 16.926 49.6667 17.5913 50 18.2524C49.3476 17.6994 49.2571 16.9468 49.0048 16.2524L49 16.2608Z" fill="#780A0F"></path> <path d="M122 105.262C122.667 105.89 123.333 106.524 124 107.152C123.95 107.184 123.901 107.221 123.846 107.252C123.234 106.587 122.623 105.918 122.011 105.252L122 105.262Z" fill="#780A0F"></path> <path d="M32.8291 22.2524C32.8159 21.9211 32.8028 21.5898 32.7896 21.2585C32.8247 21.2555 32.8554 21.2524 32.8904 21.2524C32.9255 21.5838 32.9649 21.9121 33 22.2434C32.9386 22.2464 32.886 22.2494 32.8291 22.2524Z" fill="#780A0F"></path> <path d="M31.75 21.2524C31.5 20.9512 31.25 20.6457 31 20.3445C31.0833 20.3152 31.1667 20.2859 31.2564 20.2524C31.5064 20.5537 31.75 20.8508 32 21.152C31.9103 21.1855 31.8333 21.219 31.75 21.2524Z" fill="#780A0F"></path> <path d="M48.5968 16.2524C48.7327 16.9061 48.8685 17.5653 49 18.2189C48.9649 18.2301 48.9343 18.2413 48.8992 18.2524C48.7721 17.5932 48.645 16.934 48.5179 16.2804C48.5442 16.2692 48.5705 16.2636 48.5968 16.2524Z" fill="#780A0F"></path> <path d="M31.794 23.2575C31.8641 23.9174 31.9299 24.5773 32 25.2423C31.9474 25.2474 31.8948 25.2474 31.8466 25.2524C31.8291 24.5875 31.8159 23.9225 31.7984 23.2524C31.794 23.2524 31.794 23.2575 31.794 23.2575Z" fill="#780A0F"></path> <path d="M32.1471 19.2524C32.4314 19.5434 32.7157 19.8292 33 20.1202C32.9657 20.1625 32.9314 20.2101 32.8922 20.2524C32.5931 19.9826 32.2941 19.7128 32 19.4429C32.049 19.3794 32.098 19.3159 32.1471 19.2524Z" fill="#780A0F"></path> <path d="M19.6055 5.25244C19.737 5.58865 19.8598 5.9033 20 6.25244C19.6231 6.00244 19.4609 5.58865 19.6055 5.25244Z" fill="#780A0F"></path> <path d="M29.1307 20.2524C29.4205 20.5505 29.7102 20.8438 30 21.1419C29.9489 21.1803 29.892 21.214 29.8409 21.2524C29.5625 20.9448 29.2841 20.6322 29 20.3246C29.0398 20.3005 29.0852 20.2765 29.1307 20.2524Z" fill="#780A0F"></path> <path d="M50.2443 17.2524C50.4962 17.5593 50.7481 17.8604 51 18.1672C50.9389 18.1956 50.8779 18.224 50.8244 18.2524C50.5496 17.957 50.2748 17.6672 50 17.3718C50.084 17.332 50.1679 17.2922 50.2443 17.2524Z" fill="#780A0F"></path> <path d="M22.9966 14.3749C22.6644 14.3574 22.3322 14.3399 22 14.3224C22 14.3005 22 14.2743 22 14.2524C22.3322 14.2656 22.6678 14.2787 23 14.2874C23 14.318 23 14.3443 22.9966 14.3749Z" fill="#780A0F"></path> <path d="M49.6976 16.2585L49.6801 16.2524C49.7852 16.5838 49.8904 16.9211 50 17.2524C49.7414 16.9994 49.4916 16.7283 49.6976 16.2585Z" fill="#780A0F"></path> <path d="M18 7.25244L17.9912 7.20449C17.4916 7.34148 17.6012 6.75929 17.5047 6.25244C17.702 6.65655 17.851 6.95107 18 7.25244Z" fill="#780A0F"></path> <path d="M120 106.252C120.333 106.41 120.667 106.572 121 106.729C120.786 106.729 120.564 106.725 120.35 106.725L120.376 106.742C120.256 106.58 120.128 106.419 120 106.252Z" fill="#780A0F"></path> <path d="M51 18.2405C50.6639 17.9411 50.3279 17.6417 50 17.3423C50.0574 17.3123 50.1148 17.2824 50.1721 17.2524C50.4426 17.5878 50.7131 17.9171 50.9836 18.2524L51 18.2405Z" fill="#780A0F"></path> <path d="M51.5223 18.2707C51.6801 18.5695 51.8422 18.8622 52 19.161C51.9649 19.1915 51.9255 19.222 51.8904 19.2524C51.7721 18.9232 51.6494 18.5878 51.531 18.2524C51.531 18.2585 51.5223 18.2707 51.5223 18.2707Z" fill="#780A0F"></path> <path d="M50.7239 18.2524C50.8159 18.5491 50.908 18.8457 51 19.1423C50.9693 19.1762 50.9386 19.2101 50.908 19.2524C50.8159 18.9558 50.7239 18.6592 50.6318 18.3711C50.6581 18.3287 50.6888 18.2948 50.7239 18.2524Z" fill="#780A0F"></path> <path d="M31.6848 17.2524C31.7899 17.3486 31.8949 17.4403 32 17.5364C31.9825 17.5539 31.965 17.5757 31.9475 17.5932C31.8424 17.5015 31.7329 17.4097 31.6279 17.3136C31.6454 17.2961 31.6673 17.2743 31.6848 17.2524Z" fill="#780A0F"></path> <path d="M17.2083 6.05029C17.2346 6.19009 17.2608 6.33426 17.2871 6.47406C17.2565 6.47842 17.2302 6.48279 17.1996 6.49153C17.1777 6.35173 17.1558 6.20757 17.1295 6.06777C17.1558 6.05903 17.182 6.05466 17.2083 6.05029Z" fill="#780A0F"></path> <path d="M32.9004 17.3687C32.7032 17.2987 32.5059 17.2287 32.3087 17.1544C32.3219 17.1281 32.335 17.1019 32.3482 17.0713C32.5279 17.1719 32.7075 17.2768 32.8916 17.3774L32.9004 17.3687Z" fill="#780A0F"></path> <path d="M129.622 92.0163C129.547 91.9287 129.469 91.8454 129.394 91.7577C129.407 91.7446 129.421 91.7358 129.434 91.7227C129.512 91.8059 129.591 91.8892 129.67 91.9725C129.652 91.99 129.635 92.0032 129.622 92.0163Z" fill="#780A0F"></path> <path d="M48.6412 16.3817C48.6368 16.1718 48.6281 15.9619 48.6237 15.7476C48.6412 15.7476 48.6631 15.7476 48.6807 15.7476C48.6675 15.9619 48.6544 16.1718 48.6412 16.3817Z" fill="#780A0F"></path> <path d="M121.596 86.2776C121.508 86.1639 121.416 86.0458 121.328 85.9321C121.464 86.1114 121.596 86.2864 121.731 86.4657C121.688 86.4001 121.644 86.3389 121.596 86.2776Z" fill="#780A0F"></path> <path d="M120.47 88.4865C120.172 88.2197 119.878 87.9573 119.58 87.6905C119.554 87.7167 119.532 87.7386 119.505 87.7649C119.554 87.8348 119.606 87.9092 119.654 87.9792C119.225 87.6336 118.651 87.4849 118.432 86.8814C118.348 86.6496 117.998 86.5097 117.77 86.326C117.599 86.1904 117.432 86.0548 117.296 85.8799C118.436 86.7677 119.641 87.5768 120.768 88.4865C120.667 88.4821 120.57 88.4821 120.47 88.4865Z" fill="#780A0F"></path> <path d="M109.336 89.3599C109.848 89.7885 110.357 90.2214 110.848 90.6763C110.712 90.615 110.129 90.2345 109.305 89.6791C109.314 89.5698 109.322 89.4648 109.336 89.3599Z" fill="#780A0F"></path> <path d="M35.2547 8.88533C35.2415 8.05874 34.6542 7.48583 33.8259 7.50332C32.9318 7.52081 32.1823 8.21619 32.2043 9.00341C32.2218 9.74253 32.9669 10.3592 33.8127 10.3417C34.72 10.3242 35.2678 9.76877 35.2547 8.88533ZM32.8836 8.36926C33.0107 8.19433 33.1597 8.03688 33.3087 7.87069C33.4139 7.96253 33.6199 8.10685 33.6023 8.14184C33.5147 8.31678 33.3701 8.4611 33.1991 8.67978C33.0282 8.51796 32.8748 8.38238 32.8836 8.36926ZM33.6287 9.82563C33.6374 9.86936 33.3964 10.0224 33.3832 10.0093C33.2736 9.90435 33.1509 9.77752 33.1071 9.63757C33.0852 9.56759 33.2211 9.45388 33.3613 9.24833C33.4884 9.51511 33.5892 9.66381 33.6287 9.82563ZM34.2904 9.73378C34.3036 9.80376 34.1633 9.89998 34.0932 9.98307C34.0056 9.86499 33.8872 9.75565 33.8478 9.62445C33.8215 9.54135 33.9179 9.42327 33.9617 9.3183C34.0056 9.31393 34.0494 9.31393 34.0976 9.30956C34.1633 9.45388 34.2685 9.58946 34.2904 9.73378Z" fill="#780A0F"></path> </svg> 