<?xml version="1.0" encoding="UTF-8"?> <svg xmlns="http://www.w3.org/2000/svg" width="622" height="186" viewBox="0 0 622 186" fill="none"> <mask id="mask0_824_58670" style="mask-type:alpha" maskUnits="userSpaceOnUse" x="0" y="0" width="623" height="186"> <rect x="0.223145" y="0.391602" width="621.777" height="185.127" fill="#D9D9D9"></rect> </mask> <g mask="url(#mask0_824_58670)"> <path d="M412.164 -246.293C407.635 -216.612 412.546 -186.64 418.481 -157.516C424.527 -127.873 431.781 -98.0372 431.199 -67.5736C431.072 -60.7834 430.507 -53.9214 429.444 -47.1373C429.476 -47.1306 429.509 -47.1136 429.541 -47.1068C429.703 -47.0527 429.789 -46.9376 429.805 -46.8039C435.611 -42.9743 440.376 -37.9188 444.065 -32.009C447.857 -25.9235 450.653 -19.2847 454.367 -13.1589C456.229 -10.1017 458.326 -7.1656 460.845 -4.62247C463.022 -2.42542 465.478 -0.52118 468.108 1.10213C473.404 4.37603 479.25 6.57492 485.1 8.62744C490.983 10.697 496.933 12.6233 502.574 15.2942C503.288 15.6283 503.984 15.9853 504.691 16.3412C505.1 16.5543 504.991 17.3175 504.477 17.2729C490.652 16.0829 476.448 14.8533 463.685 8.93271C457.963 6.28161 452.593 2.72447 448.236 -1.86744C445.962 -4.27216 443.992 -6.92064 442.358 -9.80619C440.489 -13.1023 439.022 -16.6118 437.657 -20.1434C434.478 -28.3744 431.967 -36.8497 430.155 -45.4894C429.862 -45.6847 429.579 -45.8812 429.276 -46.0754C427.835 -37.2668 425.558 -28.5803 422.309 -20.3022C422.326 -20.1582 422.343 -20.0142 422.349 -19.869C422.535 -19.8801 422.722 -19.7872 422.809 -19.5783C426.348 -10.8367 432.512 -3.56696 437.56 4.29092C442.15 11.4305 445.895 19.3457 445.81 28.0178C445.727 35.9078 442.959 43.4943 439.839 50.6422C436.16 59.064 432.022 67.289 427.923 75.4989C423.826 83.7191 419.588 91.893 414.88 99.7775C414.489 100.438 414.087 101.089 413.685 101.751C413.85 101.825 413.962 102.073 413.795 102.249C412.132 104.13 409.575 104.573 407.193 104.734C404.625 104.907 402.046 104.894 399.48 104.722C394.256 104.39 389.183 103.217 384.086 102.098C379.01 100.988 373.928 100.264 368.743 100.011C367.74 99.9603 366.749 99.9293 365.748 99.8995C365.563 100.098 365.378 100.297 365.204 100.494C362.28 103.689 359.264 106.812 355.939 109.595C352.642 112.344 349.113 114.807 345.491 117.093C345.463 117.117 345.435 117.141 345.395 117.156C345.318 117.207 345.24 117.257 345.162 117.298C344.948 117.427 344.754 117.366 344.612 117.215C336.874 117.706 329.123 118.168 321.382 118.628C317.677 118.849 313.956 119.114 310.245 119.023C306.931 118.938 303.638 118.507 300.424 117.671C296.856 116.75 293.42 115.346 290.207 113.54C289.84 113.332 290.088 112.699 290.492 112.777C298.169 114.357 305.953 113.11 313.588 111.912C317.344 111.32 321.121 110.736 324.918 110.493C329.25 110.21 333.618 110.683 337.927 110.027C342.83 109.291 347.482 107.459 352.074 105.655C352.173 105.612 352.257 105.623 352.323 105.657C353.852 103.698 355.416 101.765 357.025 99.8688C355.842 99.881 354.648 99.8944 353.463 99.8962C350.628 99.9124 347.783 99.9297 344.955 99.8304C342.512 99.7384 340.004 99.4352 337.98 97.9395C337.661 97.6951 337.912 97.0823 338.301 97.1205C343.323 97.5908 348.253 96.5499 353.101 95.3413C356.403 94.5101 359.695 93.6801 363.021 93.0546C364.156 91.818 365.301 90.5802 366.459 89.3619C368.791 86.8919 371.193 84.4868 373.387 81.8974C375.472 79.4457 377.39 76.8049 378.711 73.8581C380.107 70.7462 380.637 67.4325 380.522 64.0267C380.403 60.5798 379.77 57.1821 379.362 53.7582C378.969 50.4578 378.877 47.1537 379.22 43.8408C379.888 37.3214 381.945 30.9535 385.281 25.3129C385.367 25.157 385.465 25.0102 385.561 24.8531C382.282 26.87 378.878 28.7033 375.351 30.3737C370.131 32.8554 364.815 35.1398 359.429 37.2656C359.415 37.3297 359.392 37.395 359.348 37.4626C354.999 43.5126 350.637 49.5432 346.48 55.7272C342.395 61.8091 338.476 67.9863 334.715 74.2703C332.938 77.2283 331.185 80.2148 329.104 82.9684C326.951 85.824 324.423 88.3063 321.587 90.4698C315.859 94.8451 309.365 98.3503 302.82 101.33C295.723 104.561 288.302 107.068 280.7 108.815C280.669 108.902 280.604 108.972 280.491 108.986C274.816 109.873 269.289 107.919 264.348 105.281C262.741 104.415 261.15 103.515 259.577 102.582C256.762 104.212 253.827 105.605 250.73 106.684C244.109 109.005 237.059 109.958 230.058 109.54C224.011 109.824 219.287 105.025 215.155 101.209C215.051 101.117 214.947 101.025 214.842 100.923C215.125 100.859 215.406 100.774 215.699 100.698C217.655 102.514 219.547 104.4 221.723 105.951C223.909 107.512 226.448 108.697 229.126 108.939C229.145 108.833 229.207 108.742 229.305 108.689C233.008 106.571 236.689 104.434 240.434 102.405C240.403 102.409 240.371 102.402 240.351 102.404C240.267 102.404 240.201 102.37 240.153 102.313C233.632 102.986 227.278 100.804 221.474 97.9852C221.641 97.9032 221.804 97.7802 221.935 97.6607C220.787 98.3359 219.598 98.9221 218.322 99.3931C215.433 100.468 212.386 101.166 209.389 101.847C206.472 102.508 203.525 103.08 200.577 103.557C193.782 104.647 186.916 105.215 180.031 105.263C179.927 105.264 179.852 105.242 179.774 105.199C171.473 105.046 163.175 103.027 155.699 99.4121C153.529 98.3608 151.418 97.1776 149.395 95.8695C149.058 95.648 149.371 95.2155 149.702 95.2918C160.816 98.0159 172.067 101.11 183.565 101.413C186.338 101.487 189.112 101.395 191.869 101.148C193.548 100.568 195.235 99.9758 196.915 99.4057C199.824 98.4116 202.721 97.4084 205.63 96.4143C206.41 96.1466 207.2 95.8778 207.981 95.6205C204.707 93.3837 201.28 91.3421 197.917 89.2304C194.432 87.0495 190.959 84.8777 187.483 82.6853C187.09 82.4389 187.401 81.7984 187.835 81.9565C195.075 84.5253 202.305 87.1891 209.191 90.6434C210.924 91.5161 212.643 92.4529 214.352 93.3908C217.18 92.3227 219.702 90.8627 221.987 88.8778C224.13 87.0135 226.037 84.9056 228.119 82.965C232.433 78.9414 237.491 75.8738 242.617 73.0276C247.734 70.193 252.971 67.5842 258.308 65.214C258.257 65.2199 258.215 65.2144 258.163 65.2204C249.641 67.1887 241.128 69.1455 232.604 71.1036C228.849 71.9665 225.09 72.7987 221.333 73.6514C221.297 73.6973 221.238 73.725 221.167 73.7436C221.026 73.7808 220.895 73.8168 220.755 73.8643C220.839 74.0526 220.718 74.3482 220.466 74.3253C220.109 74.2937 219.741 74.2634 219.385 74.2421C211.202 76.4422 202.748 77.5686 194.275 77.6341C185.138 77.7036 175.982 76.5349 167.159 74.1184C157.456 71.46 148.262 67.2831 138.619 64.4301C133.594 62.949 128.451 61.9715 123.395 60.5878C119.016 59.3863 114.748 57.8069 110.639 55.8861C102.44 52.042 94.8886 46.7887 88.4349 40.4281C87.6247 39.6256 86.8236 38.8117 86.0509 37.9736C85.7425 37.6445 86.0491 36.9731 86.529 37.1676C95.2221 40.7041 103.969 44.078 112.822 47.1999C121.611 50.3084 130.489 53.198 139.416 55.8839C143.852 57.2144 148.351 58.3708 152.703 59.9613C156.956 61.511 160.927 63.6668 164.948 65.723C172.151 69.4011 179.718 72.0988 187.686 73.5095C195.442 74.8823 203.379 75.0354 211.179 74.0056C212.132 73.8847 213.084 73.7638 214.031 73.5915C214.102 73.5831 214.165 73.5863 214.229 73.5997C215.865 73.3683 217.521 73.3117 219.164 73.4964C219.759 73.344 220.354 73.1812 220.947 73.0082C221.037 72.9769 221.121 72.988 221.198 73.0208C232.584 70.3032 243.977 67.6371 255.383 64.9904C253.278 64.5882 251.261 63.6859 249.432 62.5221C245.797 60.2127 243.033 56.8954 240.003 53.8904C238.394 52.2945 236.69 50.7722 234.764 49.578C232.792 48.3473 230.584 47.5923 228.336 47.0295C226.142 46.4813 223.905 46.0946 221.711 45.5465C219.527 44.9971 217.379 44.3081 215.287 43.4771C210.581 41.6149 206.16 39.0632 202.179 35.9286C202.065 35.8377 201.999 35.7202 201.985 35.5968C198.227 33.3016 195.309 29.7415 192.902 26.1013C189.991 21.6961 187.639 16.9237 185.147 12.2823C183.595 9.38722 182.053 6.48068 180.51 3.57414C180.338 3.26047 180.72 2.7888 181.026 3.0973C190.714 12.7936 197.145 25.7655 208.792 33.4417C211.706 35.3656 214.903 36.8503 218.293 37.6767L218.304 37.6755C221.657 37.5576 225.021 37.4384 228.348 37.9906C237.61 39.5328 243.749 47.0347 249.69 53.632C253.054 57.3696 256.601 61.0653 260.927 63.6906C263.731 63.0423 266.543 62.3825 269.347 61.7342C281.653 58.8788 293.975 56.0735 306.211 52.9657C306.557 52.8109 306.901 52.6459 307.247 52.4911C301.455 52.1935 295.965 50.1096 290.751 47.6289C284.822 44.8038 279.109 41.6095 272.948 39.2908C266.46 36.8433 259.774 34.9294 253.521 31.9125C247.092 28.8118 241.596 24.3519 237.314 18.6151C235.112 15.6703 233.257 12.4873 231.696 9.15551C230.923 7.50444 230.228 5.81298 229.592 4.09382C229.105 2.76391 228.689 1.41541 228.162 0.100538C227.303 -1.30089 226.483 -2.72762 225.686 -4.13618C225.555 -4.37114 225.669 -4.64495 225.85 -4.78069C222.72 -12.2355 221.427 -20.5184 221.812 -28.7563C221.83 -29.1337 222.506 -29.3162 222.633 -28.9349C226.891 -16.055 231.533 -2.82347 239.998 7.9737C242.328 10.9453 244.954 13.6949 247.87 16.1711C248.066 16.336 247.999 16.5627 247.827 16.6973C250.79 18.2299 253.616 20.0078 256.51 21.6631C259.525 23.3773 262.644 24.7355 265.921 25.8356C269.111 26.9041 272.348 27.8421 275.483 29.0732C281.484 31.4418 287.097 34.6685 292.404 38.3163C298.514 42.5173 304.236 47.2323 309.904 52.0161C310.035 51.9801 310.156 51.9452 310.288 51.9195C310.509 51.7687 310.731 51.6179 310.954 51.4774C311.119 51.3749 311.297 51.4793 311.367 51.6379C313.566 51.0598 315.763 50.4714 317.959 49.8727C331.456 46.1703 344.788 41.8512 357.822 36.764C350.072 35.6199 343.048 32.1399 335.76 29.4306C328.724 26.8277 321.349 25.515 314.117 23.6436C310.581 22.7299 307.07 21.6673 303.712 20.2222C300.168 18.6945 296.863 16.7221 293.849 14.3092C290.689 11.7884 287.858 8.88536 285.197 5.83747C282.392 2.61872 279.574 -0.713156 277.379 -4.39888C275.145 -8.16332 273.886 -12.3849 272.855 -16.6121C271.785 -21.0015 270.796 -25.4107 269.775 -29.8164C269.523 -30.9129 269.26 -32.0186 269.008 -33.1152C268.949 -33.3584 269.082 -33.5511 269.269 -33.6457C268.525 -36.4781 268.09 -39.4193 267.788 -42.2926C267.348 -46.5361 267.374 -50.7921 267.817 -55.0339C267.853 -55.3508 268.329 -55.4581 268.401 -55.1017C270.847 -42.8871 274.531 -30.9308 279.413 -19.4784C280.556 -16.7965 281.768 -14.1434 283.019 -11.5054C287.419 -6.01155 292.533 -1.06972 298.372 2.86036C304.437 6.9415 311.209 9.77315 318.014 12.3508C324.797 14.9205 331.698 17.2576 338.221 20.4517C341.427 22.0187 344.542 23.7839 347.444 25.8656C350.945 28.3678 354.119 31.2727 357.19 34.273C357.847 34.9161 358.483 35.5616 359.13 36.2161C360.78 35.5661 362.419 34.907 364.055 34.2274C372.147 30.8808 380.061 27.1692 387.321 22.4703C383.742 21.6242 380.386 20.1997 377.225 18.3044C373.952 16.3386 370.925 13.9899 367.994 11.5675C362.051 6.64884 356.36 1.22135 349.477 -2.38961C345.45 -4.49718 341.088 -5.72167 336.745 -6.96911C332.413 -8.20746 328.157 -9.60053 324.143 -11.6784C316.605 -15.5677 309.985 -21.2106 304.922 -28.0347C302.408 -31.4331 300.257 -35.1031 298.589 -38.9958C296.681 -43.4443 295.652 -48.193 293.833 -52.6728C293.367 -53.8278 292.842 -54.9449 292.238 -56.0319C292.12 -56.2475 292.148 -56.4488 292.256 -56.5968C288.462 -63.7663 286.219 -71.8139 285.464 -79.8466C285.219 -82.4971 285.139 -85.1563 285.226 -87.8141C285.247 -88.3481 285.961 -88.4622 286.145 -87.952C288.887 -80.1706 291.771 -72.4266 295.149 -64.8962C296.859 -61.0814 298.679 -57.3105 300.625 -53.6065C302.546 -49.9516 304.802 -46.4503 307.169 -43.066C308.476 -41.2058 309.83 -39.3927 311.259 -37.6405C312.519 -36.098 313.864 -34.6278 315.17 -33.1324C316.508 -32.2556 317.872 -31.4339 319.271 -30.6581C322.869 -28.6675 326.659 -27.0848 330.488 -25.611C338.145 -22.6735 346.052 -20.0883 352.902 -15.4206C359.492 -10.9314 364.88 -4.97881 369.943 1.12612C375.102 7.34497 380.02 13.821 385.783 19.5112C386.475 20.1919 387.166 20.8622 387.865 21.5109C387.875 21.5097 387.886 21.5188 387.886 21.5188C388.09 21.5682 388.219 21.6991 388.278 21.8486C393.228 18.5642 397.864 14.8055 402.037 10.3709C410.457 1.4304 416.772 -9.17349 421.259 -20.5764C417.763 -18.8159 413.847 -17.9968 409.933 -18.137C405.362 -18.3052 401.082 -19.904 397.321 -22.4907C393.358 -25.2103 389.994 -28.6769 386.433 -31.8706C382.871 -35.0745 379.142 -38.1027 375.11 -40.6997C371.056 -43.3045 366.694 -45.4255 362.059 -46.7745C357.337 -48.1449 352.474 -48.8629 347.692 -49.9448C343.242 -50.9505 338.963 -52.3618 334.906 -54.4555C331.047 -56.4575 327.481 -58.973 324.217 -61.8467C317.539 -67.7226 312.248 -74.9893 308.037 -82.7984C307.509 -83.769 307.01 -84.7536 306.521 -85.7496C306.425 -85.947 306.464 -86.1496 306.57 -86.3078C305.894 -87.7512 305.325 -89.2489 304.81 -90.7319C304.035 -92.9352 303.391 -95.1746 302.867 -97.4488C301.786 -102.108 301.254 -106.873 301.249 -111.667C301.248 -114.367 301.436 -117.046 301.78 -119.724C301.823 -120.073 302.42 -120.121 302.482 -119.763C303.978 -111.525 306.541 -103.41 309.783 -95.7075C311.417 -91.8317 313.249 -88.0415 315.286 -84.3688C317.035 -81.2047 318.943 -78.1112 321.231 -75.312C323.823 -72.1415 326.95 -69.377 330.665 -67.6294C333.51 -66.6668 336.446 -65.9961 339.443 -65.5099C344.051 -64.7622 348.682 -64.257 353.225 -63.1682C361.65 -61.1433 369.729 -57.7023 377.045 -53.0471C380.635 -50.7637 384.043 -48.1777 387.22 -45.3357C390.745 -42.1796 393.827 -38.6385 396.94 -35.0907C400.115 -31.4666 403.454 -27.8511 407.592 -25.329C411.057 -23.2292 415.12 -21.8033 419.209 -22.1212C420.146 -22.1986 421.072 -22.3685 421.988 -22.6208C422.009 -22.6231 422.029 -22.6255 422.05 -22.6279C424.832 -30.0909 426.838 -37.881 428.162 -45.7377C420.749 -42.7098 412.301 -46.4624 405.973 -50.3983C399.186 -54.6145 393.333 -60.0962 387.07 -64.9986C383.949 -67.4407 380.72 -69.745 377.248 -71.6356C373.609 -73.6214 369.739 -75.0905 365.848 -76.4635C361.937 -77.8443 357.983 -79.137 354.181 -80.8225C350.347 -82.5147 346.745 -84.6299 343.505 -87.2979C337.251 -92.4724 332.469 -99.1206 328.047 -105.884C327.973 -105.896 327.905 -105.94 327.854 -106.028C327.496 -106.601 327.158 -107.188 326.818 -107.784C326.399 -108.444 325.97 -109.093 325.551 -109.753C325.45 -109.908 325.452 -110.065 325.519 -110.208C321.203 -118.745 318.886 -128.421 318.471 -137.91C318.332 -141.167 318.42 -144.44 318.74 -147.688C318.773 -148.025 319.327 -148.09 319.407 -147.755C321.312 -140.116 323.847 -132.592 327.031 -125.394C330.147 -118.334 333.928 -111.538 338.649 -105.425C341.069 -102.297 343.719 -99.3414 346.59 -96.6307C349.839 -94.9644 353.171 -93.4746 356.583 -92.1921C360.44 -90.7424 364.402 -89.5653 368.291 -88.2026C372.126 -86.8545 375.863 -85.2762 379.385 -83.2247C382.785 -81.2423 385.973 -78.9332 389.034 -76.4634C395.136 -71.5214 400.697 -65.9641 406.662 -60.8603C412.764 -55.6473 419.367 -50.8677 426.938 -48.0454C427.448 -47.8544 427.957 -47.684 428.465 -47.5136C429.122 -51.7907 429.581 -56.0761 429.855 -60.3503C431.737 -90.4435 425.165 -120.223 419.068 -149.495C413.165 -177.81 407.526 -206.718 410.038 -235.769C410.341 -239.338 410.793 -242.882 411.37 -246.42C411.431 -246.875 412.239 -246.813 412.164 -246.293ZM214.399 74.2576C214.353 74.315 214.275 74.3553 214.184 74.3763C206.362 75.7527 198.434 75.9426 190.557 74.8756C182.734 73.8233 175.064 71.5754 167.909 68.2252C163.8 66.3044 159.856 64.0204 155.703 62.1775C151.453 60.2939 146.967 59.0734 142.522 57.7544C133.589 55.1108 124.726 52.2611 115.923 49.2065C107.066 46.1372 98.2874 42.8503 89.5731 39.3997C89.1366 39.221 88.6912 39.0537 88.2548 38.875C94.0745 44.7879 100.815 49.7705 108.17 53.5977C112.175 55.6871 116.347 57.4338 120.651 58.7901C125.485 60.3246 130.471 61.289 135.379 62.5648C145.044 65.0713 154.188 69.1809 163.711 72.1729C172.447 74.9122 181.543 76.4528 190.689 76.7262C199.355 76.9824 208.044 76.0996 216.485 74.1408C215.79 74.1587 215.087 74.1882 214.399 74.2576ZM225.641 -17.6925C224.585 -20.5303 223.597 -23.397 222.61 -26.2638C222.665 -18.4418 224.301 -10.8762 227.146 -3.73226C227.781 -2.82609 228.289 -1.85301 228.729 -0.840756C231.459 3.61666 234.466 7.94821 238.54 11.2596C240.88 13.1564 243.523 14.528 246.185 15.8871C236.046 6.96233 230.209 -5.36966 225.641 -17.6925ZM276.727 30.6593C270.391 27.9961 263.582 26.6385 257.487 23.3739C254.396 21.7206 251.46 19.7888 248.358 18.1367C245.345 16.5266 242.184 15.1732 239.376 13.1848C235.764 10.6226 232.879 7.25669 230.368 3.61812C230.6 4.26884 230.83 4.90926 231.079 5.53702C232.427 8.91439 234.074 12.1841 236.039 15.2397C239.969 21.3405 245.181 26.4066 251.558 29.8677C257.581 33.1406 264.19 35.1051 270.616 37.3723C273.801 38.4935 276.946 39.7131 280.001 41.1413C282.869 42.4868 285.66 43.9665 288.486 45.3899C294.093 48.2211 299.991 50.956 306.341 51.4913C306.939 51.5366 307.535 51.5716 308.128 51.5759C298.375 43.6487 288.427 35.567 276.727 30.6593ZM270.126 -44.7111C269.44 -47.4042 268.813 -50.1148 268.249 -52.8325C268.06 -49.4436 268.135 -46.0228 268.473 -42.6535C268.679 -40.6134 268.977 -38.584 269.376 -36.5768C269.631 -35.2722 269.957 -33.9861 270.283 -32.7001C273.22 -26.1923 276.729 -19.9489 280.961 -14.1958C276.378 -23.963 272.803 -34.2642 270.126 -44.7111ZM349.363 28.5201C346.401 26.195 343.207 24.1889 339.866 22.4499C333.396 19.0829 326.487 16.6841 319.658 14.1615C312.839 11.6376 306.023 8.96742 299.821 5.13158C293.236 1.0482 287.475 -4.26693 282.6 -10.2789C278.064 -15.882 274.269 -22.0715 271.098 -28.5417C271.757 -25.7203 272.417 -22.899 273.067 -20.0765C274.061 -15.8034 275.03 -11.4856 276.884 -7.49994C278.716 -3.53245 281.514 -0.114715 284.291 3.22193C286.897 6.33867 289.649 9.36557 292.714 12.0435C295.675 14.6395 298.936 16.8568 302.489 18.5503C305.8 20.126 309.3 21.2732 312.841 22.2281C319.965 24.1537 327.283 25.3374 334.287 27.7461C341.474 30.2168 348.293 33.8144 355.763 35.408C356.36 35.5368 356.976 35.6529 357.58 35.7497C354.911 33.2553 352.232 30.7723 349.363 28.5201ZM357.917 37.8475C357.857 37.8752 357.797 37.8927 357.738 37.9204C357.745 37.9821 357.741 38.0347 357.728 38.0988C357.79 38.0082 357.853 37.9279 357.917 37.8475ZM300.073 101.388C306.664 98.5385 313.105 95.1125 318.999 90.9994C322.018 88.898 324.819 86.5197 327.168 83.662C329.4 80.9535 331.235 77.9575 333.038 74.9547C336.723 68.8255 340.509 62.7574 344.464 56.8053C348.641 50.5252 352.947 44.2822 357.563 38.2951C357.553 38.2963 357.554 38.3065 357.544 38.3077C352.055 41.6963 346.67 45.6253 342.404 50.5085C340.275 52.9445 338.435 55.6283 337.06 58.5605C335.571 61.7562 334.538 65.1283 332.884 68.2492C331.231 71.3805 329.256 74.3302 327.177 77.1981C325.171 79.9742 322.987 82.6459 320.447 84.9419C314.889 89.975 307.686 92.1135 301.062 95.3105C294.124 98.6587 287.778 103.085 281.557 107.601C287.904 106.051 294.096 103.978 300.073 101.388ZM262.843 103.507C265.349 104.946 267.917 106.306 270.655 107.239C273.35 108.167 276.113 108.514 278.929 108.51C278.957 108.392 279.018 108.291 279.133 108.205C283.122 105.324 287.108 102.412 291.247 99.7533C290.491 100.039 289.712 100.317 288.932 100.491C283.26 102.754 276.843 102.258 270.995 100.945C268.914 100.478 266.863 99.9027 264.824 99.2635C264.996 99.129 265.144 98.9762 265.304 98.8326C263.713 99.9866 262.083 101.072 260.402 102.08C261.206 102.56 262.02 103.039 262.843 103.507ZM248.662 106.329C255.111 104.31 260.99 100.97 266.343 96.8566C271.802 92.6689 276.853 87.9239 281.772 83.1109C286.644 78.345 291.327 73.3821 295.812 68.2337C298.344 65.334 300.807 62.3798 303.202 59.371C304.89 57.2572 306.528 55.0762 308.535 53.2903C307.798 53.48 307.06 53.6594 306.323 53.8491C301.095 56.3526 295.949 59.0239 291.652 63.0143C289.382 65.1227 287.29 67.4292 285.173 69.697C282.972 72.0474 280.772 74.3979 278.581 76.7472C274.329 81.3057 270.212 86.1299 265.346 90.0509C260.413 94.0212 254.629 96.3912 248.965 99.0808C242.858 101.978 236.934 105.292 231.08 108.671C237.011 108.911 242.986 108.103 248.662 106.329ZM254.247 95.612C253.443 95.3091 252.638 94.996 251.832 94.6829C249.751 93.8507 247.683 92.9543 245.673 91.9366C247.743 93.5624 249.858 95.1308 252.018 96.6419C252.769 96.3046 253.508 95.9583 254.247 95.612ZM176.038 101.483C170.447 100.766 164.929 99.6029 159.445 98.2896C156.795 97.6589 154.143 97.0179 151.492 96.3872C158.14 100.296 165.572 102.906 173.21 103.979C175.344 104.274 177.484 104.453 179.634 104.527C179.706 104.435 179.812 104.36 179.966 104.342C182.842 104.051 185.606 103.24 188.337 102.329C188.627 102.233 188.907 102.138 189.198 102.042C184.803 102.322 180.385 102.042 176.038 101.483ZM199.93 87.3187C196.996 86.1267 194.041 85.0205 191.07 83.9579C196.1 87.0958 201.141 90.2324 206.127 93.438C207.059 94.0387 207.981 94.6405 208.886 95.2757C210.397 94.7669 211.895 94.2491 213.382 93.7119C212.417 93.1879 211.452 92.664 210.479 92.1618C207.049 90.3706 203.518 88.7788 199.93 87.3187ZM188.903 13.306C186.8 10.5895 184.65 7.90976 182.293 5.42079C184.604 9.66627 186.897 13.9347 189.198 18.1814C191.54 22.5067 193.96 26.8855 197.245 30.5698C198.762 32.2701 200.46 33.7409 202.314 35.027C202.435 34.9922 202.582 35.0064 202.717 35.0949C206.415 37.5013 210.87 37.8289 215.155 37.7697C215.436 37.7684 215.705 37.758 215.985 37.7568C204.041 33.8781 196.31 22.8707 188.903 13.306ZM240.602 45.44C237.263 42.4501 233.427 40.0283 228.997 39.1037C224.652 38.2005 220.161 38.638 215.767 38.7411C212.72 38.8131 209.611 38.715 206.692 37.9174C209.085 39.464 211.6 40.8088 214.214 41.9337C216.26 42.8118 218.352 43.5594 220.491 44.1661C222.683 44.7874 224.914 45.2062 227.133 45.6994C229.298 46.1779 231.474 46.749 233.476 47.7051C235.445 48.6442 237.217 49.9397 238.838 51.3778C242.048 54.2265 244.713 57.67 248.097 60.3316C251.128 62.7112 254.927 64.6471 258.833 64.1837C259.228 64.0962 259.622 63.9983 260.007 63.912C252.26 59.3067 247.236 51.3835 240.602 45.44ZM281.094 59.8818C274.637 61.3812 268.169 62.8715 261.711 64.3606C261.705 64.4864 261.647 64.6079 261.488 64.6783C255.812 67.0775 250.238 69.7358 244.834 72.6975C239.529 75.6062 234.211 78.683 229.684 82.7522C227.538 84.6794 225.594 86.8228 223.462 88.7797C221.349 90.7238 219.058 92.3863 216.417 93.537C214.291 94.4716 212.069 95.2088 209.859 95.9551C209.87 95.9642 209.87 95.9642 209.882 95.9733C209.801 95.9931 209.71 96.0141 209.629 96.0339C209.019 96.2401 208.409 96.4464 207.799 96.6527C204.85 97.6618 201.913 98.6801 198.964 99.6892C195.756 100.791 192.549 101.903 189.338 102.984C188.048 103.415 186.756 103.836 185.445 104.186C189.663 103.989 193.878 103.594 198.06 103.005C204.104 102.158 210.181 100.973 216.023 99.1908C219.084 98.252 221.845 96.879 224.379 94.8963C226.894 92.9264 229.165 90.6408 231.489 88.4532C236.061 84.1495 240.691 79.8911 245.56 75.9073C251.028 71.4372 256.825 67.304 263.124 64.0821C263.486 63.8941 263.749 64.4578 263.398 64.6549C252.124 70.7679 242.601 79.336 233.293 88.0564C229.748 91.3654 226.316 95.0157 222.158 97.5202C224.427 98.6226 226.753 99.5932 229.177 100.334C232.871 101.448 236.739 102 240.582 101.533C240.746 101.514 240.848 101.586 240.902 101.694C241.438 101.569 241.967 101.466 242.496 101.28C242.506 101.279 242.515 101.267 242.536 101.265C243.858 100.57 245.182 99.8844 246.529 99.2278C248.043 98.4789 249.583 97.7791 251.132 97.0678C250.419 96.5667 249.717 96.0645 249.014 95.5622C246.21 93.5212 243.478 91.3781 240.817 89.1329C240.425 88.8031 240.883 88.0932 241.322 88.376C245.682 91.2058 250.425 93.3034 255.272 95.1283C258.077 93.771 260.814 92.286 263.322 90.4316C268.319 86.7456 272.441 81.9624 276.667 77.4487C278.868 75.0982 281.069 72.7477 283.259 70.3985C285.423 68.0836 287.549 65.7209 289.817 63.4982C292.298 61.0527 295.002 58.9252 297.997 57.1498C299.349 56.3467 300.738 55.6018 302.143 54.8969C295.131 56.6275 288.108 58.2655 281.094 59.8818ZM310.171 52.8816C307.905 54.7602 306.126 57.1659 304.315 59.4712C302.169 62.201 299.955 64.8866 297.694 67.5255C293.17 72.7827 288.449 77.8646 283.517 82.7418C278.547 87.6545 273.432 92.4798 267.949 96.8163C267.15 97.451 266.329 98.0779 265.504 98.6739C269.817 100.019 274.242 101.069 278.753 101.255C282.282 101.398 285.717 100.906 289.054 99.7472C289.123 99.7183 289.196 99.7202 289.261 99.7439C290.001 99.4914 290.765 99.2672 291.491 98.985C292.366 98.6438 293.208 98.202 294.097 97.8905C294.147 97.8742 294.198 97.8683 294.242 97.8841C295.504 97.1226 296.782 96.4011 298.083 95.6978C301.439 93.9013 304.952 92.4723 308.445 90.9518C311.838 89.4742 315.204 87.8537 318.129 85.5652C320.873 83.4124 323.197 80.7869 325.307 78.0092C327.452 75.1753 329.488 72.2082 331.249 69.1164C333.02 66.0132 334.182 62.6886 335.569 59.4111C336.809 56.484 338.447 53.761 340.425 51.2801C344.364 46.3514 349.333 42.5123 354.583 39.1203C346.366 42.1998 338.018 44.9506 329.662 47.4624C323.207 49.4203 316.699 51.1967 310.171 52.8816ZM307.536 -41.3365C305.148 -44.6349 302.99 -48.0955 300.97 -51.6242C298.883 -55.2807 296.897 -58.9594 295.124 -62.7773C293.365 -66.5656 291.743 -70.422 290.213 -74.2994C288.789 -77.8868 287.453 -81.5157 286.138 -85.1471C286.236 -76.6839 288.022 -68.2808 291.336 -60.4929C291.867 -59.2307 292.447 -57.9949 293.057 -56.7628C293.177 -56.7141 293.282 -56.622 293.36 -56.4851C297.409 -49.262 302.772 -42.8062 309.152 -37.5316C310.267 -36.6081 311.42 -35.7203 312.599 -34.8668C310.79 -36.9398 309.131 -39.1449 307.536 -41.3365ZM371.053 4.15581C365.921 -2.09746 360.602 -8.34989 354.066 -13.179C347.394 -18.107 339.632 -20.8759 331.95 -23.7583C328.082 -25.2068 324.229 -26.7092 320.549 -28.5965C316.914 -30.4577 313.449 -32.6513 310.208 -35.142C304.8 -39.2992 300.013 -44.2791 296.081 -49.8689C296.914 -47.3491 297.637 -44.7853 298.529 -42.2932C299.968 -38.3114 301.915 -34.5136 304.267 -30.9921C308.934 -23.997 315.25 -18.1103 322.521 -13.9294C326.329 -11.7442 330.392 -10.1308 334.6 -8.88846C339.045 -7.56944 343.587 -6.49098 347.849 -4.59828C354.829 -1.49887 360.643 3.65364 366.399 8.56287C372.097 13.4266 378.068 18.4046 385.278 20.7998C385.548 20.8935 385.828 20.9757 386.108 21.0579C380.538 15.9603 375.835 9.991 371.053 4.15581ZM315.409 -82.3192C311.168 -89.6764 307.733 -97.5232 305.211 -105.643C304.033 -109.436 303.079 -113.276 302.264 -117.163C301.591 -108.632 302.64 -99.945 305.338 -91.8251C305.93 -90.0383 306.631 -88.2954 307.332 -86.5525C307.43 -86.5118 307.51 -86.4481 307.575 -86.3409C311.925 -79.2049 318.16 -73.3922 325.637 -69.673C321.355 -72.9914 318.105 -77.6283 315.409 -82.3192ZM410.369 -22.7116C406.179 -24.4354 402.67 -27.3537 399.541 -30.587C396.129 -34.1106 393.093 -37.98 389.613 -41.4542C386.51 -44.555 383.138 -47.3744 379.552 -49.8876C372.368 -54.9333 364.358 -58.7576 355.924 -61.1359C351.454 -62.3999 346.904 -63.1021 342.308 -63.747C337.639 -64.4041 333.023 -65.2238 328.614 -66.9432C322.214 -69.4427 316.405 -73.4701 311.771 -78.5616C314.822 -73.5887 318.425 -68.9511 322.587 -64.8786C328.848 -58.7459 336.409 -54.1295 344.883 -51.8498C349.561 -50.5889 354.378 -49.9176 359.089 -48.8171C363.724 -47.739 368.163 -46.1169 372.347 -43.8191C376.432 -41.5723 380.213 -38.8107 383.8 -35.839C387.422 -32.8401 390.729 -29.5024 394.295 -26.4448C397.829 -23.394 401.76 -20.7749 406.394 -19.8009C410.602 -18.913 415.079 -19.2864 419.072 -20.8857C419.399 -21.0175 419.716 -21.1584 420.032 -21.2993C416.779 -20.8491 413.436 -21.4515 410.369 -22.7116ZM425.258 78.143C429.322 69.9996 433.383 61.8253 437.173 53.547C440.49 46.3034 443.769 38.7409 444.511 30.7118C444.892 26.6441 444.492 22.573 443.341 18.6516C442.11 14.4893 440.15 10.5785 437.911 6.86664C433.239 -0.888871 427.256 -7.84611 423.351 -16.0659C423.091 -16.609 422.84 -17.1635 422.6 -17.709C423.678 -9.40113 425.876 -1.2023 428.97 6.56943C431.991 14.162 436.632 21.5563 437.276 29.8833C437.597 34.0885 436.586 38.0939 435.104 41.9871C433.622 45.8699 431.943 49.6714 430.275 53.4819C426.97 61.0056 423.545 68.4807 420.557 76.1448C417.608 83.6898 415.069 91.4582 413.659 99.4605C413.641 99.5772 413.623 99.6939 413.596 99.8118C417.786 92.7484 421.598 85.4785 425.258 78.143ZM339.646 110.505C335.307 111.363 330.955 111.023 326.556 111.179C318.713 111.474 311.049 113.405 303.242 114.102C299.816 114.406 296.353 114.474 292.945 114.035C298.21 116.593 303.964 118 309.829 118.206C313.44 118.34 317.06 118.097 320.663 117.898C324.515 117.681 328.365 117.453 332.216 117.236C336.315 117 340.415 116.785 344.505 116.561C344.505 116.561 344.514 116.549 344.513 116.539C346.718 113.156 349.06 109.872 351.516 106.668C347.651 108.201 343.739 109.686 339.646 110.505ZM355.199 95.5983C350.347 96.8596 345.403 98.1418 340.372 98.1312C341.729 98.6305 343.191 98.784 344.654 98.8541C347.067 98.9599 349.498 98.949 351.918 98.9393C353.883 98.9407 355.845 98.9217 357.809 98.9231C358.065 98.6224 358.332 98.3205 358.588 98.0198C359.761 96.6641 360.955 95.3164 362.163 93.988C359.826 94.4467 357.51 94.9968 355.199 95.5983ZM380.532 42.1563C380.09 45.4285 380.03 48.7607 380.318 52.0525C380.624 55.4986 381.28 58.9145 381.525 62.3677C381.767 65.7066 381.561 69.0349 380.486 72.2241C379.466 75.2611 377.76 78.0233 375.819 80.5521C373.814 83.1612 371.544 85.5406 369.273 87.9097C366.611 90.6784 363.985 93.4847 361.429 96.3559C356.261 102.157 351.31 108.214 346.977 114.669C346.87 114.817 346.774 114.974 346.677 115.131C349.236 113.448 351.731 111.657 354.116 109.734C357.1 107.324 359.849 104.68 362.464 101.875C367.753 96.2167 372.946 90.4545 378.083 84.6571C382.669 79.4866 386.807 73.951 388.945 67.2923C390.847 61.3803 391.257 54.9741 390.061 48.869C389.676 46.8914 389.088 44.9582 388.591 43.0041C388.062 40.9494 387.708 38.8848 387.557 36.7759C387.403 34.7298 387.402 32.6659 387.372 30.6159C387.339 28.3578 387.317 26.1087 387.367 23.8514C383.729 29.3081 381.416 35.6222 380.532 42.1563ZM388.143 23.1985C388.157 23.2281 388.162 23.2693 388.166 23.3001C388.416 27.3364 388.448 31.3772 388.645 35.4092C388.733 37.3274 388.933 39.2326 389.348 41.1129C389.765 43.0034 390.333 44.8555 390.8 46.7297C392.33 52.9317 392.266 59.4541 390.665 65.6335C389.867 68.6969 388.692 71.6476 387.152 74.4114C385.414 77.5316 383.24 80.3793 380.936 83.0961C378.477 85.9978 375.869 88.7811 373.307 91.6009C371.048 94.0728 368.81 96.5526 366.551 99.0246C366.613 99.0277 366.666 99.0321 366.727 99.0249C371.653 99.2041 376.551 99.6784 381.385 100.671C386.504 101.714 391.551 103.109 396.754 103.704C399.524 104.019 402.313 104.143 405.091 104.082C407.444 104.028 410.206 104.01 412.261 102.729C412.176 102.624 412.128 102.484 412.159 102.303C412.577 99.4505 413.122 96.6249 413.785 93.8274C404.824 97.0349 395.264 94.8915 386.154 93.582C381.682 92.9331 377.203 92.577 372.7 92.7242C372.775 92.6529 372.848 92.5714 372.923 92.5002C373.072 92.3474 373.111 92.1449 373.079 91.9609C376.664 91.8682 380.241 92.0683 383.817 92.5188C388.562 93.115 393.263 94.0395 398.036 94.5075C403.26 95.0169 408.624 94.9368 413.608 93.1078C413.757 93.0489 413.877 93.0975 413.959 93.1817C415.147 88.2802 416.688 83.4629 418.426 78.7373C421.262 71.0179 424.611 63.5203 427.918 56.0069C429.554 52.2834 431.179 48.5508 432.727 44.7854C434.331 40.878 435.956 36.8744 436.147 32.6097C436.526 24.3204 431.943 16.7943 428.863 9.40674C425.365 1.02508 423.005 -7.85334 421.897 -16.8666C421.828 -17.4632 421.758 -18.07 421.688 -18.6666C418.189 -10.13 413.638 -2.05531 407.897 5.25065C402.24 12.3904 395.577 18.2918 388.143 23.1985ZM437.366 -23.4558C439.862 -16.7196 442.615 -9.91941 447.29 -4.37416C455.642 5.53965 468.179 10.6734 480.563 13.2398C487.591 14.697 494.731 15.4117 501.871 16.0428C496.959 13.746 491.82 11.9967 486.697 10.2142C480.86 8.18107 474.977 6.11155 469.564 3.08058C466.919 1.60484 464.392 -0.11382 462.103 -2.11027C459.535 -4.35589 457.32 -6.96556 455.394 -9.77547C451.318 -15.703 448.478 -22.3576 444.968 -28.6113C443.212 -31.7433 441.271 -34.7704 438.956 -37.5248C436.605 -40.3168 433.926 -42.8101 430.976 -44.9488C432.635 -37.636 434.767 -30.4511 437.366 -23.4558ZM332.313 -113.279C328.286 -119.952 325.104 -127.13 322.575 -134.509C321.335 -138.128 320.253 -141.807 319.263 -145.507C318.627 -135.041 320.381 -124.487 324.305 -114.758C324.875 -113.344 325.504 -111.947 326.162 -110.575C326.257 -110.565 326.344 -110.533 326.425 -110.459C331.864 -105.68 337.729 -101.44 344.049 -97.9308C339.544 -102.547 335.646 -107.745 332.313 -113.279ZM409.209 -57.1739C402.988 -62.0707 397.38 -67.6747 391.378 -72.8366C388.319 -75.4631 385.158 -77.9839 381.791 -80.2202C378.358 -82.4906 374.721 -84.3723 370.889 -85.8668C367.003 -87.3861 362.999 -88.579 359.048 -89.9346C355.227 -91.253 351.476 -92.7672 347.84 -94.5449C341.054 -97.8545 334.571 -101.96 328.781 -106.813C332.623 -100.838 336.782 -94.9927 341.98 -90.1439C345.057 -87.2694 348.509 -84.8345 352.289 -82.9796C355.937 -81.1825 359.783 -79.8357 363.626 -78.5094C367.502 -77.1661 371.407 -75.8469 375.133 -74.1005C378.672 -72.4366 381.981 -70.3396 385.139 -68.0268C391.419 -63.4287 397.083 -58.0503 403.454 -53.5669C406.6 -51.357 409.937 -49.3778 413.495 -47.9142C417.085 -46.4335 421.081 -45.4064 424.977 -46.0459C425.926 -46.1976 426.851 -46.4613 427.743 -46.8358C420.924 -48.9114 414.802 -52.767 409.209 -57.1739Z" fill="#FFDEDD"></path> </g> </svg> 