<?xml version="1.0" encoding="UTF-8"?> <svg xmlns="http://www.w3.org/2000/svg" width="230" height="146" viewBox="0 0 230 146" fill="none"> <path d="M134.16 96.6874C132.155 95.9855 130.151 95.2684 128.136 94.5868C125.953 93.8493 123.705 93.2796 121.594 92.3895C118.727 91.1841 115.95 89.7752 113.159 88.4019C111.073 87.3745 109.16 86.0724 107.358 84.5872C105.714 83.2292 104.349 81.627 103.05 79.9536C101.882 78.4582 100.806 76.9018 100.06 75.1471C99.9994 75.0047 99.9741 74.7453 100.055 74.6588C101.532 73.0821 102.111 71.1747 102.085 69.069C102.075 68.2349 101.908 67.3905 101.72 66.5767C101.547 65.8189 100.893 65.2187 100.304 65.1882C100.512 65.412 100.725 65.5697 100.847 65.7782C101.106 66.2207 101.415 66.6683 101.517 67.1566C101.654 67.8025 101.654 68.4841 101.654 69.1504C101.649 70.9916 101.075 72.6446 99.9893 74.1298C99.7863 74.4045 99.6949 74.4299 99.4716 74.1095C98.0404 72.0496 96.655 69.9489 95.1071 67.9806C93.686 66.1749 92.0722 64.5168 90.5395 62.8027C90.3822 62.6247 90.3466 62.4823 90.5547 62.3297C90.7831 62.1619 91.0064 62.0398 91.2652 62.3043C91.3972 62.4416 91.5697 62.5332 91.722 62.6451C93.3562 63.7895 94.8533 65.0865 96.0155 66.7344C96.0662 66.8107 96.1576 66.8565 96.2287 66.9175C96.2439 66.7497 96.2033 66.6378 96.1424 66.536C95.0766 64.7864 93.5744 63.469 91.859 62.4009C91.3819 62.1059 90.9607 61.9279 91.3261 61.2819C91.3667 61.2056 91.3515 61.0988 91.3718 60.9411C93.0466 61.8007 94.3204 63.1384 95.8125 64.1913C95.7618 63.9675 95.6755 63.7844 95.5384 63.6521C94.4422 62.5586 93.275 61.5515 91.8996 60.8293C91.4632 60.6004 91.1739 60.3613 90.9912 59.8934C90.8694 59.5729 90.5801 59.2932 90.3162 59.0542C89.5295 58.3624 88.7175 57.7012 87.9157 57.0298C87.3168 56.5263 86.9869 55.8701 86.8042 55.1275C86.7687 54.9902 86.7941 54.802 86.8651 54.68C87.2458 53.9882 87.3067 53.266 87.1392 52.5081C87.1138 52.3962 87.2001 52.2436 87.2661 52.1266C87.4995 51.6892 87.7939 51.2722 87.9766 50.8144C88.0629 50.5957 87.9411 50.3007 87.9157 50.0413C87.8599 50.0464 87.8091 50.0515 87.7533 50.0566C87.738 50.1888 87.7482 50.3312 87.7025 50.4533C87.5401 50.8958 87.3828 51.3434 87.1747 51.7655C87.0631 51.9893 86.8854 52.0351 86.6418 51.8367C86.4236 51.6587 86.1242 51.5824 85.8602 51.4603C85.8247 51.5112 85.7892 51.5621 85.7537 51.6129C86.3881 51.9639 86.8144 52.4115 86.8144 53.1846C86.8144 53.9018 86.5606 54.507 86.1901 54.9495C86.3424 55.1428 86.5048 55.2547 86.5403 55.4022C86.7535 56.2211 87.195 56.8721 87.8395 57.4062C88.3521 57.8283 88.8546 58.2658 89.3418 58.7184C89.7935 59.1406 90.2553 59.5577 90.6359 60.0358C91.0064 60.5037 90.8592 61.2718 90.4075 61.6787C89.9965 62.05 89.4687 62.0194 88.9307 61.638C88.4536 61.2972 87.9816 60.9259 87.4538 60.6868C85.505 59.8018 83.5105 59.0084 81.5718 58.103C80.3386 57.5283 79.1104 56.9128 77.9888 56.155C76.2887 55.0106 75.3447 53.3779 75.365 51.262C75.3802 49.909 75.7964 48.668 76.5729 47.5999C77.8924 45.7841 79.6839 44.5888 81.8256 43.9276C82.2316 43.8004 82.668 43.775 83.0791 43.6529C84.3936 43.2562 85.7029 42.8696 87.1036 43.0934C87.0174 43.1646 86.9209 43.2409 86.7788 43.3528C87.4335 43.2257 88.0273 43.1138 88.616 42.9968C88.6211 43.0324 88.6313 43.0629 88.6363 43.0985C88.0172 43.2765 87.398 43.4546 86.7738 43.6326C86.789 43.6784 86.7991 43.7241 86.8144 43.775L89.1591 43.2257L89.1743 43.2867C89.017 43.3834 88.8596 43.4851 88.616 43.6377C89.697 43.3528 90.6562 43.0782 91.6205 42.8493C92.2346 42.7069 92.874 42.656 93.4932 42.5238C94.6808 42.2746 95.5486 41.4608 96.4976 40.7843C97.1828 40.296 97.7664 39.7314 98.1724 38.9888C98.3145 38.7243 98.4312 38.4446 98.5784 38.1852C98.9134 37.5901 99.2483 36.995 99.6137 36.4203C99.8827 35.9981 100.187 35.6014 100.497 35.2097C100.537 35.1538 100.695 35.1894 100.796 35.1843L100.781 35.1741C100.862 34.7265 100.943 34.2789 101.365 33.989C101.37 34.4163 101.385 34.8537 101.217 35.2097C100.761 36.2015 100.263 37.1832 99.7102 38.1242C99.1621 39.0549 98.5277 39.9349 97.9288 40.8351L98.01 40.9216C98.213 40.7639 98.482 40.6469 98.6089 40.4384C99.2382 39.4364 99.837 38.4141 100.431 37.3866C100.811 36.7356 101.162 36.0693 101.532 35.4081C101.557 35.3674 101.618 35.3471 101.76 35.2504C101.578 35.637 101.446 35.9116 101.314 36.1863C101.365 36.2117 101.415 36.2372 101.466 36.2626C101.766 35.7133 102.065 35.1589 102.359 34.6095C102.41 34.6299 102.466 34.6452 102.517 34.6655L101.928 36.466C101.964 36.4813 102.004 36.4966 102.04 36.5067C102.283 35.8506 102.522 35.1894 102.765 34.5333L102.821 34.5434C102.699 35.0927 102.572 35.637 102.451 36.1863C102.486 36.1965 102.522 36.2066 102.552 36.2168C102.811 35.581 103.075 34.9452 103.329 34.3298C103.268 34.8588 103.207 35.4233 103.141 35.9879C103.831 35.3165 103.643 34.4926 103.593 33.6737C103.892 33.8263 104.151 33.9534 104.41 34.0857L104.455 34.0144C104.141 33.5719 103.821 33.1295 103.506 32.692C103.709 32.7175 103.831 32.8141 103.968 32.8802C104.521 33.1549 105.075 33.4244 105.633 33.6889C105.968 33.8466 106.313 33.9788 106.643 34.1416C107.643 34.635 108.642 35.1334 109.642 35.6319C109.662 35.5912 109.683 35.5505 109.703 35.5047C109.688 35.4793 109.678 35.4488 109.657 35.4335C109.576 35.3827 109.49 35.342 109.409 35.2962C107.084 34.0653 104.872 32.6666 102.994 30.7999C101.689 29.5029 100.345 28.2161 99.5478 26.5275C98.6241 24.5744 97.7562 22.606 96.523 20.8105C95.6907 19.5949 95.0208 18.2674 94.295 16.9805C92.2548 13.3591 89.8087 10.0887 86.3576 7.67776C85.8856 7.34715 85.434 6.99113 84.962 6.64017C85.165 6.53336 85.3984 6.45198 85.576 6.30448C85.7131 6.18749 85.7791 5.98405 85.8704 5.8162C85.6928 5.75008 85.5101 5.67887 85.3274 5.62292C85.2715 5.60766 85.2056 5.64835 85.1396 5.65344C84.2413 5.67887 83.3481 5.80602 82.4853 5.36352C81.4855 4.85489 80.4401 4.43273 79.4149 3.96988C79.2068 3.87833 78.9987 3.78169 78.7907 3.68505C79.1561 3.61385 79.5012 3.64945 79.8412 3.63928C80.0087 3.63419 80.1711 3.5528 80.3386 3.50194C80.1863 3.41039 80.0442 3.2578 79.8818 3.23746C79.2576 3.14082 78.6232 3.10013 77.9989 3.01366C77.3595 2.9272 76.7048 2.88141 76.0907 2.70339C72.2387 1.59459 68.3918 0.689238 64.3115 0.755359C59.4648 0.831653 55.1966 2.51013 51.0858 4.79895C49.3856 5.74499 47.787 6.87413 46.1122 7.87104C44.9145 8.58312 43.6711 9.2189 42.448 9.89029C41.8745 10.2056 41.2858 10.4396 40.621 10.4854C38.53 10.6278 36.4442 10.8211 34.3583 10.9584C33.0439 11.0449 31.7243 11.1517 30.415 11.1008C28.2631 11.0144 26.1164 11.0805 24.0153 11.4721C21.493 11.9401 18.991 12.5555 16.5143 13.2371C14.0123 13.9288 11.5205 14.7019 9.08441 15.6022C7.26246 16.2786 5.51664 17.1891 3.76573 18.0487C2.46651 18.6844 1.25864 19.4779 0.177646 20.4443C0.0913701 20.5206 0.060901 20.663 0 20.7749C0.111652 20.7546 0.238541 20.7546 0.329893 20.7037C1.76614 19.8645 3.35973 19.4169 4.93808 18.9744C6.18655 18.6234 7.47052 18.3996 8.75452 18.1911C10.9317 17.835 13.1089 17.5146 15.2963 17.2145C18.793 16.7364 22.2999 16.8839 25.8068 17.067C28.5474 17.2094 31.2828 17.479 34.0284 17.5909C37.9362 17.7537 41.8187 18.0639 45.6808 18.7099C46.909 18.9133 47.7971 19.6051 48.5685 20.4087C49.3755 21.2479 50.0708 22.2347 50.6493 23.2468C51.4512 24.6506 52.1617 26.1155 52.7961 27.6007C53.7299 29.7929 54.5774 32.0206 55.4402 34.2433C55.9985 35.6777 56.6532 37.0967 57.0237 38.5819C57.6276 41.0335 58.0488 43.5309 58.5106 46.013C59.0131 48.6833 59.5257 51.3586 59.9367 54.0442C60.3123 56.4957 60.5153 58.9728 60.8705 61.4243C61.2055 63.7386 61.5557 66.0528 62.3728 68.2603C62.6418 68.9927 62.9767 69.7048 63.2812 70.427L63.4284 70.366C63.2965 70.0049 63.1391 69.6539 63.0325 69.2877C61.9871 65.7375 61.3882 62.1008 60.9467 58.4336C60.7132 56.5059 60.5153 54.5782 60.2108 52.6658C59.7642 49.8582 59.2516 47.0556 58.739 44.2582C58.1909 41.2726 57.6936 38.2818 56.4755 35.459C55.6026 33.4295 54.9276 31.3187 54.0801 29.2791C53.4609 27.7838 52.6794 26.3596 52.0298 24.8744C51.2837 23.1756 50.2738 21.6497 49.1979 20.1595C49.0964 20.017 49.0202 19.8594 48.9289 19.7068C51.0147 21.9448 52.7149 24.4319 54.0293 27.1887C54.0598 27.0412 54.0598 26.9089 54.004 26.8072C53.8517 26.5275 53.8517 26.3749 54.2273 26.2833C54.481 26.2172 54.6942 25.9883 54.9276 25.8357C54.8972 25.8001 54.8718 25.7594 54.8413 25.7238C54.7601 25.79 54.6739 25.8561 54.5927 25.9171C54.004 26.3545 53.8263 26.2884 53.4914 25.6577C52.8418 24.4421 52.1516 23.2468 51.4816 22.0414C51.3801 21.8583 51.101 21.6447 51.5375 21.4972C51.5578 21.4921 51.5527 21.2683 51.4969 21.1869C51.3193 20.9224 51.1061 20.6834 50.9285 20.424C50.8422 20.2968 50.8168 20.2358 50.9945 20.0476C51.3903 19.6305 51.4614 20.1442 51.7253 20.2154C51.7405 19.9204 51.7608 19.6508 51.7709 19.3864C51.8064 18.5217 52.3901 17.7333 53.2275 17.5553C53.8568 17.4231 54.5165 17.3417 55.1611 17.3468C56.8359 17.3671 58.4041 17.8961 59.957 18.4607C60.967 18.8269 61.9414 19.2999 62.9666 19.6152C64.6616 20.1391 66.3618 19.9967 68.0061 19.3406C69.2597 18.8421 70.4929 18.3081 71.7262 17.7587C73.1015 17.1433 74.4819 17.0874 75.8928 17.6265C76.4714 17.8452 77.0601 18.0385 77.6488 18.2318C77.7452 18.2623 77.8619 18.2318 77.9634 18.2267C77.938 18.13 77.933 18.0182 77.8772 17.9419C75.9994 15.3936 73.4415 13.6236 70.8431 11.9502C69.3409 10.9838 67.6356 10.3023 65.768 10.287C64.9611 10.2819 64.144 10.165 63.3573 10.2819C62.4185 10.4244 61.4999 10.699 60.5863 10.9635C60.2362 11.1822 59.8403 11.3246 59.4394 11.4416C59.3582 11.4772 59.2719 11.5026 59.1907 11.523C59.1755 11.5281 59.1552 11.5281 59.14 11.5332C59.0638 11.5586 58.9877 11.5789 58.9116 11.6044C58.7644 11.6501 58.6172 11.6908 58.4751 11.7315C57.658 12.1333 56.8206 12.464 55.9427 12.6674C54.5876 13.2371 52.3799 12.9726 51.4106 12.6572C50.4006 12.3266 48.939 11.5891 48.0915 10.5922C47.8174 10.404 47.5586 10.1853 47.3556 9.93099C47.0765 9.71736 46.8024 9.49357 46.5334 9.2596C46.2949 9.05615 46.3203 8.89339 46.5436 8.72045C46.9953 8.3695 47.447 8.00837 47.9088 7.66759C48.599 7.15897 49.2638 6.59947 49.9997 6.16714C51.2989 5.40928 52.6438 4.73283 53.9684 4.02075C58.4396 1.62003 63.266 1.18261 68.1838 1.63529C70.3305 1.83365 72.457 2.444 74.5428 3.04418C76.6388 3.64436 78.7044 4.39713 80.7293 5.21093C81.9068 5.68396 83.0385 6.17223 84.3428 6.04507C84.4595 6.0349 84.5915 6.14172 84.7133 6.19767C84.622 6.28922 84.5458 6.4062 84.4341 6.47741C84.1246 6.67069 84.1043 6.85888 84.4037 7.07758C85.1599 7.6269 85.9211 8.17623 86.6824 8.72555C88.3572 9.93608 89.7681 11.4314 91.0013 13.0641C92.0874 14.5086 93.0009 16.0854 93.9601 17.6163C94.5589 18.5725 95.0868 19.5695 95.6755 20.5358C96.386 21.7006 97.1929 22.8094 97.8273 24.0149C98.4668 25.2305 99.0504 26.4766 99.4056 27.8296C99.6797 28.8824 100.147 29.8895 100.451 30.9373C100.588 31.395 100.644 31.9291 100.558 32.397C100.273 34.0094 99.4868 35.4386 98.4871 36.6847C97.7613 37.5901 96.8224 38.353 95.8734 39.0397C93.7368 40.5859 91.25 41.3234 88.7124 41.8982C86.2866 42.4475 83.8454 42.9307 81.4297 43.5258C77.9076 44.3955 74.822 47.5592 74.959 51.3637C74.9894 52.2538 75.0757 53.2406 75.4868 53.9933C76.38 55.6362 77.7351 56.9078 79.4352 57.7521C79.8666 57.9657 79.9935 58.2251 79.8463 58.6523C79.2677 60.3817 78.3085 61.8262 76.6845 62.7264C76.309 62.935 75.8421 62.9808 75.4157 63.0927C75.1721 63.1537 74.9184 63.1893 74.6697 63.2401C75.3345 63.5301 75.9892 63.4843 76.5881 63.2096C78.5115 62.3246 79.5671 60.7021 80.2168 58.7693C80.3995 58.2353 80.3386 58.22 80.8918 58.459C82.3179 59.0847 83.7439 59.7001 85.1599 60.3461C85.2969 60.4071 85.4289 60.636 85.4441 60.7987C85.5659 62.0907 85.0432 63.23 84.5103 64.3489C84.155 65.0865 83.7541 65.7985 83.3735 66.5208C83.6729 66.3733 83.9419 66.1902 84.1094 65.941C85.0939 64.4558 85.9161 62.9045 85.9364 61.0581C85.9415 60.814 85.9668 60.6156 86.2764 60.7886C87.1696 61.2921 88.1237 61.7295 88.9459 62.3348C91.0368 63.881 92.5695 65.9664 94.1783 67.9704C95.2796 69.3437 96.32 70.7729 97.3452 72.2072C98.0404 73.1787 98.6799 74.196 99.2991 75.2183C99.7914 76.0321 100.136 76.9426 100.685 77.7106C101.948 79.4755 103.232 81.2303 104.638 82.8833C105.546 83.9514 106.612 84.9229 107.734 85.7723C109.683 87.2473 111.779 88.5087 113.981 89.6023C116.955 91.0773 119.868 92.6947 123.05 93.6814C126.72 94.8208 130.414 95.8685 134.099 96.9519C134.2 96.9824 134.317 96.957 134.424 96.957C134.332 96.7891 134.251 96.723 134.16 96.6874ZM70.7568 14.7833C70.7721 14.7172 70.8126 14.6002 70.8482 14.6002C70.9801 14.5951 71.1375 14.5849 71.2339 14.646C71.513 14.8291 71.6043 15.7395 71.3658 16.1311C71.3049 15.9175 71.2592 15.7446 71.173 15.4394C71.0156 15.709 70.9091 15.8921 70.8025 16.0752C70.772 16.0803 70.7365 16.0905 70.7061 16.0955C70.6908 15.8514 70.6502 15.6073 70.6604 15.3682C70.6604 15.1749 70.7162 14.9766 70.7568 14.7833ZM70.1174 14.2034C70.1326 14.1984 70.1529 14.1933 70.1681 14.1882C70.2239 14.824 70.2798 15.4598 70.3356 16.0955C70.2645 16.1006 70.1884 16.1057 70.1174 16.1108V14.2034ZM69.6251 13.8474C70.0615 14.6917 70.1123 15.5767 69.8991 16.4872C69.8738 16.5991 69.7215 16.6805 69.6251 16.7771C69.6251 16.6703 69.6403 16.5635 69.6301 16.4567C69.6098 16.3041 69.5692 16.1566 69.5388 16.004C69.4068 16.0752 69.2393 16.1261 69.1429 16.2329C68.8993 16.5024 68.6811 16.7974 68.4578 17.0874C68.3969 17.0467 68.336 17.0111 68.2751 16.9704C68.945 16.1871 68.879 15.2919 68.7318 14.3815C68.7217 14.3153 68.8892 14.2187 68.879 14.1526C68.8537 13.9491 68.8131 13.7406 68.7217 13.5626C68.6405 13.3998 68.4832 13.2727 68.3512 13.1252C69.1531 13.115 69.285 13.1964 69.6251 13.8474ZM68.3258 16.065C68.1837 15.2004 68.0264 14.2492 67.8792 13.3439C68.2852 13.7203 68.5441 15.3428 68.3258 16.065ZM60.7741 13.2523C61.8957 11.3907 64.0476 11.1568 65.6056 11.6705C66.8642 12.0825 67.6864 13.1302 67.7524 14.5544C67.7828 15.2258 67.6762 15.9073 67.6255 16.5838C67.6103 16.772 67.6356 17.0111 67.5341 17.1281C67.0368 17.7079 66.5191 18.2826 65.7223 18.4352C65.2402 18.5268 64.753 18.5827 64.2709 18.6539C62.9361 18.7506 61.9109 18.1402 61.0532 17.2298C60.7589 16.9195 60.7183 16.3804 60.4747 16.004C59.8302 14.9867 60.2869 14.061 60.7741 13.2523ZM59.7185 13.822C60.1347 14.3103 60.0788 13.5677 60.3478 13.5931C60.0484 14.59 59.5409 15.5666 60.0585 16.711C59.277 16.1667 59.1552 14.8138 59.7185 13.822ZM57.3383 14.295C57.5413 14.4018 57.7139 14.4832 57.8763 14.59C57.927 14.6205 57.9727 14.7223 57.9625 14.7782C57.8915 15.0986 57.8001 15.414 57.7088 15.7649C57.181 15.2767 57.2013 14.768 57.3383 14.295ZM57.0135 14.8138C57.1657 14.9816 57.0845 15.3631 57.1048 15.653C57.0236 15.6937 56.9374 15.7395 56.8562 15.7802C56.6684 15.4242 56.4806 15.0681 56.2979 14.707C56.5567 14.6256 56.8257 14.6053 57.0135 14.8138ZM43.2143 11.3958C43.6203 11.7417 44.0213 12.0876 44.4273 12.4385C44.3664 12.5046 44.3055 12.5758 44.2446 12.642C43.8538 12.2808 43.463 11.9197 43.0722 11.5586C43.1179 11.5026 43.1687 11.4518 43.2143 11.3958ZM46.7466 14.9104C46.3355 14.8087 45.9295 14.6866 45.5133 14.6103C45.356 14.5798 45.0972 14.2899 45.0058 14.707C44.7673 14.6053 44.5237 14.5188 44.3004 14.3967C43.9452 14.2035 43.6153 13.9797 43.26 13.7915C43.1889 13.7559 43.0621 13.8271 42.92 13.9593C43.3818 14.234 43.8487 14.5086 44.3105 14.7833L44.2395 14.9257C43.5595 14.5697 42.8794 14.2136 42.1942 13.8576C42.8946 14.4425 43.5848 15.0376 44.5795 15.0122C44.747 15.0071 44.9145 15.063 45.082 15.1088C45.4981 15.2258 45.8838 15.4699 46.3406 15.1597C46.4573 15.0783 46.7415 15.2461 46.9445 15.297C46.9394 15.3479 46.9344 15.3987 46.9293 15.4496H34.9064L34.876 15.6734C35.0993 15.7191 35.3226 15.7954 35.5509 15.8005C37.6317 15.8107 39.7075 15.7904 41.7882 15.8158C44.1989 15.8463 46.6096 15.9175 49.0253 15.9836C49.1979 15.9887 49.3704 16.0955 49.543 16.1515C49.4567 16.3142 49.3806 16.4821 49.2791 16.6347C48.599 17.6469 47.5891 17.8757 46.4522 17.8452C45.6605 17.8249 44.8637 17.9113 44.072 17.8706C43.189 17.8249 42.311 17.6723 41.4279 17.6062C38.8802 17.4078 36.3325 17.2247 33.7848 17.0518C31.0595 16.8687 28.3393 16.6906 25.614 16.533C22.1071 16.3295 18.6103 16.2939 15.1035 16.7059C12.6826 16.9856 10.3075 17.4434 7.95268 18.0283C7.8055 18.0639 7.64815 18.0538 7.49083 18.069C7.4756 18.0232 7.46039 17.9775 7.44517 17.9317C8.46019 17.5451 9.44473 17.006 10.4953 16.8025C12.3121 16.4567 14.1645 16.2125 16.0119 16.1108C20.3714 15.8819 24.736 15.77 29.1005 15.6022C30.0648 15.5666 31.0291 15.5004 31.9933 15.4445C31.9883 15.3886 31.9883 15.3326 31.9832 15.2716C29.9379 15.2716 27.8927 15.2512 25.8423 15.2766C24.1777 15.297 22.508 15.3326 20.8434 15.4241C18.5799 15.5462 16.3164 15.7242 14.0529 15.8819C13.2612 15.9379 12.4695 15.9684 11.6879 16.0803C9.7188 16.36 7.82071 16.9449 5.94293 17.5909C5.73993 17.6621 5.53184 17.7231 5.32376 17.7893C5.30853 17.7486 5.29332 17.713 5.2781 17.6723C6.6433 17.0518 7.97296 16.3092 9.3889 15.831C12.0635 14.9257 14.7736 14.117 17.4989 13.3795C19.397 12.8708 21.3357 12.5046 23.2744 12.174C24.7208 11.9248 26.1925 11.7569 27.6643 11.6857C30.0242 11.5688 32.3892 11.6044 34.7491 11.5026C36.3478 11.4314 37.9413 11.2636 39.5298 11.0957C40.1236 11.0347 40.7072 10.8567 41.301 10.7295C41.7781 10.6278 41.7781 10.6278 41.8948 11.1822C41.8035 11.1415 41.7223 11.1059 41.6461 11.0754L41.5548 11.1568C42.0318 11.7112 42.514 12.2707 42.9961 12.8251C43.0418 12.7946 43.0824 12.764 43.1281 12.7335C42.7271 12.057 42.3313 11.3755 41.9303 10.699C41.976 10.6685 42.0166 10.638 42.0623 10.6075C42.1232 10.6736 42.1993 10.7295 42.2501 10.8058C42.4835 11.1822 42.6967 11.5738 42.9403 11.9451C43.0418 12.1028 43.0925 12.3876 43.4123 12.2452C43.4478 12.23 43.5442 12.3215 43.595 12.3775C43.864 12.6572 44.1228 12.942 44.3918 13.2269C44.4222 13.2625 44.4882 13.3184 44.4831 13.3286C44.1634 13.8576 44.7064 13.766 44.8993 13.8779C45.5083 14.2238 46.1427 14.534 46.7466 14.9104ZM97.1523 38.6531C97.1828 38.6887 97.2183 38.7243 97.2487 38.7599C96.5788 39.3143 95.914 39.8687 95.2441 40.4231C95.2137 40.3875 95.1832 40.3469 95.1527 40.3112C95.8176 39.7568 96.4824 39.2025 97.1523 38.6531ZM89.8594 42.595C92.0265 41.9338 94.1073 41.0488 96.2033 40.2044C96.4012 40.1231 96.5636 39.9552 96.7463 39.8331C96.8783 39.7416 97.0102 39.6602 97.1422 39.5737C97.1676 39.6144 97.1878 39.6551 97.2132 39.6958C95.8582 40.9114 94.3306 41.832 92.5289 42.2695C93.3968 41.8575 94.2697 41.4455 95.1375 41.0335C93.2648 41.3743 91.6662 42.5645 89.7224 42.6662C89.7681 42.6458 89.8087 42.6103 89.8594 42.595Z" fill="#FFDEDD"></path> <path d="M124.598 117.414C125.004 117.109 125.319 116.773 125.705 116.6C126.1 116.427 126.04 116.244 125.857 116C125.573 115.619 125.263 115.252 124.964 114.876C124.989 114.846 125.009 114.815 125.035 114.785C125.436 115.12 125.831 115.456 126.283 115.832C126.217 115.202 126.166 114.662 126.105 114.072C126.405 114.245 126.623 114.373 126.882 114.52C126.882 114.169 126.887 113.9 126.882 113.63C126.857 112.796 126.852 112.826 125.994 112.73C124.329 112.536 122.665 112.318 121 112.089C120.284 111.992 119.569 111.84 118.858 111.712C119.295 111.916 119.746 112.063 120.208 112.165C120.67 112.267 121.152 112.302 121.614 112.404C121.756 112.435 121.873 112.582 122 112.679C121.863 112.725 121.721 112.811 121.584 112.811C121.294 112.816 121 112.781 120.599 112.76C120.812 112.923 120.934 113.015 121.051 113.111C121.457 113.442 121.863 113.772 122.259 114.113C122.33 114.174 122.335 114.301 122.37 114.403C122.269 114.398 122.137 114.428 122.076 114.378C121.497 113.884 120.934 113.376 120.35 112.887C120.223 112.781 120.026 112.75 119.863 112.684C119.924 112.913 119.508 113.045 119.807 113.365C120.229 113.813 120.558 114.347 120.888 114.866C121.005 115.049 121.015 115.308 121.071 115.532C121.03 115.547 120.99 115.558 120.949 115.573C120.168 114.749 119.822 113.493 118.457 113.055C118.66 113.396 118.792 113.62 118.919 113.844C118.884 113.869 118.853 113.9 118.818 113.925C118.584 113.666 118.356 113.396 118.112 113.152C118.036 113.076 117.899 113.035 117.782 113.025C117.742 113.02 117.64 113.167 117.65 113.233C117.798 114.373 117.574 115.573 118.214 116.626C118.275 116.728 118.376 116.804 118.457 116.89C118.523 116.804 118.625 116.733 118.65 116.636C118.742 116.265 118.802 115.883 118.879 115.507C118.955 115.746 118.934 115.98 118.965 116.209C118.985 116.392 119.071 116.57 119.127 116.753C119.29 116.605 119.513 116.483 119.604 116.3C119.706 116.092 119.691 115.827 119.726 115.588C119.782 115.578 119.843 115.563 119.899 115.553C120 115.848 120.112 116.143 120.198 116.443C120.289 116.763 120.35 117.094 120.426 117.419C120.477 117.414 120.533 117.409 120.584 117.399C120.619 117.155 120.66 116.916 120.68 116.672C120.706 116.392 120.822 116.336 121.051 116.494C121.299 116.666 121.553 116.829 121.797 117.002C122.04 117.17 122.274 117.363 122.416 116.89C122.436 116.824 122.583 116.799 122.67 116.753C122.68 116.85 122.69 116.951 122.705 117.048C122.736 117.241 122.71 117.47 122.807 117.618C123.101 118.065 123.304 117.597 123.553 117.46C123.609 117.592 123.634 117.714 123.705 117.785C123.781 117.862 123.898 117.892 123.999 117.943C123.959 117.841 123.938 117.729 123.878 117.643C123.781 117.506 123.654 117.389 123.543 117.262C123.573 117.236 123.598 117.211 123.629 117.185C123.837 117.328 124.045 117.465 124.284 117.628C124.207 117.236 124.147 116.9 124.081 116.565C124.121 116.555 124.162 116.544 124.202 116.534C124.339 116.824 124.471 117.119 124.598 117.414ZM121.03 117.211C120.995 117.511 120.964 117.704 120.954 117.902C120.929 118.304 121.203 118.711 121.584 118.772C121.726 118.793 121.888 118.691 122.045 118.64C122 118.533 121.969 118.416 121.903 118.33C121.639 117.984 121.365 117.643 121.03 117.211Z" fill="#FFDEDD"></path> <path d="M181.013 103.188C180.952 103.244 180.871 103.361 180.835 103.346C180.556 103.234 180.292 103.076 180.013 102.974C179.815 102.903 179.592 102.898 179.349 102.969C179.587 103.127 179.826 103.285 180.064 103.447C180.044 103.483 180.023 103.519 180.008 103.554C179.663 103.412 179.323 103.264 178.882 103.081C180.054 104.302 181.51 104.673 182.931 105.116C183.383 105.258 183.825 105.416 184.271 105.563C184.261 105.604 184.251 105.65 184.241 105.691C183.535 105.553 182.805 105.492 182.135 105.263C180.891 104.841 179.678 104.322 178.45 103.844C177.628 103.524 176.796 103.213 175.979 102.873C175.4 102.629 174.842 102.334 174.223 102.13C174.608 102.364 174.989 102.613 175.385 102.832C175.786 103.056 176.207 103.249 176.613 103.458C177.034 103.676 177.45 103.91 177.882 104.114C178.293 104.307 178.714 104.47 179.11 104.75C178.511 104.653 177.912 104.556 177.308 104.465C177.293 104.495 177.283 104.526 177.268 104.551C178.257 104.994 179.247 105.431 180.237 105.874C180.211 105.94 180.186 106.006 180.161 106.072C179.394 105.818 178.628 105.568 177.861 105.314C177.851 105.329 177.841 105.35 177.831 105.365C178.384 105.624 178.932 105.884 179.526 106.158C179.039 106.291 178.136 106.052 176.811 105.411C175.953 104.999 175.126 104.526 174.278 104.093C175.507 105.141 176.984 105.757 178.455 106.377C178.445 106.423 178.43 106.464 178.42 106.509C178.293 106.499 178.161 106.509 178.049 106.474C177.42 106.26 176.765 106.092 176.166 105.807C174.923 105.217 173.675 104.612 172.487 103.915C171.812 103.519 171.228 102.954 170.645 102.42C170.305 102.105 169.944 101.967 169.493 101.957C167.239 101.896 164.986 101.81 162.733 101.764C157.81 101.657 152.973 100.899 148.157 99.9074C145.112 99.2767 142.047 98.7681 138.986 98.2035C138.941 98.1933 138.88 98.2035 138.849 98.1781C138.712 98.0713 138.585 97.9594 138.453 97.8475C138.606 97.8017 138.768 97.7 138.91 97.7254C141.367 98.1272 143.823 98.5494 146.279 98.9512C150.07 99.5717 153.851 100.233 157.653 100.762C159.454 101.011 161.291 101.037 163.118 101.082C166.96 101.179 170.802 101.281 174.644 101.271C177.39 101.265 180.135 101.093 182.881 100.996C185.484 100.904 188.083 100.813 190.686 100.716C190.97 100.706 191.255 100.65 191.534 100.599C193.675 100.192 195.751 99.531 197.776 98.7477C199.141 98.2188 200.385 97.3795 201.679 96.6675C201.831 96.5861 201.958 96.4538 202.08 96.3318C202.638 95.7774 202.455 94.9839 201.689 94.8364C201.075 94.7143 200.43 94.7245 199.801 94.6686C197.746 94.4804 195.695 94.2922 193.64 94.0938C193.427 94.0735 193.219 93.9972 193.011 93.9412C193.016 93.8904 193.021 93.8446 193.026 93.7937C193.868 93.8497 194.706 93.9056 195.548 93.9666C197.654 94.1243 199.755 94.2769 201.862 94.4397C202.567 94.4956 202.816 95.0704 203.064 95.5943C203.272 96.0368 203.029 96.7081 202.516 97.054C201.74 97.5779 200.963 98.112 200.121 98.5138C199.065 99.0224 197.954 99.409 196.858 99.8362C194.838 100.625 192.757 101.174 190.453 101.413C190.818 101.606 191.062 101.759 191.326 101.876C193.584 102.852 195.848 103.824 198.106 104.79C201.258 106.138 204.414 107.486 207.566 108.834C211.387 110.461 215.356 111.641 219.315 112.867C221.918 113.676 224.476 114.637 227.054 115.538C227.318 115.629 227.562 115.771 227.81 115.888C227.795 115.929 227.78 115.97 227.765 116.011C227.186 115.878 226.598 115.787 226.034 115.614C221.325 114.2 216.564 112.923 211.925 111.296C207.769 109.836 203.744 107.989 199.669 106.301C197.746 105.507 195.848 104.658 193.919 103.88C193.29 103.625 192.589 103.564 191.96 103.31C190.945 102.903 189.925 102.476 188.986 101.927C188.25 101.494 187.519 101.515 186.702 101.657C187.697 102.196 188.697 102.735 189.697 103.275C189.681 103.31 189.666 103.351 189.651 103.386C188.149 102.715 186.469 102.547 185.083 101.545C185.053 101.621 185.022 101.698 184.992 101.774C186.139 102.313 187.281 102.852 188.428 103.392C188.413 103.442 188.397 103.493 188.382 103.539C188.169 103.493 187.941 103.478 187.743 103.392C186.804 102.964 185.85 102.562 184.956 102.054C184.434 101.759 183.957 101.611 183.302 101.835C184.946 102.985 186.885 103.254 188.651 103.941C188.646 103.982 188.641 104.022 188.631 104.063C188.225 104.022 187.793 104.048 187.413 103.92C186.058 103.478 184.718 102.985 183.378 102.507C183.231 102.456 183.048 102.374 182.982 102.252C182.683 101.693 182.196 101.866 181.698 101.972C182.901 102.522 184.104 103.071 185.312 103.62C185.286 103.687 185.266 103.753 185.241 103.819C184.931 103.748 184.606 103.717 184.322 103.595C183.444 103.229 182.581 102.822 181.708 102.435C181.536 102.359 181.358 102.298 181.181 102.227C181.135 102.196 181.089 102.171 181.038 102.14C180.861 101.993 180.688 101.723 180.506 101.713C179.947 101.693 179.389 101.779 178.826 101.82C178.805 101.876 178.79 101.932 178.77 101.988C179.272 102.262 179.775 102.532 180.277 102.807C180.531 102.934 180.775 103.061 181.013 103.188ZM176.496 101.932C176.481 101.978 176.466 102.023 176.451 102.069C177.034 102.318 177.613 102.562 178.191 102.812C178.212 102.766 178.232 102.72 178.247 102.674C177.653 102.451 177.212 101.866 176.496 101.932ZM173.456 102.278C173.431 102.328 173.411 102.379 173.385 102.43C174.111 102.801 174.842 103.178 175.568 103.549C175.588 103.508 175.608 103.468 175.628 103.427C174.903 103.046 174.182 102.664 173.456 102.278Z" fill="#FFDEDD"></path> <path d="M187.545 89.9429C186.966 89.8106 186.388 89.6784 185.809 89.5461C185.51 89.4749 185.165 89.5563 184.962 89.1799C184.901 89.068 184.622 89.0375 184.434 89.0273C183.201 88.9561 181.967 88.9002 180.729 88.8341C180.308 88.8137 179.882 88.773 179.465 88.6865C183.728 88.1779 187.936 88.6255 192.123 89.5004C192.133 89.4546 192.148 89.4088 192.158 89.363C192.062 89.3172 191.97 89.2613 191.869 89.2359C190.813 88.9663 189.768 88.6408 188.697 88.4475C187.672 88.2644 186.626 88.1423 185.591 88.122C182.688 88.0762 179.785 88.1016 176.882 88.0965C176.755 88.0965 176.628 88.0965 176.501 88.0915C176.461 88.0864 176.425 88.0559 176.263 87.9694C176.791 87.7456 177.258 87.827 177.699 87.7863C178.156 87.7456 178.618 87.7303 179.08 87.7049C179.557 87.6744 180.029 87.6337 180.506 87.6184C180.962 87.6032 181.414 87.6133 181.871 87.6133C181.876 87.5625 181.876 87.5167 181.881 87.4659C181.303 87.3133 180.724 87.1556 180.145 87.003C180.145 86.9725 180.15 86.942 180.15 86.9114C180.328 86.8809 180.506 86.8504 180.714 86.8148C179.892 86.3011 179.029 85.8891 178.313 85.2889C176.689 83.9309 174.624 83.3104 172.969 82.0235C171.746 81.0673 170.609 79.9992 169.437 78.982C169.138 78.7226 168.874 78.4072 168.539 78.2038C164.23 75.5538 160.556 72.1358 156.907 68.6772C155.359 67.2123 153.816 65.7475 152.263 64.2877C152.131 64.1606 151.964 64.0741 151.811 63.9673C151.852 63.9215 151.898 63.8808 151.938 63.8351C152.324 64.1555 152.72 64.4709 153.095 64.8065C155.064 66.5817 157.074 68.3262 158.987 70.1573C162.433 73.4532 166.169 76.3727 170.112 79.0379C171.508 79.9789 172.924 80.8791 174.339 81.7896C174.563 81.932 174.817 82.0541 175.07 82.1304C176.933 82.7051 178.785 83.3358 180.673 83.8088C183.119 84.4192 185.596 84.9024 188.063 85.4212C188.611 85.5381 189.083 85.7314 189.453 86.1689C189.966 86.769 189.976 87.1353 189.433 87.6947C189.347 87.7863 189.225 87.8422 189.118 87.9134C189.138 87.9592 189.159 88.005 189.179 88.0508C189.905 88.1576 190.625 88.2797 191.351 88.361C192.31 88.4729 193.28 88.5238 194.239 88.6611C195.249 88.8035 196.01 89.3376 196.406 90.3091C196.548 90.66 196.629 91.0313 196.782 91.3772C196.832 91.4891 197.025 91.5857 197.167 91.6111C197.964 91.7383 198.771 91.8248 199.568 91.9621C199.948 92.0282 200.319 92.191 200.349 92.664C200.385 93.2031 200.025 93.7118 199.441 93.8745C199.598 93.6609 199.74 93.5236 199.822 93.3507C200.167 92.6233 200.07 92.3894 199.365 92.2724C198.517 92.1351 197.67 92.0231 196.817 91.9163C191.798 91.2755 186.773 90.6448 181.754 90.0039C181.683 89.9937 181.612 89.9785 181.414 89.9378C181.653 89.8717 181.764 89.836 182.013 89.7648C181.703 89.6834 181.511 89.6275 181.313 89.5766C181.313 89.5563 181.318 89.5309 181.318 89.5105C183.388 89.6529 185.464 89.7903 187.54 89.9327C188.697 90.3752 189.91 90.4769 191.123 90.543C190.788 90.4464 190.448 90.3701 190.103 90.3192C189.26 90.187 188.403 90.0649 187.545 89.9429ZM192.31 89.9785C191.64 89.4648 187.89 88.951 186.53 89.1952C188.438 89.4546 190.392 89.7191 192.31 89.9785ZM185.276 87.5625C185.281 87.5065 185.286 87.4506 185.292 87.3946C184.439 87.3183 183.591 87.2421 182.739 87.1708C182.734 87.2319 182.729 87.2878 182.724 87.3488C183.571 87.415 184.424 87.4862 185.276 87.5625ZM185.921 88.9866C185.926 88.9358 185.926 88.8849 185.931 88.8341C185.251 88.7781 184.571 88.7272 183.891 88.6713C183.886 88.7272 183.886 88.7883 183.881 88.8442C184.561 88.8951 185.241 88.9409 185.921 88.9866Z" fill="#FFDEDD"></path> <path d="M164.565 104.648C165.483 105.258 166.422 105.787 167.65 106.006C167.138 105.335 166.701 104.765 166.265 104.195C166.29 104.16 166.316 104.124 166.346 104.094C166.488 104.185 166.625 104.297 166.772 104.373C167.534 104.76 168.264 105.243 169.066 105.492C171.34 106.194 173.619 106.901 175.933 107.42C179.846 108.305 183.748 108.234 187.56 106.835C188.123 106.627 188.646 106.316 189.194 106.067C189.326 106.011 189.488 106.027 189.636 106.006C189.595 106.164 189.605 106.393 189.504 106.464C189.042 106.789 188.575 107.145 188.057 107.354C185.789 108.264 183.419 108.631 180.983 108.636C178.501 108.636 176.09 108.219 173.71 107.542C173.573 107.502 173.426 107.512 173.289 107.476C173.152 107.44 173.025 107.374 172.857 107.379C173.284 107.669 173.705 107.969 174.141 108.254C174.593 108.549 175.06 108.824 175.517 109.109C178.719 111.128 182.16 112.7 185.525 114.419C186.656 114.994 187.758 115.629 188.89 116.194C191.219 117.354 193.584 118.447 195.893 119.642C199.532 121.519 203.171 123.411 206.759 125.385C209.109 126.682 211.311 128.233 213.407 129.922C213.529 130.018 213.646 130.125 213.717 130.313C213.494 130.207 213.255 130.115 213.042 129.983C211.423 129.006 209.814 128.02 208.195 127.038C203.79 124.363 199.156 122.125 194.569 119.79C187.702 116.301 180.835 112.807 173.994 109.272C172.121 108.3 170.33 107.171 168.503 106.108C168.305 105.996 168.168 105.879 167.965 106.149C167.869 106.271 167.554 106.281 167.351 106.255C166.514 106.154 165.255 105.442 164.565 104.648Z" fill="#FFDEDD"></path> <path d="M137.21 89.6338C137.398 89.6847 137.591 89.7152 137.773 89.7813C141.011 90.9562 144.391 91.5513 147.756 92.2023C155.039 93.6112 162.393 93.9825 169.797 93.8757C173.355 93.8249 176.912 93.9317 180.465 94.0538C183.302 94.1504 186.139 94.3793 188.976 94.542C189.544 94.5725 190.118 94.5522 190.691 94.5522C190.879 94.5522 191.067 94.5522 191.255 94.6437C190.128 94.6895 189.001 94.7811 187.875 94.776C185.19 94.7658 182.51 94.6946 179.826 94.6692C175.299 94.6234 170.777 94.5878 166.25 94.5573C162.215 94.5268 158.19 94.3131 154.181 93.8401C149.746 93.3162 145.366 92.4973 141.057 91.3275C139.854 91.002 138.717 90.4476 137.55 89.9898C137.413 89.9339 137.296 89.8321 137.169 89.7508C137.18 89.7101 137.195 89.6745 137.21 89.6338Z" fill="#FFDEDD"></path> <path d="M93.1178 60.3156C93.8993 60.4224 94.691 60.4885 95.4624 60.6462C97.0509 60.9717 98.5785 61.4854 100.06 62.1721C101.431 62.8078 102.872 63.2656 104.389 63.4081C104.811 63.4487 105.247 63.4335 105.668 63.3826C106.952 63.2249 107.622 62.1517 107.754 60.9005C107.78 60.6411 107.759 60.3715 107.759 60.0918C110.393 61.6126 111.987 64.2168 111.809 67.0193C111.759 67.7975 111.54 68.5299 110.84 69.0029C110.749 69.064 110.627 69.0741 110.52 69.1097C110.54 69.008 110.525 68.8809 110.586 68.8097C112.093 66.9837 110.926 63.6674 109.591 62.2687C109.135 61.7906 108.637 61.3583 108.201 60.9463C107.942 61.5872 107.698 62.1721 107.475 62.7672C107.445 62.8435 107.485 62.9757 107.536 63.0571C108.5 64.4558 108.637 66.0376 108.521 67.6653C108.45 68.652 108.049 69.5065 107.277 70.1575C107.181 70.2389 107.074 70.3101 106.968 70.3813C106.937 70.4016 106.881 70.3966 106.744 70.4118C106.866 70.1982 106.927 70.0202 107.044 69.8879C108.257 68.5604 108.287 66.9837 107.967 65.3561C107.856 64.7711 107.648 64.1964 107.44 63.6318C107.323 63.3216 107.14 63.1537 106.765 63.4436C106.125 63.9421 105.349 63.9523 104.577 63.8963C104.171 63.8658 103.77 63.8099 103.466 63.7793C103.973 64.4914 104.582 65.1832 105.004 65.9817C106.191 68.2146 106.364 70.5847 105.714 73.016C105.44 74.0332 104.816 74.8369 104.009 75.4879C103.43 75.9508 102.765 76.0627 102.05 75.8745C102.842 75.5896 103.577 75.2438 104.171 74.6182C105.08 73.662 105.425 72.4921 105.521 71.2307C105.694 69.0742 105.303 67.0345 104.049 65.2391C103.638 64.644 103.075 64.1608 102.568 63.6318C102.497 63.5556 102.38 63.52 102.278 63.4742C101.228 63.0317 100.197 62.523 99.1165 62.167C97.6599 61.6838 96.1628 61.3125 94.6809 60.9005C94.148 60.753 93.61 60.6208 93.0771 60.4834C93.0924 60.4173 93.1025 60.3665 93.1178 60.3156Z" fill="#FFDEDD"></path> <path d="M177.272 90.3446C177.145 90.3599 177.013 90.3802 176.887 90.3853C174.349 90.487 171.817 90.6345 169.279 90.6701C166.407 90.7108 163.524 90.7769 160.667 90.5938C157.205 90.37 153.749 89.9479 150.303 89.5003C146.994 89.0731 143.731 88.3864 140.574 87.2929C140.118 87.1352 139.686 86.8809 139.265 86.6418C139.179 86.591 139.174 86.3977 139.133 86.2705C139.25 86.2807 139.382 86.2654 139.483 86.3112C141.666 87.2216 143.949 87.7862 146.264 88.1779C149.765 88.773 153.282 89.2969 156.81 89.6987C161.2 90.192 165.615 90.2531 170.035 90.07C172.314 89.9784 174.603 90.0954 176.892 90.1259C177.029 90.1259 177.161 90.1869 177.298 90.2175C177.282 90.2581 177.277 90.2988 177.272 90.3446Z" fill="#FFDEDD"></path> <path d="M128.866 55.0105C129.135 55.0105 129.425 54.9494 129.678 55.0206C130.698 55.3105 131.734 55.5852 132.718 55.9718C136.956 57.635 141.016 59.6593 144.914 62.0092C145.02 62.0753 145.132 62.1363 145.244 62.1974C145.264 62.2075 145.299 62.1923 145.381 62.177C145.056 61.821 144.751 61.4954 144.452 61.1546C143.919 60.5443 143.391 59.9289 142.869 59.3084C142.757 59.1761 142.635 59.0337 142.579 58.876C142.528 58.7438 142.564 58.5759 142.559 58.4284C142.691 58.4844 142.863 58.5047 142.955 58.6014C145.152 60.9207 147.34 63.2451 149.527 65.5746C151.192 67.3446 152.831 69.1401 154.516 70.8898C155.13 71.5256 155.845 72.0698 156.515 72.6547C156.617 72.7412 156.713 72.8327 156.784 72.9599C155.622 72.3139 154.445 71.7036 153.516 70.7169C152.054 69.1655 150.573 67.6396 149.146 66.0527C147.969 64.7405 146.675 63.5961 145.152 62.6958C140.63 60.0204 135.941 57.7011 131.039 55.8141C130.404 55.5699 129.729 55.4377 129.074 55.2546C128.998 55.2342 128.927 55.1936 128.851 55.163C128.856 55.1071 128.861 55.0562 128.866 55.0105Z" fill="#FFDEDD"></path> <path d="M176.365 85.0801C175.086 85.1869 173.812 85.3649 172.533 85.3853C167.869 85.4514 163.2 85.543 158.536 85.4718C154.78 85.4158 151.02 85.192 147.295 84.6529C145.158 84.3426 143.042 83.9255 140.991 83.244C140.798 83.1779 140.606 83.0914 140.438 82.9795C140.372 82.9337 140.377 82.7913 140.347 82.6896C140.443 82.6794 140.545 82.6285 140.631 82.659C143.3 83.5135 146.046 83.9917 148.827 84.2917C155.75 85.0394 162.697 85.1005 169.65 84.953C171.665 84.9123 173.68 84.8817 175.695 84.8512C175.923 84.8461 176.151 84.8919 176.385 84.9123C176.375 84.9631 176.37 85.0242 176.365 85.0801Z" fill="#FFDEDD"></path> <path d="M91.184 52.5642C91.2246 52.5388 91.3261 52.4625 91.4377 52.4014C92.8283 51.6436 94.3254 51.2824 95.8885 51.1349C98.5986 50.8755 101.309 50.9366 104.019 51.1095C104.293 51.1248 104.42 51.0332 104.415 50.7789C104.405 50.3364 104.43 49.8837 104.328 49.4615C104.004 48.073 103.547 46.7353 102.532 45.6774C102.476 45.6214 102.43 45.5502 102.4 45.479C102.364 45.3824 102.349 45.2756 102.324 45.1738C102.435 45.1942 102.562 45.1891 102.659 45.245C103.364 45.6418 103.724 46.3539 104.024 47.0303C104.42 47.9408 104.648 48.9224 104.927 49.8837C104.988 50.1024 105.008 50.3822 104.932 50.5907C104.729 51.1146 104.978 51.1655 105.409 51.2214C109.957 51.786 114.504 52.3506 119.046 52.9711C120.934 53.2305 122.792 53.6628 124.573 54.3749C124.715 54.4308 124.857 54.4969 124.979 54.6394C124.395 54.4969 123.817 54.3189 123.223 54.2172C120.345 53.7239 117.478 53.1949 114.585 52.7931C111.616 52.3811 108.637 52.0352 105.653 51.7707C101.903 51.4401 98.1368 51.2875 94.3914 51.8267C93.2901 51.9691 92.2193 52.315 91.184 52.5642Z" fill="#FFDEDD"></path> <path d="M144.518 57.8487C143.742 57.1977 142.955 56.5619 142.194 55.8905C138.134 52.3251 133.724 49.2377 129.161 46.3691C126.959 44.9805 124.771 43.5614 122.528 42.2441C121.036 41.3693 119.453 40.6572 117.92 39.8535C117.6 39.6857 117.321 39.4365 117.042 39.2076C116.981 39.1567 116.986 39.0245 116.956 38.9329C117.042 38.938 117.153 38.9126 117.214 38.9533C120.056 40.764 123.31 41.8016 126.111 43.714C129.983 46.3538 134.069 48.6782 137.743 51.6028C139.89 53.3118 141.915 55.1785 143.991 56.979C144.158 57.1214 144.29 57.3096 144.432 57.4774C144.503 57.5639 144.559 57.6555 144.62 57.747C144.589 57.7776 144.554 57.8131 144.518 57.8487Z" fill="#FFDEDD"></path> <path d="M193.193 107.486C193.432 107.563 193.68 107.619 193.904 107.72C196.507 108.895 199.136 110.009 201.699 111.271C205.135 112.959 208.51 114.77 211.915 116.514C213.032 117.084 214.164 117.623 215.285 118.183C215.422 118.249 215.539 118.356 215.666 118.442C215.651 118.483 215.64 118.524 215.625 118.559C215.214 118.452 214.773 118.407 214.392 118.234C212.205 117.252 210.012 116.286 207.865 115.233C204.069 113.376 200.298 111.474 196.533 109.562C195.457 109.017 194.437 108.371 193.391 107.766C193.3 107.715 193.224 107.639 193.137 107.573C193.158 107.547 193.173 107.517 193.193 107.486Z" fill="#FFDEDD"></path> <path d="M168.219 80.3863C164.833 82.3089 142.655 81.9427 140.615 79.898C140.981 79.898 141.26 79.8675 141.529 79.9031C143.523 80.1828 145.508 80.4982 147.507 80.7525C150.725 81.1696 153.968 81.2357 157.201 81.1187C159.911 81.022 162.616 80.7779 165.321 80.5846C166.143 80.5287 166.96 80.432 167.782 80.3557C167.884 80.3507 167.99 80.371 168.219 80.3863Z" fill="#FFDEDD"></path> <path d="M208.698 119.973C208.576 119.937 208.454 119.912 208.338 119.861C203.024 117.486 197.695 115.126 192.402 112.705C191.097 112.11 189.89 111.296 188.651 110.568C188.438 110.446 188.276 110.233 188.093 110.065C188.113 110.029 188.139 109.994 188.159 109.958C188.433 110.085 188.722 110.192 188.986 110.339C191.874 111.993 194.96 113.208 197.979 114.581C200.892 115.909 203.755 117.359 206.637 118.757C207.211 119.032 207.779 119.312 208.348 119.596C208.49 119.668 208.622 119.754 208.759 119.836C208.738 119.881 208.718 119.927 208.698 119.973Z" fill="#FFDEDD"></path> <path d="M221.107 118.89C220.904 119.51 220.975 120.105 221.345 120.619C221.614 120.985 221.939 121.336 222.304 121.606C222.898 122.038 222.995 122.669 223.04 123.284C223.091 123.971 223.309 124.54 223.741 125.059C224.116 125.512 224.268 126.061 224.152 126.621C223.928 127.679 224.436 128.528 224.857 129.408C225.03 129.764 225.258 130.095 225.375 130.466C225.436 130.659 225.365 130.944 225.258 131.132C224.913 131.758 224.999 132.302 225.405 132.862C226.009 133.701 226.156 134.698 226.243 135.69C226.278 136.112 225.903 136.458 225.486 136.447C224.745 136.427 224.131 136.091 223.558 135.674C223.573 135.629 223.588 135.583 223.598 135.532C223.933 135.623 224.263 135.74 224.598 135.791C224.943 135.842 225.294 135.837 225.644 135.852C225.623 135.481 225.644 135.105 225.573 134.744C225.426 134.031 225.197 133.36 224.756 132.75C224.411 132.277 224.426 131.646 224.705 131.153C225.02 130.603 224.801 130.202 224.522 129.81C223.989 129.062 223.781 128.203 223.598 127.338C223.558 127.145 223.598 126.926 223.649 126.728C223.786 126.173 223.649 125.69 223.304 125.258C222.847 124.693 222.624 124.067 222.594 123.335C222.568 122.786 222.436 122.257 221.929 121.875C221.381 121.463 220.939 120.939 220.716 120.263C220.533 119.724 220.63 119.271 221.107 118.89Z" fill="#FFDEDD"></path> <path d="M137.535 73.2651C136.297 73.1074 135.053 72.9905 133.82 72.787C129.303 72.0393 125.02 70.6101 121.066 68.2602C120.523 67.9398 120.016 67.5481 119.518 67.1565C119.336 67.0141 119.229 66.775 119.138 66.5156C124.68 70.4371 131.074 71.8918 137.591 72.9955C137.575 73.0871 137.555 73.1736 137.535 73.2651Z" fill="#FFDEDD"></path> <path d="M115.514 85.9561C117.285 86.7037 119.208 86.6376 121.04 87.0598C123.167 87.5532 125.283 88.0974 127.389 88.6823C128.592 89.0129 129.577 89.7504 130.434 90.6507C130.916 91.1542 131.307 91.7239 131.246 92.4614C131.226 92.7055 131.043 92.9395 130.922 93.1684C130.896 93.2142 130.79 93.2091 130.719 93.2294C130.703 93.1582 130.663 93.0819 130.678 93.0209C130.876 92.2325 130.531 91.6374 130.033 91.0779C128.952 89.8623 127.536 89.2927 126.024 88.8298C123.563 88.072 121.045 87.5938 118.523 87.1157C117.67 86.9581 116.853 86.6275 116.021 86.363C115.823 86.2969 115.646 86.1697 115.458 86.068C115.473 86.0375 115.493 85.9967 115.514 85.9561Z" fill="#FFDEDD"></path> <path d="M127.668 77.06C126.222 76.6023 124.76 76.1852 123.334 75.6715C120.365 74.5932 117.386 73.5403 114.6 72.0297C113.666 71.5262 112.788 70.9158 111.905 70.3258C111.586 70.1122 111.332 69.807 111.114 69.4561C111.169 69.4713 111.23 69.4713 111.276 69.5018C113.671 71.282 116.402 72.4112 119.152 73.4895C122.015 74.6135 124.882 75.7172 127.745 76.8311C127.719 76.9023 127.694 76.9837 127.668 77.06Z" fill="#FFDEDD"></path> <path d="M114.367 59.7815C112.91 59.7205 111.454 59.7103 110.002 59.5882C106.363 59.278 102.719 58.9626 99.0654 59.278C97.7104 59.395 96.3655 59.6543 95.0155 59.8425C94.9089 59.8578 94.7973 59.8171 94.6856 59.8018C94.7719 59.7103 94.8429 59.5577 94.9444 59.5323C95.6042 59.3644 96.269 59.1915 96.9389 59.0796C100.187 58.5405 103.455 58.5811 106.719 58.871C109.216 59.0898 111.707 59.3848 114.199 59.6493C114.255 59.6543 114.316 59.6645 114.372 59.6747C114.372 59.7001 114.367 59.7408 114.367 59.7815Z" fill="#FFDEDD"></path> <path d="M135.433 75.6768C142.143 76.8213 148.918 76.9688 155.703 77.1112C154.769 77.1722 153.841 77.2485 152.907 77.2994C149.095 77.5181 145.294 77.2892 141.503 76.9179C139.712 76.7399 137.93 76.4194 136.149 76.1448C135.885 76.1041 135.636 75.9667 135.378 75.8752C135.398 75.804 135.413 75.743 135.433 75.6768Z" fill="#FFDEDD"></path> <path d="M161.235 106.24C161.093 105.228 160.16 105.009 159.606 104.429C160.723 104.943 161.875 105.395 162.936 106.006C163.418 106.28 163.717 106.87 164.022 107.399C163.463 106.423 162.57 105.97 161.494 105.711C161.586 105.95 161.687 106.148 161.733 106.357C161.794 106.606 161.697 106.769 161.413 106.733C160.977 106.677 160.535 106.616 159.946 106.535C160.408 107.13 160.794 107.628 161.185 108.132C161.261 108.234 161.378 108.31 161.428 108.417C161.459 108.483 161.428 108.605 161.383 108.666C161.357 108.707 161.241 108.696 161.17 108.681C161.114 108.666 161.058 108.615 161.017 108.569C159.972 107.399 158.602 106.672 157.318 105.828C157.231 105.772 157.16 105.69 157.109 105.584C158.14 105.64 158.81 106.474 159.779 106.743C159.048 105.94 158.322 105.141 157.531 104.271C157.805 104.332 158.064 104.48 158.13 104.129C158.251 104.175 158.393 104.19 158.495 104.266C159.287 104.851 160.073 105.446 160.86 106.031C160.972 106.102 161.093 106.158 161.235 106.24Z" fill="#FFDEDD"></path> <path d="M148.41 102.506C148.294 102.506 148.172 102.516 148.055 102.506C143.467 102.084 138.951 101.285 134.505 100.085C134.139 99.988 133.759 99.927 133.398 99.8151C133.292 99.7846 133.226 99.632 133.14 99.5353C133.251 99.4743 133.378 99.3522 133.475 99.3675C134.251 99.5099 135.022 99.6879 135.799 99.8456C139.123 100.517 142.442 101.183 145.766 101.85C146.589 102.012 147.416 102.17 148.238 102.338C148.304 102.353 148.365 102.399 148.426 102.429C148.421 102.455 148.416 102.48 148.41 102.506Z" fill="#FFDEDD"></path> <path d="M132.754 89.2456C132.617 89.4287 132.52 89.561 132.424 89.6932C132.348 89.5762 132.272 89.4542 132.196 89.3372C132.033 89.0879 131.906 88.8031 131.703 88.5946C129.557 86.3617 126.917 84.963 123.974 84.0881C122.725 83.7168 121.482 83.3506 120.234 82.9844C120.112 82.9488 119.985 82.9234 119.873 82.8624C119.772 82.8064 119.696 82.7098 119.609 82.6335C119.731 82.5979 119.868 82.5063 119.98 82.5317C120.726 82.6843 121.477 82.8217 122.208 83.0353C124.248 83.6355 126.288 84.2356 128.176 85.2529C129.683 86.0667 130.998 87.1399 132.196 88.3555C132.424 88.5895 132.556 88.9252 132.754 89.2456Z" fill="#FFDEDD"></path> <path d="M131.82 74.5019C128.724 74.4968 117.62 70.0158 117.006 68.5967C121.786 70.8296 126.674 72.9659 131.82 74.5019Z" fill="#FFDEDD"></path> <path d="M124.537 78.6618C123.923 78.9364 123.355 78.7787 122.832 78.616C118.813 77.3749 114.793 76.1135 111.19 73.8552C110.632 73.5043 110.119 73.0923 109.627 72.6396C111.9 74.1197 114.347 75.2082 116.884 76.0983C119.406 76.9833 121.949 77.7971 124.537 78.6618Z" fill="#FFDEDD"></path> <path d="M64.1997 63.8561C65.5649 65.3107 67.123 66.2619 69.0769 66.4551C69.8635 66.5365 70.5334 66.2669 71.1323 65.7532C72.3503 64.7055 73.0303 63.3525 73.4262 61.8266C73.482 61.613 73.543 61.3994 73.6089 61.1858C73.6242 61.1451 73.6546 61.1095 73.7663 60.9365C73.7663 61.435 73.8119 61.8063 73.7561 62.1623C73.482 63.9273 72.6091 65.3463 71.1932 66.4195C70.1376 67.2181 68.9399 67.2384 67.803 66.7654C66.8185 66.3585 65.91 65.7481 65.0117 65.1632C64.5804 64.8835 64.2758 64.4359 64.1997 63.8561Z" fill="#FFDEDD"></path> <path d="M133.596 92.8789C133.774 92.8891 133.961 92.8738 134.129 92.9196C137.727 93.8605 141.412 94.2929 145.071 94.888C146.086 95.0558 147.096 95.2643 148.106 95.4627C148.202 95.4831 148.283 95.595 148.37 95.6611C148.258 95.6916 148.141 95.7577 148.035 95.7424C146.558 95.5543 145.076 95.3864 143.609 95.1474C141.092 94.7354 138.585 94.2827 136.078 93.8148C135.393 93.6876 134.733 93.4536 134.063 93.2553C133.89 93.2044 133.728 93.1078 133.561 93.0315C133.571 92.9806 133.586 92.9298 133.596 92.8789Z" fill="#FFDEDD"></path> <path d="M104.938 44.2689C104.663 44.2333 104.166 44.1671 103.664 44.0908C103.527 44.0705 103.369 44.0247 103.273 43.9332C103.156 43.8263 103.095 43.6585 103.009 43.5212C103.151 43.5161 103.303 43.4805 103.44 43.5161C105.552 44.04 107.47 43.6229 109.165 42.2801C110.068 41.563 110.195 40.9017 109.744 39.8336C109.536 39.3403 109.226 38.8876 108.982 38.4095C108.927 38.2976 108.942 38.145 108.922 38.0128C109.064 38.0484 109.251 38.0331 109.338 38.1247C110.17 39.0198 110.698 40.0524 110.54 41.3087C110.459 41.9597 109.992 42.4124 109.5 42.7989C108.241 43.8009 106.775 44.2333 104.938 44.2689Z" fill="#FFDEDD"></path> <path d="M143.737 72.7819C141.26 72.1715 138.783 71.5713 136.312 70.9457C134.048 70.3761 131.831 69.6539 129.704 68.6875C129.511 68.601 129.369 68.3975 129.202 68.25C129.42 68.2551 129.664 68.189 129.851 68.2704C132.404 69.3436 135.048 70.1065 137.728 70.7728C139.063 71.1034 140.362 71.5968 141.681 71.9986C142.377 72.2071 143.082 72.375 143.782 72.5581C143.762 72.6293 143.752 72.7056 143.737 72.7819Z" fill="#FFDEDD"></path> <path d="M117.26 80.7108C116.651 80.9346 116.021 80.8482 115.407 80.7261C112.707 80.1819 109.967 79.7546 107.394 78.7119C106.343 78.2847 105.359 77.6947 104.359 77.1453C104.197 77.0589 104.126 76.8097 104.009 76.6367C104.212 76.7028 104.44 76.7334 104.608 76.8504C105.978 77.7761 107.49 78.4067 109.079 78.8086C111.352 79.3833 113.651 79.836 115.945 80.3294C116.382 80.4209 116.828 80.4565 117.275 80.5175C117.275 80.5735 117.265 80.6396 117.26 80.7108Z" fill="#FFDEDD"></path> <path d="M133.317 87.4506C133.378 87.2878 133.408 87.181 133.454 87.0895C133.814 86.3316 133.769 86.0366 133.15 85.4059C131.114 83.346 128.8 81.7082 126.055 80.7265C125.755 80.6197 125.471 80.4824 125.177 80.3603C125.156 80.3501 125.151 80.3094 125.085 80.1721C125.948 80.3857 126.765 80.4926 127.511 80.7876C129.942 81.759 131.937 83.3816 133.723 85.2584C134.007 85.5585 134.154 86.0671 134.21 86.4994C134.276 86.9775 133.931 87.3031 133.317 87.4506Z" fill="#FFDEDD"></path> <path d="M75.3092 77.4107C78.3289 77.0851 80.1711 75.1523 81.6734 72.7669C82.328 71.7293 82.3839 70.6205 81.9525 69.4812C81.8713 69.2625 81.8053 69.0387 81.7343 68.8149C81.7698 68.7844 81.8104 68.7589 81.8459 68.7284C81.9677 68.8606 82.12 68.9725 82.2113 69.1251C82.8051 70.1424 82.8762 71.241 82.4093 72.2837C81.4704 74.3691 79.9834 75.9967 77.9635 77.0851C77.1362 77.5327 76.243 77.7107 75.3092 77.4107Z" fill="#FFDEDD"></path> <path d="M228.739 116.398C229.084 116.682 229.485 116.921 229.764 117.262C230.114 117.684 229.571 118.498 228.922 118.544C228.45 118.574 227.973 118.549 227.633 118.549C227.516 118.951 227.445 119.271 227.313 119.576C227.267 119.678 227.085 119.724 226.963 119.79C226.755 119.902 226.552 120.024 226.339 120.121C226.13 120.212 225.892 120.365 225.694 120.329C224.171 120.049 222.776 119.419 221.37 118.808C221.38 118.758 221.395 118.707 221.406 118.661C221.725 118.717 222.05 118.747 222.36 118.839C223.42 119.159 224.476 119.505 225.532 119.841C225.796 119.927 225.963 119.856 226.136 119.622C226.247 119.47 226.486 119.368 226.684 119.337C227.014 119.287 227.145 119.195 226.993 118.844C226.729 118.244 226.821 118.112 227.46 118.096C227.886 118.086 228.323 118.122 228.744 118.071C228.973 118.045 229.313 117.918 229.363 117.761C229.424 117.562 229.277 117.267 229.155 117.054C229.033 116.84 228.825 116.677 228.653 116.489C228.678 116.464 228.709 116.428 228.739 116.398Z" fill="#FFDEDD"></path> <path d="M158.495 108.595C157.317 107.904 156.17 107.202 155.257 106.19C155.277 106.154 155.303 106.123 155.323 106.088C155.46 106.174 155.597 106.266 155.734 106.347C156.653 106.907 157.551 107.497 158.49 108.016C158.926 108.26 159.439 108.361 159.911 108.545C160.028 108.59 160.109 108.707 160.21 108.794C160.109 108.875 160.017 108.997 159.901 109.033C159.738 109.089 159.556 109.099 159.383 109.094C157.251 109.058 155.186 108.692 153.242 107.797C152.77 107.583 152.344 107.273 151.923 106.942C153.973 108.077 156.211 108.417 158.495 108.595Z" fill="#FFDEDD"></path> <path d="M222.207 135.078C221.923 135.027 221.609 135.038 221.355 134.921C220.117 134.351 218.878 133.771 217.67 133.14C216.874 132.723 216.102 132.235 215.361 131.721C214.874 131.381 214.453 130.938 214.037 130.485C216.767 131.965 219.502 133.446 222.233 134.926C222.228 134.977 222.218 135.027 222.207 135.078Z" fill="#FFDEDD"></path> <path d="M129.689 67.7522C129.526 67.7217 129.349 67.7268 129.206 67.6607C128.552 67.3453 127.831 67.1012 127.278 66.6587C125.466 65.2091 123.756 63.6425 122.32 61.8064C122.137 61.5724 121.995 61.3079 121.837 61.0587C121.878 61.018 121.919 60.9773 121.959 60.9315C122.142 61.0943 122.335 61.2469 122.507 61.4147C124.086 62.9559 125.634 64.5224 127.247 66.028C127.77 66.5162 128.455 66.8367 129.064 67.2334C129.283 67.3758 129.511 67.5132 129.734 67.6505C129.719 67.6861 129.704 67.7217 129.689 67.7522Z" fill="#FFDEDD"></path> <path d="M151.542 112.71C149.421 111.362 147.614 109.587 145.082 108.798C145.686 108.615 146.142 108.747 146.548 108.971C147.365 109.429 148.157 109.922 148.949 110.421C149.654 110.873 150.339 111.357 151.07 111.794C150.334 110.278 149.066 109.241 147.817 108.183C148.974 108.178 151.689 111.433 151.542 112.71Z" fill="#FFDEDD"></path> <path d="M151.014 105.273C150.725 105.243 150.44 105.207 150.151 105.187C147.436 104.999 144.787 104.434 142.168 103.737C141.833 103.651 141.513 103.498 141.204 103.351C141.133 103.32 141.118 103.173 141.077 103.076C141.163 103.066 141.255 103.03 141.341 103.046C144.127 103.646 146.913 104.246 149.699 104.846C150.146 104.943 150.593 105.019 151.039 105.105C151.029 105.167 151.019 105.222 151.014 105.273Z" fill="#FFDEDD"></path> <path d="M217.473 126.423C216.915 126.219 216.346 126.041 215.803 125.807C214.306 125.156 212.814 124.495 211.332 123.808C211.104 123.702 210.951 123.447 210.758 123.259C211.017 123.264 211.307 123.188 211.525 123.284C213.205 124.027 214.879 124.79 216.544 125.568C216.904 125.736 217.224 126.006 217.564 126.229C217.529 126.29 217.503 126.357 217.473 126.423Z" fill="#FFDEDD"></path> <path d="M118.285 88.1884C118.721 88.3104 119.173 88.402 119.599 88.5596C122.05 89.4599 124.507 90.35 126.938 91.2961C127.389 91.469 127.76 91.8708 128.146 92.1862C128.217 92.2421 128.201 92.41 128.222 92.527C128.11 92.4964 127.968 92.4964 127.892 92.4252C126.912 91.5351 125.689 91.1231 124.491 90.6705C122.568 89.9329 120.629 89.2361 118.701 88.519C118.543 88.4579 118.391 88.3867 118.234 88.3155C118.254 88.2799 118.269 88.2341 118.285 88.1884Z" fill="#FFDEDD"></path> <path d="M148.624 107.781C148.888 107.862 149.172 107.903 149.411 108.03C150.405 108.559 151.375 109.124 152.369 109.642C152.912 109.927 153.486 110.166 154.059 110.37C154.293 110.451 154.577 110.385 154.841 110.385C154.856 110.344 154.871 110.304 154.887 110.263C154.339 109.851 153.77 109.459 153.242 109.017C152.72 108.579 152.237 108.091 151.735 107.623C151.771 107.582 151.801 107.542 151.837 107.501C151.948 107.572 152.07 107.628 152.171 107.71C153.115 108.457 154.059 109.205 154.998 109.963C155.135 110.075 155.227 110.248 155.333 110.395C155.156 110.507 154.988 110.68 154.79 110.721C154.146 110.858 153.521 110.705 152.958 110.395C152.309 110.034 151.679 109.627 151.035 109.256C150.228 108.788 149.416 108.335 148.604 107.877C148.619 107.842 148.619 107.811 148.624 107.781Z" fill="#FFDEDD"></path> <path d="M111.093 44.0146C111.677 44.0146 111.895 44.2842 112.048 44.6301C112.788 46.3594 111.794 48.4244 109.967 48.9025C109.561 49.0093 109.348 49.1212 109.398 49.6146C109.459 50.1995 109.261 50.4233 108.683 50.6319C109.195 49.7214 109.023 48.8669 108.591 48.0328C108.49 47.8395 108.317 47.6869 108.196 47.5038C108.145 47.4224 108.135 47.3105 108.109 47.2139C108.221 47.219 108.393 47.1834 108.434 47.2393C108.713 47.636 109.013 48.0277 109.216 48.4651C109.434 48.9381 109.454 48.989 109.916 48.7347C110.769 48.2616 111.54 47.6716 111.814 46.7002C112.073 45.7643 112.078 44.8132 111.093 44.0146Z" fill="#FFDEDD"></path> <path d="M181.049 102.14C181.094 102.171 181.14 102.196 181.191 102.227C181.881 102.603 182.571 102.995 183.271 103.356C183.972 103.722 184.692 104.063 185.398 104.516C185.134 104.495 184.85 104.531 184.606 104.45C183.403 104.048 182.211 103.61 181.018 103.188C180.774 103.061 180.536 102.934 180.292 102.807C180.089 102.603 179.886 102.405 179.678 102.201C179.704 102.171 179.734 102.135 179.759 102.105C180.318 102.374 180.876 102.644 181.434 102.913C181.449 102.883 181.465 102.852 181.48 102.817C181.054 102.527 180.632 102.237 180.206 101.947C180.231 101.906 180.257 101.871 180.277 101.83C180.536 101.942 180.795 102.039 181.049 102.14Z" fill="#FFDEDD"></path> <path d="M190.64 107.806C191.265 107.679 198.395 112.033 199.638 113.183C199.613 113.223 199.593 113.259 199.567 113.3C196.593 111.474 193.614 109.637 190.64 107.806Z" fill="#FFDEDD"></path> <path d="M119.477 42.9865C119.828 43.3934 119.833 43.7749 119.604 44.1564C119.351 44.5785 118.95 44.7922 118.462 44.8278C116.849 44.9448 115.321 44.5836 113.829 44.0038C113.743 43.9682 113.631 43.9275 113.59 43.8563C113.524 43.7495 113.509 43.6121 113.469 43.4901C113.585 43.4952 113.712 43.4646 113.809 43.5053C115.148 44.0852 116.554 44.3446 118.011 44.3649C118.138 44.3649 118.264 44.3649 118.391 44.3497C118.945 44.2784 119.269 43.9682 119.381 43.4138C119.411 43.2917 119.437 43.1747 119.477 42.9865Z" fill="#FFDEDD"></path> <path d="M131.323 80.0458C131.424 80.0306 131.531 79.9899 131.627 80.0052C133.688 80.2798 135.261 81.3073 136.342 83.0874C136.398 83.179 136.474 83.296 136.464 83.3926C136.449 83.5808 136.378 83.7639 136.332 83.947C136.236 83.8199 136.119 83.708 136.048 83.5656C135.439 82.3805 134.515 81.5158 133.322 80.9563C132.866 80.7427 132.368 80.6155 131.896 80.4375C131.688 80.3561 131.49 80.2442 131.292 80.1425C131.303 80.112 131.313 80.0814 131.323 80.0458Z" fill="#FFDEDD"></path> <path d="M180.551 97.8016C176.516 98.4272 172.604 98.2136 168.746 97.8016C172.598 97.8016 176.506 97.8016 180.551 97.8016Z" fill="#FFDEDD"></path> <path d="M116.199 50.4129C116.174 50.5706 116.138 50.886 116.072 51.1963C116.047 51.3082 115.96 51.3997 115.899 51.5014C115.859 51.3946 115.793 51.2929 115.783 51.1861C115.747 50.6317 115.757 50.0722 115.686 49.5229C115.529 48.236 115.011 47.0814 114.372 45.9676C114.245 45.7488 114.133 45.52 114.057 45.2809C114.032 45.2097 114.133 45.0927 114.174 44.9961C114.25 45.047 114.352 45.0775 114.397 45.1436C115.377 46.7152 116.158 48.353 116.199 50.4129Z" fill="#FFDEDD"></path> <path d="M135.134 77.5021C135.317 77.5276 135.505 77.5276 135.677 77.5784C136.971 77.9701 137.86 78.8347 138.403 80.0453C138.738 80.7929 138.458 81.3779 137.702 81.7034C137.606 81.7492 137.474 81.7186 137.357 81.7237C137.393 81.6118 137.398 81.4796 137.469 81.3982C138.113 80.6505 138.164 80.2436 137.474 79.501C136.977 78.9619 136.347 78.5448 135.764 78.0921C135.55 77.9243 135.302 77.8073 135.068 77.67C135.089 77.614 135.109 77.5581 135.134 77.5021Z" fill="#FFDEDD"></path> <path d="M55.6584 23.6479C56.7191 23.4953 57.6631 23.2359 58.0336 22.0254C58.2975 22.59 58.13 23.0528 57.5007 23.4394C57.2469 23.597 57.2215 23.6784 57.3129 23.9938C57.5666 24.8737 57.3789 25.6773 56.6735 26.3436C56.0289 26.9438 55.3184 27.1422 54.4911 26.9387C54.481 26.898 54.4708 26.8523 54.4607 26.8116C54.684 26.776 54.9124 26.7404 55.1357 26.6997C56.2979 26.4911 57.1251 25.4586 57.0135 24.3752C56.9729 23.9938 56.8409 23.7547 56.3943 23.7751C56.1558 23.7903 55.9071 23.6937 55.6584 23.6479Z" fill="#FFDEDD"></path> <path d="M81.8559 81.0218C83.1552 80.6505 84.2108 79.9587 85.0177 78.8753C85.8196 77.7971 86.3169 76.6425 86.053 75.2386C86.1088 75.2336 86.1698 75.2285 86.2256 75.2234C86.2966 75.376 86.4184 75.5286 86.4235 75.6812C86.4286 76.1695 86.4946 76.6933 86.3474 77.1409C85.8247 78.7736 84.8401 80.0706 83.282 80.8488C82.876 81.0523 82.3939 81.1133 81.9473 81.2405C81.9168 81.1642 81.8864 81.093 81.8559 81.0218Z" fill="#FFDEDD"></path> <path d="M120.803 45.7636C121.472 46.1502 122.076 46.6435 122.508 47.2844C122.838 47.7727 123.056 48.3525 123.244 48.9171C123.436 49.4969 123.421 50.1073 122.899 50.5396C122.355 50.9872 121.823 50.6159 121.295 50.4684C121.295 50.4277 121.295 50.387 121.295 50.3463C121.498 50.3616 121.701 50.3718 121.904 50.387C122.594 50.4277 122.954 50.0717 122.863 49.3952C122.756 48.5916 122.462 47.8591 121.899 47.264C121.604 46.9538 121.285 46.669 120.99 46.3587C120.858 46.2214 120.767 46.0485 120.66 45.8908C120.706 45.845 120.757 45.8043 120.803 45.7636Z" fill="#FFDEDD"></path> <path d="M75.4816 69.8786C78.0141 69.4004 80.577 67.4117 80.5617 64.3752C80.6074 64.4871 80.7089 64.6041 80.6988 64.7109C80.643 65.2908 80.6785 65.9062 80.4755 66.4351C79.8715 68.0119 78.6992 69.0902 77.1513 69.7158C76.6387 69.9192 76.05 69.9243 75.4917 70.021C75.4917 69.965 75.4867 69.9243 75.4816 69.8786Z" fill="#FFDEDD"></path> <path d="M126.938 67.8225C123.959 66.7391 122.061 64.2621 119.726 62.3496C119.757 62.2988 119.787 62.253 119.818 62.2021C119.97 62.2937 120.143 62.37 120.274 62.487C121.127 63.2245 121.99 63.9467 122.817 64.7097C123.974 65.7829 125.187 66.7696 126.552 67.558C126.689 67.6393 126.811 67.736 126.938 67.8225Z" fill="#FFDEDD"></path> <path d="M126.669 51.0741C127.136 51.0029 127.573 50.9622 127.994 50.8707C128.907 50.6672 129.263 50.1128 129.09 49.2024C128.963 48.5462 128.704 47.9715 128.187 47.5188C128.08 47.4273 128.065 47.2391 128.004 47.0967C128.156 47.1374 128.339 47.1323 128.456 47.2187C129.268 47.8291 129.587 48.709 129.577 49.6754C129.572 50.0467 129.354 50.4739 129.11 50.7689C128.593 51.3793 127.451 51.4963 126.669 51.0741Z" fill="#FFDEDD"></path> <path d="M145.929 58.5361C146.381 58.5616 151.222 62.3712 151.613 62.9815C151.146 62.9663 146.502 59.355 145.929 58.5361Z" fill="#FFDEDD"></path> <path d="M64.433 35.3467C64.433 35.6061 64.4432 35.8655 64.433 36.1198C64.3772 37.1167 63.3419 38.49 62.3979 38.8206C61.393 39.1766 60.718 38.9427 60.1649 38.0475C60.0075 37.7932 59.8858 37.5236 59.7437 37.2591C59.7792 37.2337 59.8147 37.2082 59.8502 37.1828C59.9923 37.3863 60.1344 37.5897 60.2765 37.7932C61.0023 38.7901 61.9868 38.9122 62.9308 38.0984C63.7022 37.4321 64.2503 36.6335 64.2605 35.5603C64.2605 35.4891 64.2808 35.4179 64.296 35.3467C64.3467 35.3518 64.3873 35.3518 64.433 35.3467Z" fill="#FFDEDD"></path> <path d="M59.7693 29.5238C59.9672 29.4932 60.0941 29.4526 60.2261 29.4526C60.8554 29.4526 61.3223 29.183 61.6217 28.6286C61.8247 28.2522 62.0226 27.8707 62.2053 27.4842C62.3068 27.2756 62.3779 27.1841 62.6672 27.1129C63.3523 26.945 64.0577 26.6653 64.2912 25.7803C64.4688 26.1261 64.3927 26.3804 64.1592 26.5381C63.7431 26.8179 63.2863 27.0417 62.86 27.3112C62.7331 27.3875 62.6265 27.5147 62.5504 27.6418C62.2002 28.2217 61.9211 28.8524 61.5151 29.3813C61.1396 29.8696 60.3631 29.9001 59.7693 29.5238Z" fill="#FFDEDD"></path> <path d="M117.23 92.4971C119.295 93.5296 121.234 94.8622 123.589 95.2335C123.584 95.2894 123.579 95.3454 123.573 95.3962C123.376 95.3962 123.167 95.442 122.99 95.3861C122.223 95.147 121.432 94.9385 120.706 94.6028C119.686 94.1297 118.717 93.5601 117.732 93.0209C117.529 92.909 117.356 92.7463 117.169 92.609C117.184 92.5733 117.209 92.5327 117.23 92.4971Z" fill="#FFDEDD"></path> <path d="M124.791 97.0535C124.994 97.1095 125.202 97.1654 125.405 97.2214C126.989 97.6639 128.577 98.1115 130.166 98.5336C130.45 98.6099 130.764 98.5794 131.064 98.6252C131.191 98.6405 131.307 98.7167 131.429 98.7625C131.313 98.8083 131.186 98.9049 131.079 98.8897C129.912 98.6811 128.739 98.498 127.593 98.2132C126.72 97.9945 125.882 97.6384 125.03 97.3333C124.933 97.2977 124.847 97.2366 124.756 97.1858C124.766 97.1451 124.781 97.0993 124.791 97.0535Z" fill="#FFDEDD"></path> <path d="M63.4131 62.4524C63.7988 62.6355 64.1642 62.8745 64.5702 62.9864C64.9103 63.083 65.296 63.0932 65.6461 63.0322C66.1993 62.9304 66.4988 62.4472 66.4683 61.8623C66.4582 61.6792 66.4226 61.4961 66.3972 61.2978C66.8692 61.491 67.0113 62.0353 66.7677 62.5948C66.4683 63.2916 65.7121 63.6323 64.7986 63.4798C64.1642 63.3679 63.7227 62.9915 63.4131 62.4524Z" fill="#FFDEDD"></path> <path d="M78.3945 37.7124C78.6381 37.6463 78.7904 37.6158 78.9274 37.5598C79.1304 37.4784 79.374 37.4276 79.5263 37.2852C80.5108 36.3289 81.267 35.2608 81.1249 33.7858C81.1148 33.6943 81.1604 33.5976 81.1757 33.501C81.2569 33.5773 81.3939 33.6485 81.4041 33.7298C81.4345 34.0757 81.4903 34.4368 81.4243 34.7725C81.1909 35.917 80.587 36.8579 79.6938 37.5954C79.3537 37.8752 78.9376 37.9616 78.3945 37.7124Z" fill="#FFDEDD"></path> <path d="M121.229 44.7202C121.376 44.71 121.538 44.6643 121.675 44.6999C122.152 44.8219 122.609 45.0203 123.091 45.1017C123.776 45.2136 124.472 45.239 125.162 45.3102C125.258 45.3204 125.355 45.3763 125.446 45.4069C125.375 45.4984 125.314 45.651 125.228 45.6714C124.938 45.7324 124.619 45.8189 124.345 45.7578C123.406 45.5595 122.472 45.3102 121.543 45.0661C121.421 45.0356 121.32 44.9287 121.203 44.8575C121.213 44.8118 121.218 44.766 121.229 44.7202Z" fill="#FFDEDD"></path> <path d="M148.222 106.936C147.776 106.987 147.314 107.135 146.893 107.063C145.944 106.906 145.01 106.641 144.076 106.402C143.97 106.377 143.899 106.214 143.812 106.117C143.929 106.092 144.061 106.016 144.157 106.051C145.472 106.499 146.822 106.718 148.212 106.707C148.217 106.784 148.217 106.86 148.222 106.936Z" fill="#FFDEDD"></path> <path d="M64.5649 54.3503C65.311 54.8742 66.0773 55.0725 66.8386 54.4622C67.4679 53.9535 68.0262 53.3686 68.219 52.4785C68.2545 52.6057 68.3205 52.7379 68.3154 52.8651C68.2444 53.9281 66.803 55.2098 65.7474 55.1539C65.2095 55.1234 64.8187 54.8538 64.5649 54.3503Z" fill="#FFDEDD"></path> <path d="M67.5642 37.4531C67.4881 38.4144 66.9197 39.1977 66.2751 39.3249C65.3515 39.5131 64.5648 39.1062 64.1487 38.1296C64.2756 38.2059 64.4227 38.2618 64.5293 38.3636C65.4733 39.2791 66.4122 39.1875 67.1278 38.1093C67.2597 37.9211 67.3866 37.7329 67.5642 37.4531Z" fill="#FFDEDD"></path> <path d="M76.1616 29.7871C76.5981 30.3619 76.2885 31.2113 75.4003 31.9996C74.5325 32.7677 73.4008 32.9966 72.8628 32.4523C74.6847 32.4625 75.8723 31.7046 76.1616 29.7871Z" fill="#FFDEDD"></path> <path d="M62.5301 29.7014C63.0935 30.3371 62.9514 31.0899 62.8093 31.8071C62.5758 32.9871 61.7333 33.9535 60.8706 33.9992C62.4134 32.8955 62.8346 31.4409 62.5301 29.7014Z" fill="#FFDEDD"></path> <path d="M65.6407 40.9168C65.661 41.1914 65.7067 41.4203 65.6915 41.6441C65.6103 42.6766 65.0825 43.4752 64.2705 44.0601C63.6919 44.4772 63.0169 44.3195 62.7073 43.7447C62.8545 43.7854 62.9662 43.8109 63.0778 43.8414C63.631 43.9889 64.1131 43.8821 64.4887 43.4243C64.9911 42.8038 65.4428 42.1578 65.4682 41.3135C65.4733 41.2169 65.4936 41.1253 65.5139 41.0338C65.524 41.0083 65.5545 40.9931 65.6407 40.9168Z" fill="#FFDEDD"></path> <path d="M57.6479 32.2447C57.7089 32.1989 57.7697 32.148 57.8306 32.1124C58.7645 31.5529 59.0233 30.9222 58.7898 29.8389C58.7645 29.727 58.8304 29.5947 58.8558 29.4727C58.9776 29.5439 59.1603 29.5795 59.2111 29.6863C59.5968 30.4594 59.1958 31.8276 58.46 32.2192C58.2316 32.3413 57.9524 32.3617 57.6987 32.4278C57.6835 32.3617 57.6632 32.3057 57.6479 32.2447Z" fill="#FFDEDD"></path> <path d="M70.0156 32.8552C71.3351 32.7179 71.802 32.1788 71.8173 30.78C71.8173 30.5715 71.8122 30.363 71.8325 30.1595C71.8427 30.0883 71.934 30.0222 71.9848 29.9561C72.0457 30.0171 72.137 30.0679 72.1624 30.1392C72.4517 31.0242 72 32.3975 71.2438 32.9417C70.7921 33.2723 70.3201 33.2418 70.0156 32.8552Z" fill="#FFDEDD"></path> <path d="M75.1515 57.2794C75.4256 57.8237 74.9028 58.8104 74.0604 59.3699C73.1062 60.0057 71.7157 59.7514 70.8631 58.7341C71.6903 59.1512 72.5074 59.7107 73.4767 59.3241C74.3852 58.963 74.9079 58.2306 75.1515 57.2794Z" fill="#FFDEDD"></path> <path d="M58.0288 28.4508C58.3942 28.227 58.6632 28.0643 58.9271 27.8913C59.734 27.3674 59.8913 26.5587 59.5665 25.6279C59.5259 25.516 59.5513 25.3838 59.5463 25.2617C59.6731 25.3278 59.8609 25.3685 59.9116 25.4703C60.2161 26.1416 60.2365 26.8283 59.8761 27.4844C59.531 28.1049 58.8256 28.4762 58.0288 28.4508Z" fill="#FFDEDD"></path> <path d="M80.3535 27.4326C80.6479 28.7143 79.8511 29.5535 78.7397 29.2483C78.354 29.1415 78.0038 28.8974 77.6485 28.6939C77.5825 28.6533 77.5724 28.5108 77.542 28.4091C77.6384 28.4193 77.7399 28.4142 77.8262 28.4447C78.2068 28.5871 78.5773 28.7753 78.9681 28.8821C79.4299 29.0093 79.7598 28.8109 79.9374 28.3532C80.049 28.0785 80.1861 27.8089 80.3535 27.4326Z" fill="#FFDEDD"></path> <path d="M64.2202 28.8873C64.5653 28.4295 65.4027 28.3431 65.1388 27.4377C65.8138 26.9189 66.5446 26.3137 65.9965 25.1794C66.3111 25.0828 66.4228 25.2557 66.4634 25.5253C66.5649 26.1916 66.4279 26.7765 65.895 27.2444C65.7478 27.3767 65.6463 27.5954 65.5955 27.7887C65.4433 28.4092 64.8191 28.9433 64.2202 28.8873Z" fill="#FFDEDD"></path> <path d="M64.626 22.9469C64.6412 23.1656 64.6565 23.3843 64.6717 23.6081C65.5446 23.3233 65.5903 21.6652 65.3518 20.4902C65.438 20.6021 65.6004 20.7089 65.6055 20.8259C65.636 21.5024 65.6512 22.1789 65.6309 22.8554C65.6258 23.0232 65.4989 23.2521 65.3619 23.3385C64.7884 23.6997 64.4179 24.2439 64.0068 24.7576C63.885 24.9051 63.6973 24.9967 63.4841 25.073C64.0475 24.4575 64.6159 23.8624 64.5042 22.9266C64.5448 22.9316 64.5854 22.9418 64.626 22.9469Z" fill="#FFDEDD"></path> <path d="M73.2283 24.656C73.5836 24.5034 73.7713 24.6051 73.9033 24.8798C74.2484 25.6071 73.9845 26.9652 73.3602 27.4636C73.1268 27.6467 72.8274 27.7433 72.528 27.8959C72.9137 27.3415 73.3907 26.8889 73.5531 26.3446C73.7003 25.8309 73.8576 25.1544 73.2283 24.656Z" fill="#FFDEDD"></path> <path d="M72.7415 5.75081C72.8075 5.80676 72.8887 5.83219 72.8988 5.87797C73.0003 6.41202 73.518 6.50356 73.8377 6.80365C74.2488 7.18512 74.6497 7.60729 74.9238 8.0854C75.2029 8.57877 74.9492 8.87885 74.396 8.87377C74.4924 8.70083 74.6751 8.51774 74.665 8.33972C74.6548 8.12609 74.5279 7.87687 74.3757 7.70902C74.0559 7.36316 73.7007 7.04272 73.3252 6.7528C73.2135 6.66634 72.9851 6.70702 72.8126 6.7172C72.4573 6.73754 72.1021 6.77314 71.7417 6.73245C73.1628 6.56461 72.8532 6.38151 72.7415 5.75081Z" fill="#FFDEDD"></path> <path d="M72.9949 37.8396C74.3702 38.8009 75.8522 38.2058 76.4003 36.5375C76.4459 36.3951 76.4916 36.2526 76.5525 36.0645C76.8063 36.8528 75.9029 38.1702 74.9183 38.5516C74.1215 38.8517 73.208 38.6228 72.9949 37.8396Z" fill="#FFDEDD"></path> <path d="M69.4778 36.6132C69.7468 36.6336 70.0157 36.6488 70.2847 36.6844C70.5486 36.72 70.8125 36.7862 71.0764 36.8269C71.5992 36.9032 72.0458 36.7913 72.3655 36.3284C72.4569 36.1962 72.6142 36.1097 72.7868 35.9571C72.6548 36.8065 72.1524 37.305 71.4063 37.2439C70.7466 37.188 70.097 36.9896 69.4473 36.8523C69.4575 36.7709 69.4676 36.6895 69.4778 36.6132Z" fill="#FFDEDD"></path> <path d="M65.7478 35.703C66.0066 35.642 66.1792 35.6217 66.3264 35.5606C66.7425 35.3826 67.1739 35.23 67.5444 34.9757C67.7322 34.8485 67.7931 34.5281 67.9149 34.3043C67.9656 34.2128 68.0418 34.1314 68.1077 34.0449C68.1788 34.1365 68.2701 34.2229 68.3209 34.3247C68.3462 34.3857 68.3107 34.4773 68.2955 34.5535C68.1585 35.286 66.7324 36.288 65.7478 35.703Z" fill="#FFDEDD"></path> <path d="M82.744 37.128C84.4848 38.0994 85.987 37.6976 87.3573 36.4006C87.271 36.9296 86.5199 37.5145 85.5911 37.7587C84.5457 38.0384 83.5713 37.9011 82.744 37.128Z" fill="#FFDEDD"></path> <path d="M73.8575 6.06068C74.233 6.06068 74.5984 6.11155 74.9486 6.04543C75.2683 5.98439 75.7099 5.87758 75.8266 5.6487C75.9484 5.41473 75.7403 5.00783 75.6693 4.63654C75.8875 4.65688 76.1006 4.8349 76.2224 5.14007C76.3848 5.54189 76.2478 5.95388 75.8926 6.18276C75.3648 6.51846 74.3853 6.45741 73.8575 6.06068Z" fill="#FFDEDD"></path> <path d="M216.183 131.056C217.401 131.488 218.589 131.91 219.71 132.307C219.111 132.637 216.665 131.854 216.183 131.056Z" fill="#FFDEDD"></path> <path d="M66.6101 24.7562C67.2851 24.212 67.28 23.5101 67.1379 22.7879C67.1126 22.6556 67.0263 22.5335 66.9603 22.4115C66.9197 22.3301 66.8588 22.264 66.808 22.1877C66.9248 22.1572 67.0618 22.0758 67.1481 22.1114C67.2648 22.1572 67.4171 22.2945 67.4272 22.4013C67.4729 23.0066 67.5439 23.622 67.4678 24.2171C67.4323 24.4714 67.0517 24.68 66.8233 24.9139C66.7522 24.8631 66.6812 24.8122 66.6101 24.7562Z" fill="#FFDEDD"></path> <path d="M100.776 35.1797C100.502 36.5428 99.7053 37.6364 98.9745 38.7604C98.9339 38.7503 98.8883 38.7401 98.8477 38.7299C98.8781 38.5519 98.8578 38.3484 98.9441 38.2009C99.477 37.2447 100.03 36.3038 100.583 35.3577C100.624 35.2865 100.72 35.2458 100.791 35.1949L100.776 35.1797Z" fill="#FFDEDD"></path> <path d="M68.5796 29.6455C68.9653 29.442 69.483 29.2996 69.8078 28.969C70.1326 28.6384 70.2595 28.1247 70.4727 27.6974C70.7569 27.9517 70.7163 28.3586 70.3001 28.9842C69.7977 29.7472 69.1988 29.9506 68.5796 29.6455Z" fill="#FFDEDD"></path> <path d="M140.549 96.7229C139.839 96.667 139.128 96.611 138.418 96.55C138.103 96.5195 137.788 96.4839 137.484 96.4279C137.413 96.4127 137.357 96.3059 137.296 96.2397C137.372 96.199 137.448 96.1177 137.519 96.1278C138.504 96.2499 139.488 96.3872 140.473 96.5246C140.508 96.5297 140.534 96.5805 140.569 96.6059C140.559 96.6415 140.554 96.6823 140.549 96.7229Z" fill="#FFDEDD"></path> <path d="M76.3645 8.4514C76.4051 8.42597 76.4406 8.39545 76.4812 8.38019C77.4252 8.03432 77.5673 7.41889 76.8872 6.66612C76.806 6.57457 76.7603 6.44742 76.6994 6.34061C76.8517 6.3813 77.0445 6.3762 77.146 6.47284C77.5267 6.83905 77.75 7.32225 77.6637 7.84105C77.6231 8.07501 77.349 8.32424 77.1207 8.45648C76.9227 8.56838 76.6334 8.52261 76.3848 8.54804C76.3746 8.51244 76.3695 8.48192 76.3645 8.4514Z" fill="#FFDEDD"></path> <path d="M55.7395 32.1783C55.7852 32.0613 55.7902 32.0054 55.8207 31.9799C56.5515 31.4001 56.7647 30.627 56.6733 29.7318C56.6683 29.6606 56.719 29.5792 56.7444 29.5029C56.8154 29.5538 56.9169 29.5894 56.9525 29.6606C57.3077 30.3574 56.6987 31.8935 55.9679 32.1732C55.9171 32.1936 55.8562 32.1783 55.7395 32.1783Z" fill="#FFDEDD"></path> <path d="M68.3258 43.1544C70.0056 42.6508 70.8075 41.6488 71.0054 39.8025C71.5231 41.186 69.7975 43.3527 68.3258 43.1544Z" fill="#FFDEDD"></path> <path d="M57.607 19.503C57.8354 20.0015 57.5055 20.3423 57.196 20.6627C56.5971 21.2781 55.8155 21.4816 55.308 21.212C55.7445 21.0594 56.2825 20.9831 56.6732 20.7034C57.0539 20.4338 57.2822 19.9455 57.607 19.503Z" fill="#FFDEDD"></path> <path d="M84.5969 9.81934C84.8151 10.3178 84.7593 10.7501 84.3634 11.096C83.8103 11.5792 83.1962 11.5385 82.4197 11.2587C83.4448 11.0807 84.5867 11.2638 84.5969 9.81934Z" fill="#FFDEDD"></path> <path d="M91.2957 45.1328C91.7779 46.5621 90.7578 47.8641 89.2505 47.6912C90.6817 47.4165 91.4378 46.6282 91.2957 45.1328Z" fill="#FFDEDD"></path> <path d="M84.5099 32.2648C84.3577 32.7632 83.9466 32.9005 83.5355 32.9412C82.9113 32.9972 82.2363 33.1752 81.7389 32.5343C82.6981 32.8039 83.6218 32.8497 84.5099 32.2648Z" fill="#FFDEDD"></path> <path d="M72.9646 20.5008C73.325 20.8823 73.3148 21.1518 73.1067 21.4163C72.7565 21.8639 72.0714 21.9453 71.3609 21.5944C72.0156 21.396 72.8733 21.5994 72.9646 20.5008Z" fill="#FFDEDD"></path> <path d="M65.6255 32.3106C65.8589 32.1275 66.0163 32.0257 66.1431 31.8986C66.4578 31.5883 66.9349 31.395 66.9146 30.8355C66.9146 30.7898 67.0161 30.7084 67.0719 30.7033C67.1328 30.7033 67.2089 30.7643 67.2495 30.8203C67.2799 30.8661 67.285 30.9424 67.2799 31.0034C67.2749 31.5324 66.3157 32.3614 65.6255 32.3106Z" fill="#FFDEDD"></path> <path d="M92.2549 43.6031C93.5744 43.5166 94.8279 43.1962 95.9648 42.4892C95.4217 43.242 93.4424 43.8523 92.2549 43.6031Z" fill="#FFDEDD"></path> <path d="M70.2744 20.5363C70.7769 20.6788 70.7616 21.0552 70.7718 21.401C70.8073 22.286 70.447 22.7896 69.5132 23.0795C70.4064 22.4335 70.7921 21.635 70.2744 20.5363Z" fill="#FFDEDD"></path> <path d="M59.3628 21.7055C59.8906 21.3444 60.4235 20.9781 60.9817 20.5967C61.1543 20.8154 60.9564 21.0443 60.7787 21.2477C60.3473 21.7563 59.8348 21.8988 59.3628 21.7055Z" fill="#FFDEDD"></path> <path d="M80.2879 8.8623C80.7345 8.94368 81.1202 9.62016 80.9984 10.1796C80.9071 10.6018 80.5417 10.7798 80.0088 10.6323C80.2219 10.3526 80.8056 10.3627 80.6483 9.84395C80.5518 9.50317 80.4097 9.17765 80.2879 8.8623Z" fill="#FFDEDD"></path> <path d="M84.2414 140.807C84.5307 141.519 84.8606 142.175 85.8299 142.241C85.4188 142.577 85.1194 142.485 84.8403 142.282C84.3277 141.915 84.0536 141.31 84.2414 140.807Z" fill="#FFDEDD"></path> <path d="M76.5781 11.5946C77.106 10.7197 76.8319 9.98222 76.2939 9.25488C76.8979 9.48376 77.2633 10.1602 77.1922 10.8876C77.1618 11.2233 77.0704 11.5335 76.5781 11.5946Z" fill="#FFDEDD"></path> <path d="M76.7506 33.5469C76.4562 34.7167 75.3397 35.0321 74.416 34.1827C74.8626 34.2284 75.3448 34.3963 75.7558 34.2895C76.1314 34.1877 76.4359 33.7961 76.7506 33.5469Z" fill="#FFDEDD"></path> <path d="M61.7634 22.3674C62.7328 22.6726 63.0119 21.986 63.3367 21.3604C63.5194 21.7164 63.2809 22.342 62.9155 22.5861C62.5653 22.8252 62.1085 22.7642 61.7634 22.3674Z" fill="#FFDEDD"></path> <path d="M86.9717 140.643C86.6773 141.045 86.3474 141.02 86.0328 140.831C85.7029 140.638 85.4847 140.343 85.5507 139.926C85.5608 139.86 85.6725 139.789 85.7486 139.768C85.7841 139.758 85.8704 139.85 85.8958 139.916C86.1952 140.516 86.1901 140.516 86.9717 140.643Z" fill="#FFDEDD"></path> <path d="M85.1704 50.8299C85.7794 51.4758 85.6779 52.8288 84.9674 53.4696C85.2567 52.6101 85.5459 51.7505 85.1704 50.8299Z" fill="#FFDEDD"></path> <path d="M74.2283 20.415C74.68 20.6388 74.9388 21.946 74.5734 22.8208C74.4516 21.9613 74.3348 21.1576 74.2283 20.415Z" fill="#FFDEDD"></path> <path d="M79.3845 32.6922C80.4452 32.1226 80.8867 31.2579 80.6381 29.9863C81.3283 30.9273 80.5924 32.4328 79.3845 32.6922Z" fill="#FFDEDD"></path> <path d="M67.7422 21.5986C68.4375 21.3036 68.1685 20.5203 68.5288 20.0371C68.7166 20.444 68.5643 21.4358 68.2547 21.6596C68.1329 21.7461 67.935 21.7207 67.7726 21.741C67.7625 21.6952 67.7523 21.6495 67.7422 21.5986Z" fill="#FFDEDD"></path> <path d="M88.0321 139.89C87.6667 140.174 87.3571 140.129 87.0729 139.925C86.7531 139.696 86.5146 139.401 86.5806 138.969C86.5908 138.908 86.6618 138.847 86.7176 138.801C86.7278 138.791 86.8191 138.837 86.8242 138.867C86.9054 139.528 87.4078 139.742 88.0321 139.89Z" fill="#FFDEDD"></path> <path d="M62.4744 25.4041C62.9159 26.0755 62.114 27.2199 61.1396 27.3216C61.6826 26.7316 62.6266 26.4468 62.4744 25.4041Z" fill="#FFDEDD"></path> <path d="M58.5762 24.6609C59.1141 24.1523 59.6216 23.6691 60.1139 23.2012C60.1393 23.8268 59.3628 24.605 58.5762 24.6609Z" fill="#FFDEDD"></path> <path d="M93.5641 143.945C93.1987 144.291 92.8942 144.275 92.5999 144.143C92.1736 143.96 91.869 143.66 91.8589 143.126C92.2344 143.711 92.7775 143.97 93.5641 143.945Z" fill="#FFDEDD"></path> <path d="M65.8288 28.8057C66.1638 29.2787 65.905 29.6703 65.6817 30.0467C65.504 30.357 65.3213 30.713 64.7275 30.6469C65.3975 30.1332 65.8187 29.5889 65.8288 28.8057Z" fill="#FFDEDD"></path> <path d="M77.9431 25.459C78.1106 24.8894 77.8365 24.2231 78.3085 23.7246C78.344 24.335 78.4506 24.9606 77.9431 25.459Z" fill="#FFDEDD"></path> <path d="M91.2398 144.32C91.25 144.331 91.2652 144.341 91.2754 144.351C91.4632 144.605 91.6052 144.936 91.859 145.088C92.1178 145.246 92.4781 145.231 92.9349 145.312C92.5086 145.577 92.1635 145.577 91.8387 145.439C91.3464 145.231 91.2195 144.798 91.2551 144.3L91.2398 144.32Z" fill="#FFDEDD"></path> <path d="M92.9856 43.1441C93.7266 42.788 94.4624 42.4371 95.2034 42.0811C95.2288 42.1319 95.2491 42.1777 95.2745 42.2286C94.5386 42.5999 93.8078 42.9712 93.0719 43.3374C93.0465 43.2712 93.016 43.2051 92.9856 43.1441Z" fill="#FFDEDD"></path> <path d="M62.748 33.8419C63.7072 33.8623 64.0117 33.3384 63.895 32.4229C64.1945 32.7992 64.1843 33.2519 63.9204 33.5978C63.626 33.9792 63.2505 34.081 62.748 33.8419Z" fill="#FFDEDD"></path> <path d="M58.353 20.868C58.6372 20.5018 58.9468 20.0999 59.2615 19.7083C59.297 19.6625 59.3985 19.6676 59.4645 19.6523C59.4848 19.749 59.5457 19.8507 59.5254 19.9423C59.434 20.4305 58.8961 20.8171 58.353 20.868Z" fill="#FFDEDD"></path> <path d="M163.412 105.624C163.093 105.263 162.788 104.882 162.448 104.546C162.113 104.215 161.738 103.93 161.403 103.595C162.276 104.068 162.951 104.739 163.412 105.624Z" fill="#FFDEDD"></path> <path d="M103.623 130.466C103.45 130.354 103.222 130.283 103.12 130.125C102.872 129.739 102.796 129.306 102.989 128.854C103.222 129.352 103.085 130.013 103.735 130.298C103.699 130.354 103.658 130.41 103.623 130.466Z" fill="#FFDEDD"></path> <path d="M98.345 132.616C98.8474 132.86 99.3904 133.13 99.8929 133.374C99.4057 133.679 98.5124 133.252 98.345 132.616Z" fill="#FFDEDD"></path> <path d="M80.8865 7.92245C81.4549 7.76986 82.1096 7.7902 82.4141 7.07812C82.546 7.77494 81.7086 8.22762 80.8865 7.92245Z" fill="#FFDEDD"></path> <path d="M55.5066 28.8172C56.212 28.568 56.8464 28.2679 56.8769 27.332C57.1966 28.1102 56.4506 28.8884 55.5066 28.8172Z" fill="#FFDEDD"></path> <path d="M69.3308 25.9675C69.7114 25.5708 70.4473 25.5555 70.427 24.7773C70.4778 24.7875 70.5285 24.8028 70.5793 24.8129C70.5793 24.996 70.6503 25.2249 70.5641 25.347C70.2798 25.7742 69.8485 25.9828 69.3308 25.9675Z" fill="#FFDEDD"></path> <path d="M106.155 128.36C105.714 128.406 105.084 127.948 105.008 127.521C104.998 127.455 105.039 127.384 105.059 127.312C105.115 127.333 105.191 127.333 105.216 127.368C105.47 127.745 105.719 128.131 105.967 128.513C106.028 128.462 106.094 128.411 106.155 128.36Z" fill="#FFDEDD"></path> <path d="M97.7765 133.579C97.1725 133.212 96.7818 132.424 96.8883 131.783C97.1776 132.358 97.4974 133.004 97.7765 133.579Z" fill="#FFDEDD"></path> <path d="M61.8903 24.8388C61.5249 25.2712 60.6419 25.2559 60.1293 24.7422C60.718 24.7778 61.3371 24.8083 61.8903 24.8388Z" fill="#FFDEDD"></path> <path d="M78.3849 8.81738C78.8569 9.3311 78.9889 9.91601 78.7757 10.3229C78.7097 10.4501 78.5473 10.5314 78.3748 10.5925C78.8721 10.0381 78.527 9.48368 78.3849 8.81738Z" fill="#FFDEDD"></path> <path d="M54.491 23.0331C55.0188 22.677 55.5923 22.2905 56.0846 21.9599C55.9222 22.5601 55.1355 23.0992 54.491 23.0331Z" fill="#FFDEDD"></path> <path d="M55.41 24.2539C55.2526 24.8236 54.5167 25.2813 53.8621 25.1847C54.3645 24.8846 54.9075 24.5591 55.41 24.2539Z" fill="#FFDEDD"></path> <path d="M93.9956 135.048C94.295 135.317 94.7264 135.704 95.1121 136.05C94.6503 135.999 94.0058 135.333 93.9956 135.048Z" fill="#FFDEDD"></path> <path d="M99.01 131.066C99.1623 131.539 99.2892 131.946 99.4617 132.496C99.2486 132.307 99.0506 132.206 98.9643 132.043C98.807 131.738 98.7563 131.402 99.01 131.066Z" fill="#FFDEDD"></path> <path d="M100.228 129.911C100.593 130.405 100.964 130.898 101.329 131.391C100.751 131.056 100.37 130.572 100.228 129.911Z" fill="#FFDEDD"></path> <path d="M94.9697 132.922C94.7667 133.624 95.2488 133.934 95.7868 134.295C95.2336 134.29 94.9646 134.005 94.8073 133.639C94.7159 133.436 94.7667 133.171 94.7565 132.932C94.8225 132.932 94.8936 132.927 94.9697 132.922Z" fill="#FFDEDD"></path> <path d="M42.7066 13.0138C42.0063 12.6679 41.5546 12.0982 41.2805 11.376C41.7525 11.9202 42.2296 12.4695 42.7066 13.0138Z" fill="#FFDEDD"></path> <path d="M64.2302 16.751C62.9564 16.7459 62.2865 16.161 62.2915 15.0471C62.2966 13.9179 63.0376 13.2109 64.2099 13.2109C65.3011 13.2109 65.976 13.923 65.971 15.0623C65.9659 16.1152 65.3061 16.7561 64.2302 16.751ZM64.5094 16.6289C64.8646 16.3848 65.1691 16.2322 65.3874 15.9931C65.4736 15.8965 65.4432 15.5608 65.3417 15.454C65.2452 15.3472 64.9813 15.3675 64.7986 15.3879C64.6514 15.4031 64.5195 15.5354 64.3723 15.571C64.0881 15.632 63.8395 15.7744 63.9308 16.0643C63.9968 16.2678 64.2658 16.4 64.5094 16.6289ZM63.8597 13.9078C63.7481 13.8111 63.606 13.6128 63.4233 13.5568C63.1492 13.4754 62.7584 13.8366 62.8346 14.1265C62.8904 14.3401 63.1036 14.6351 63.2863 14.6656C63.6973 14.7317 63.7582 14.3503 63.8597 13.9078ZM63.7481 15.7592C63.4944 15.5964 63.3116 15.4031 63.2203 15.4387C63.068 15.4998 62.9006 15.6981 62.8752 15.8558C62.86 15.9626 63.1239 16.2322 63.1898 16.2118C63.3624 16.1559 63.4994 15.9779 63.7481 15.7592Z" fill="#FFDEDD"></path> <path d="M89.2302 124.509C88.6262 124.336 88.474 123.848 88.3978 123.354C88.3369 122.948 88.2811 122.5 88.8242 122.159C88.4943 123.08 88.8445 123.792 89.2302 124.509Z" fill="#FFDEDD"></path> <path d="M85.0125 127.099C85.1699 127.602 85.317 128.075 85.4591 128.553C85.4744 128.604 85.4439 128.711 85.4236 128.716C85.3576 128.726 85.2663 128.721 85.2105 128.686C84.8349 128.446 84.7232 127.511 85.0125 127.099Z" fill="#FFDEDD"></path> <path d="M87.4233 124.544C87.7177 124.885 88.0019 125.21 88.281 125.536C88.2658 125.566 88.2505 125.602 88.2404 125.632C88.0628 125.541 87.8598 125.485 87.7177 125.353C87.4893 125.144 87.3015 124.89 87.4233 124.544Z" fill="#FFDEDD"></path> <path d="M103.466 113.503C103.192 114.19 103.395 114.607 103.867 114.927C103.928 114.968 103.948 115.075 103.988 115.146C103.902 115.171 103.77 115.248 103.74 115.217C103.486 114.963 103.181 114.719 103.029 114.403C102.872 114.113 102.968 113.773 103.466 113.503Z" fill="#FFDEDD"></path> <path d="M104.333 113.071C104.476 113.514 104.618 113.931 104.745 114.358C104.765 114.434 104.745 114.541 104.704 114.607C104.684 114.638 104.552 114.623 104.491 114.592C104.039 114.373 103.963 113.356 104.333 113.071Z" fill="#FFDEDD"></path> <path d="M105.034 112.924C105.156 113.275 105.267 113.595 105.374 113.926C105.394 113.987 105.364 114.068 105.354 114.139C105.293 114.129 105.227 114.134 105.171 114.109C104.79 113.931 104.714 113.224 105.034 112.924Z" fill="#FFDEDD"></path> <path d="M89.6668 141.697C89.5602 141.727 89.4181 141.803 89.3826 141.768C89.0984 141.513 88.8345 141.244 88.5757 140.964C88.5452 140.934 88.5909 140.817 88.6264 140.75C88.6365 140.73 88.7533 140.745 88.7888 140.776C89.0578 141.02 89.3166 141.269 89.5754 141.518C89.611 141.554 89.6211 141.605 89.6668 141.697Z" fill="#FFDEDD"></path> <path d="M89.4585 139.702C89.8493 140.017 90.2147 140.307 90.5699 140.607C90.6055 140.638 90.6359 140.755 90.6207 140.76C90.5598 140.796 90.4837 140.836 90.4126 140.836C90.0574 140.821 89.4839 140.17 89.4585 139.702Z" fill="#FFDEDD"></path> <path d="M80.2468 134.148C79.7037 134.133 79.0084 133.512 78.9526 133.065C78.9425 132.968 78.9983 132.866 79.0288 132.77C79.11 132.826 79.1911 132.876 79.2673 132.937C79.587 133.202 79.9067 133.477 80.2265 133.741C80.328 133.822 80.4396 133.894 80.5411 133.97C80.4193 134.041 80.2924 134.117 80.2468 134.148Z" fill="#FFDEDD"></path> <path d="M116.884 118.634C116.986 118.451 117.051 118.334 117.117 118.217C117.189 118.257 117.326 118.324 117.32 118.334C117.128 118.792 117.483 119.066 117.661 119.402C117.711 119.493 117.706 119.616 117.727 119.722C117.63 119.687 117.488 119.677 117.442 119.605C117.239 119.29 117.067 118.954 116.884 118.634Z" fill="#FFDEDD"></path> </svg> 