<?xml version="1.0" encoding="UTF-8"?> <svg xmlns="http://www.w3.org/2000/svg" width="647" height="395" viewBox="0 0 647 395" fill="none"> <mask id="mask0_859_89106" style="mask-type:alpha" maskUnits="userSpaceOnUse" x="0" y="0" width="647" height="395"> <rect width="621.777" height="185.127" transform="matrix(0.934686 0.355474 0.355474 -0.934686 0 173.036)" fill="#D9D9D9"></rect> </mask> <g mask="url(#mask0_859_89106)"> <path d="M297.345 550.043C303.663 520.691 318.907 494.422 334.807 469.31C350.996 443.753 368.382 418.444 378.667 389.763C380.962 383.371 382.873 376.756 384.291 370.037C384.323 370.042 384.36 370.038 384.393 370.043C384.564 370.05 384.685 369.973 384.747 369.854C391.536 368.339 397.786 365.307 403.335 361.094C409.043 356.754 414.016 351.543 419.665 347.138C422.492 344.942 425.496 342.943 428.754 341.462C431.57 340.182 434.542 339.275 437.578 338.693C443.691 337.515 449.937 337.538 456.135 337.699C462.37 337.856 468.616 338.171 474.838 337.679C475.624 337.621 476.402 337.535 477.188 337.453C477.647 337.399 477.816 336.647 477.32 336.506C463.974 332.704 450.261 328.804 436.227 329.801C429.937 330.245 423.653 331.661 417.948 334.404C414.968 335.844 412.185 337.619 409.632 339.735C406.714 342.152 404.095 344.911 401.563 347.726C395.666 354.289 390.307 361.319 385.541 368.75C385.198 368.828 384.864 368.911 384.512 368.985C386.296 360.24 387.256 351.311 387.162 342.419C387.229 342.29 387.295 342.161 387.353 342.028C387.523 342.105 387.731 342.084 387.886 341.92C394.302 335.007 402.647 330.404 410.159 324.853C416.987 319.812 423.301 313.745 426.304 305.609C429.031 298.205 429.141 290.13 428.766 282.34C428.321 273.16 427.376 264.001 426.464 254.871C425.556 245.731 424.501 236.584 422.903 227.541C422.772 226.785 422.628 226.033 422.488 225.272C422.668 225.261 422.861 225.069 422.767 224.846C421.882 222.496 419.649 221.173 417.48 220.175C415.142 219.101 412.726 218.197 410.267 217.445C405.266 215.899 400.107 215.192 394.945 214.425C389.806 213.659 384.798 212.529 379.863 210.923C378.907 210.613 377.97 210.29 377.023 209.962C376.921 209.711 376.819 209.459 376.726 209.213C375.129 205.187 373.42 201.196 371.302 197.413C369.197 193.671 366.774 190.115 364.202 186.691C364.184 186.658 364.166 186.626 364.134 186.598C364.08 186.523 364.025 186.448 363.966 186.382C363.813 186.186 363.609 186.174 363.423 186.264C356.366 183.054 349.284 179.868 342.212 176.686C338.828 175.162 335.444 173.592 331.944 172.358C328.816 171.259 325.585 170.491 322.283 170.13C318.621 169.722 314.91 169.814 311.265 170.36C310.848 170.423 310.855 171.104 311.26 171.174C318.997 172.426 325.83 176.359 332.54 180.193C335.84 182.081 339.164 183.97 342.626 185.546C346.574 187.351 350.825 188.461 354.62 190.606C358.941 193.037 362.637 196.403 366.288 199.721C366.365 199.797 366.448 199.816 366.522 199.808C367.255 202.183 368.029 204.545 368.859 206.89C367.757 206.458 366.647 206.021 365.54 205.598C362.896 204.575 360.242 203.547 357.564 202.635C355.248 201.853 352.795 201.244 350.372 201.923C349.987 202.038 350.004 202.7 350.381 202.803C355.242 204.148 359.48 206.874 363.582 209.727C366.373 211.678 369.155 213.623 372.041 215.39C372.662 216.95 373.293 218.514 373.942 220.064C375.244 223.202 376.634 226.304 377.764 229.504C378.842 232.537 379.696 235.687 379.883 238.911C380.081 242.315 379.398 245.601 378.081 248.744C376.744 251.923 374.945 254.874 373.347 257.929C371.806 260.874 370.545 263.93 369.688 267.148C367.995 273.479 367.654 280.162 368.767 286.621C368.792 286.797 368.831 286.969 368.865 287.15C366.517 284.099 363.987 281.175 361.285 278.36C357.288 274.185 353.131 270.16 348.852 266.259C348.862 266.194 348.864 266.125 348.846 266.046C346.932 258.845 344.999 251.658 343.312 244.4C341.655 237.263 340.188 230.096 338.907 222.886C338.297 219.489 337.721 216.075 336.754 212.761C335.757 209.327 334.276 206.108 332.395 203.078C328.596 196.952 323.772 191.367 318.714 186.256C313.229 180.713 307.184 175.731 300.7 171.396C300.701 171.304 300.666 171.215 300.565 171.163C295.576 168.316 289.715 168.178 284.159 168.887C282.349 169.125 280.543 169.401 278.74 169.713C276.689 167.19 274.44 164.844 271.929 162.735C266.566 158.212 260.315 154.815 253.623 152.717C248.072 150.302 241.95 153.108 236.732 155.206C236.602 155.255 236.472 155.304 236.337 155.362C236.579 155.523 236.812 155.702 237.058 155.877C239.533 154.875 241.972 153.784 244.556 153.108C247.155 152.427 249.949 152.221 252.538 152.947C252.518 153.053 252.544 153.16 252.616 153.244C255.325 156.541 258.005 159.846 260.785 163.074C260.757 163.06 260.725 163.055 260.707 163.045C260.628 163.016 260.554 163.024 260.489 163.06C254.633 160.113 247.919 159.894 241.492 160.466C241.619 160.602 241.727 160.774 241.808 160.933C240.975 159.894 240.071 158.923 239.047 158.029C236.728 155.997 234.128 154.262 231.569 152.56C229.078 150.905 226.526 149.323 223.94 147.829C217.977 144.394 211.761 141.424 205.343 138.932C205.246 138.893 205.168 138.887 205.08 138.9C197.267 136.092 188.793 135.029 180.52 135.75C178.119 135.962 175.724 136.317 173.369 136.821C172.975 136.908 173.114 137.424 173.451 137.47C184.807 138.875 196.422 139.982 207.277 143.786C209.896 144.702 212.456 145.775 214.945 146.985C216.307 148.125 217.675 149.278 219.042 150.408C221.408 152.371 223.759 154.339 226.125 156.302C226.758 156.829 227.401 157.361 228.039 157.879C224.185 158.806 220.255 159.496 216.362 160.275C212.329 161.074 208.31 161.87 204.282 162.683C203.828 162.774 203.89 163.483 204.352 163.489C212.032 163.662 219.737 163.742 227.401 162.961C229.331 162.762 231.271 162.497 233.202 162.228C235.466 164.232 237.304 166.493 238.734 169.161C240.074 171.665 241.107 174.313 242.363 176.867C244.965 182.161 248.603 186.827 252.383 191.309C256.158 195.777 260.125 200.077 264.271 204.19C264.225 204.166 264.184 204.156 264.138 204.132C256.872 199.263 249.61 194.408 242.34 189.548C239.136 187.406 235.918 185.292 232.71 183.16C232.693 183.104 232.647 183.057 232.588 183.015C232.469 182.93 232.36 182.85 232.246 182.755C232.391 182.609 232.383 182.29 232.139 182.222C231.794 182.124 231.44 182.022 231.1 181.915C224.233 176.95 216.732 172.892 208.836 169.819C200.32 166.506 191.346 164.344 182.24 163.466C172.226 162.501 162.148 163.137 152.121 162.376C146.897 161.974 141.743 161.06 136.525 160.556C132.005 160.122 127.455 160.082 122.931 160.416C113.901 161.095 104.975 163.32 96.6821 166.971C95.6396 167.433 94.6014 167.91 93.5812 168.418C93.176 168.616 93.224 169.353 93.7416 169.341C103.124 169.126 112.499 169.082 121.883 169.311C131.203 169.53 140.529 169.985 149.827 170.647C154.446 170.981 159.063 171.499 163.696 171.56C168.222 171.623 172.7 171.02 177.19 170.527C185.229 169.65 193.261 169.818 201.211 171.332C208.948 172.806 216.421 175.484 223.345 179.219C224.193 179.671 225.04 180.123 225.863 180.62C225.927 180.653 225.987 180.673 226.052 180.683C227.499 181.481 229.026 182.122 230.628 182.534C231.13 182.888 231.628 183.251 232.12 183.624C232.193 183.685 232.276 183.705 232.359 183.701C242.037 190.289 251.738 196.831 261.457 203.359C259.347 202.987 257.141 203.113 255.018 203.551C250.799 204.417 247.036 206.535 243.136 208.267C241.065 209.187 238.931 210.004 236.706 210.435C234.426 210.885 232.094 210.806 229.793 210.533C227.547 210.265 225.318 209.831 223.072 209.563C220.836 209.301 218.583 209.181 216.333 209.214C211.273 209.282 206.233 210.095 201.398 211.61C201.259 211.655 201.156 211.741 201.098 211.851C196.77 212.661 192.777 214.951 189.233 217.498C184.946 220.58 181.052 224.205 177.072 227.658C174.593 229.812 172.118 231.98 169.643 234.149C169.371 234.381 169.56 234.957 169.956 234.778C182.458 229.159 193.08 219.32 206.694 216.285C210.103 215.523 213.618 215.272 217.081 215.704L217.09 215.709C220.183 217.011 223.284 218.319 226.591 218.985C235.796 220.836 244.201 216.007 252.099 211.952C256.572 209.654 261.2 207.461 266.177 206.545C268.567 208.147 270.962 209.764 273.352 211.366C283.839 218.41 294.359 225.412 304.691 232.666C304.959 232.934 305.222 233.211 305.491 233.478C299.971 231.697 294.099 231.694 288.344 232.159C281.798 232.692 275.323 233.647 268.74 233.624C261.805 233.605 254.875 233.017 247.958 233.614C240.847 234.227 234.125 236.443 228.084 240.283C224.979 242.252 222.113 244.568 219.47 247.127C218.16 248.395 216.909 249.729 215.704 251.11C214.776 252.18 213.908 253.293 212.948 254.334C211.647 255.339 210.373 256.381 209.127 257.414C208.921 257.587 208.93 257.884 209.052 258.075C203.476 263.93 199.323 271.212 196.754 279.049C196.638 279.408 197.204 279.819 197.458 279.508C206.017 268.983 215.059 258.266 226.809 251.183C230.043 249.233 233.475 247.597 237.081 246.319C237.323 246.235 237.341 245.999 237.228 245.812C240.543 245.433 243.815 244.775 247.109 244.257C250.536 243.727 253.935 243.566 257.388 243.702C260.75 243.838 264.109 244.112 267.477 244.076C273.928 243.995 280.321 242.974 286.579 241.451C293.783 239.696 300.807 237.323 307.806 234.867C307.915 234.947 308.016 235.023 308.13 235.094C308.283 235.313 308.437 235.533 308.595 235.743C308.713 235.898 308.917 235.864 309.039 235.74C310.888 237.062 312.733 238.393 314.573 239.734C325.872 247.992 336.797 256.768 347.172 266.156C339.521 264.471 331.719 265.227 323.944 265.168C316.442 265.1 309.082 263.705 301.657 262.884C298.028 262.481 294.368 262.226 290.716 262.383C286.86 262.551 283.07 263.22 279.396 264.404C275.545 265.636 271.867 267.344 268.297 269.247C264.531 271.258 260.712 273.37 257.351 276.035C253.924 278.76 251.247 282.258 248.781 285.843C246.22 289.565 243.728 293.335 241.208 297.09C240.583 298.025 239.944 298.965 239.319 299.9C239.177 300.107 239.233 300.334 239.374 300.489C237.671 302.872 236.219 305.466 234.916 308.045C232.996 311.854 231.507 315.842 230.414 319.964C230.335 320.273 230.741 320.543 230.936 320.235C237.564 309.688 245.257 299.822 253.892 290.853C255.913 288.752 257.989 286.703 260.096 284.683C266.161 281.111 272.699 278.311 279.553 276.713C286.673 275.054 294.009 274.815 301.285 274.824C308.539 274.833 315.82 275.102 323.053 274.436C326.606 274.111 330.145 273.568 333.597 272.654C337.76 271.56 341.759 269.973 345.696 268.26C346.538 267.892 347.362 267.515 348.2 267.133C349.511 268.327 350.808 269.526 352.096 270.743C358.47 276.747 364.548 283.03 369.663 290.003C366.017 289.521 362.374 289.66 358.746 290.307C354.988 290.981 351.324 292.101 347.723 293.323C340.419 295.808 333.171 298.858 325.454 299.786C320.941 300.325 316.429 299.919 311.926 299.541C307.437 299.158 302.963 298.947 298.473 299.463C290.044 300.418 281.851 303.339 274.693 307.918C271.135 310.201 267.82 312.866 264.877 315.912C261.512 319.392 258.862 323.465 255.57 327.005C254.723 327.919 253.836 328.777 252.885 329.578C252.698 329.737 252.653 329.936 252.701 330.112C246.606 335.465 241.649 342.19 238.088 349.429C236.917 351.82 235.897 354.277 235.033 356.792C234.863 357.298 235.49 357.659 235.844 357.247C241.173 350.949 246.62 344.736 252.454 338.898C255.409 335.94 258.45 333.063 261.587 330.293C264.681 327.559 268.034 325.088 271.45 322.767C273.333 321.492 275.242 320.279 277.201 319.149C278.927 318.155 280.707 317.259 282.459 316.326C284.022 315.982 285.588 315.699 287.172 315.471C291.243 314.889 295.348 314.757 299.451 314.741C307.652 314.717 315.962 315.112 324.023 313.184C331.779 311.33 338.931 307.682 345.833 303.775C352.865 299.796 359.765 295.492 367.174 292.222C368.063 291.831 368.947 291.45 369.83 291.093C369.84 291.097 369.853 291.093 369.853 291.093C370.061 291.119 370.228 291.043 370.337 290.924C373.796 295.753 376.793 300.914 379.117 306.543C383.809 317.892 385.942 330.049 386.083 342.302C383.441 339.414 380.072 337.256 376.364 335.996C372.031 334.528 367.462 334.501 363.028 335.582C358.357 336.715 353.98 338.759 349.516 340.478C345.048 342.207 340.486 343.712 335.794 344.706C331.079 345.7 326.249 346.132 321.436 345.745C316.536 345.347 311.735 344.289 306.881 343.601C302.364 342.959 297.863 342.757 293.326 343.272C289.008 343.771 284.781 344.855 280.708 346.381C272.378 349.499 264.849 354.41 258.138 360.212C257.299 360.932 256.483 361.675 255.671 362.432C255.512 362.582 255.476 362.785 255.519 362.971C254.373 364.08 253.31 365.278 252.301 366.481C250.793 368.264 249.395 370.129 248.097 372.068C245.431 376.039 243.24 380.303 241.531 384.783C240.57 387.305 239.793 389.877 239.163 392.502C239.079 392.843 239.62 393.101 239.805 392.788C244.132 385.62 249.412 378.946 255.18 372.899C258.085 369.857 261.145 366.966 264.355 364.257C267.114 361.921 269.997 359.708 273.131 357.905C276.681 355.863 280.586 354.391 284.68 354.078C287.681 354.189 290.664 354.606 293.638 355.217C298.21 356.156 302.719 357.33 307.352 357.928C315.946 359.029 324.721 358.685 333.214 356.935C337.381 356.077 341.485 354.871 345.465 353.344C349.882 351.647 354.022 349.433 358.193 347.223C362.448 344.964 366.855 342.772 371.619 341.886C375.604 341.155 379.909 341.266 383.618 343.017C384.466 343.422 385.271 343.91 386.038 344.472C386.056 344.481 386.074 344.491 386.093 344.5C386.04 352.465 385.146 360.459 383.59 368.273C377.739 362.808 368.508 363.313 361.194 364.742C353.352 366.27 345.933 369.314 338.335 371.669C334.551 372.842 330.713 373.848 326.796 374.381C322.688 374.944 318.549 374.941 314.425 374.842C310.277 374.742 306.123 374.545 301.97 374.769C297.785 374.987 293.666 375.684 289.689 377.026C282.005 379.64 275.171 384.153 268.634 388.903C268.561 388.888 268.482 388.905 268.402 388.969C267.864 389.378 267.339 389.806 266.81 390.242C266.183 390.71 265.552 391.164 264.925 391.632C264.776 391.741 264.723 391.889 264.734 392.046C257.665 398.491 252.06 406.711 248.299 415.434C247.011 418.429 245.93 421.519 245.074 424.668C244.986 424.996 245.481 425.253 245.675 424.968C250.17 418.505 255.215 412.374 260.749 406.778C266.171 401.286 272.121 396.278 278.707 392.242C282.081 390.179 285.608 388.359 289.255 386.846C292.884 386.443 296.528 386.235 300.173 386.249C304.294 386.266 308.415 386.573 312.534 386.682C316.598 386.785 320.653 386.639 324.674 385.973C328.556 385.329 332.357 384.304 336.096 383.083C343.556 380.633 350.729 377.416 358.119 374.766C365.676 372.062 373.546 369.942 381.626 369.995C382.171 369.998 382.707 370.02 383.242 370.041C382.336 374.273 381.242 378.441 379.978 382.533C371.041 411.33 354.312 436.829 338.208 462.021C322.625 486.388 307.078 511.404 299.1 539.45C298.114 542.894 297.276 546.367 296.558 549.879C296.453 550.327 297.23 550.555 297.345 550.043ZM226.444 180.128C226.422 180.059 226.363 179.993 226.286 179.941C219.464 175.874 212.121 172.878 204.38 171.076C196.693 169.278 188.725 168.653 180.847 169.241C176.323 169.575 171.825 170.308 167.288 170.555C162.646 170.804 158.019 170.351 153.395 170.003C144.107 169.299 134.81 168.812 125.495 168.538C116.126 168.258 106.752 168.21 97.3803 168.337C96.9089 168.349 96.4331 168.347 95.9616 168.359C103.503 164.901 111.575 162.64 119.81 161.677C124.295 161.148 128.816 160.999 133.321 161.261C138.385 161.545 143.388 162.416 148.429 162.968C158.353 164.061 168.361 163.47 178.326 164.059C187.465 164.604 196.514 166.397 205.16 169.393C213.351 172.234 221.16 176.148 228.352 180.979C227.71 180.715 227.063 180.438 226.444 180.128ZM204.267 270.069C202.27 272.346 200.328 274.675 198.387 277.003C201.219 269.712 205.437 263.222 210.636 257.556C211.552 256.935 212.372 256.206 213.143 255.416C217.279 252.22 221.63 249.24 226.614 247.593C229.476 246.652 232.434 246.31 235.405 245.986C222.756 250.723 212.917 260.175 204.267 270.069ZM269.204 243.035C262.335 243.272 255.488 242.121 248.631 243.006C245.154 243.452 241.722 244.214 238.236 244.655C234.847 245.089 231.412 245.231 228.081 246.091C223.793 247.202 219.901 249.322 216.26 251.831C216.708 251.305 217.151 250.788 217.607 250.29C220.067 247.612 222.769 245.142 225.692 242.984C231.534 238.679 238.206 235.796 245.397 234.828C252.19 233.91 259.066 234.423 265.878 234.588C269.254 234.673 272.627 234.651 275.99 234.402C279.149 234.164 282.283 233.773 285.431 233.446C291.678 232.794 298.163 232.334 304.289 234.091C304.863 234.261 305.433 234.44 305.989 234.647C294.055 238.589 281.884 242.607 269.204 243.035ZM236.242 311.136C234.643 313.41 233.094 315.721 231.6 318.06C232.628 314.825 233.914 311.654 235.428 308.626C236.346 306.792 237.345 305.001 238.432 303.267C239.134 302.138 239.896 301.052 240.658 299.965C245.716 294.927 251.216 290.339 257.216 286.466C249.461 293.966 242.457 302.323 236.242 311.136ZM336.335 270.855C332.74 271.975 329.041 272.715 325.301 273.153C318.056 274 310.746 273.786 303.466 273.716C296.195 273.651 288.875 273.724 281.714 275.105C274.109 276.581 266.835 279.501 260.141 283.387C253.909 287.012 248.162 291.448 242.897 296.368C244.517 293.966 246.137 291.563 247.747 289.156C250.195 285.516 252.636 281.824 255.786 278.758C258.909 275.701 262.738 273.501 266.52 271.369C270.064 269.383 273.712 267.532 277.529 266.118C281.22 264.744 285.055 263.831 288.979 263.511C292.633 263.215 296.313 263.387 299.961 263.753C307.305 264.486 314.566 265.981 321.968 266.219C329.564 266.464 337.217 265.526 344.765 266.692C345.369 266.784 345.986 266.894 346.585 267.018C343.203 268.401 339.818 269.77 336.335 270.855ZM347.646 265.177C347.6 265.13 347.55 265.092 347.505 265.046C347.533 264.99 347.548 264.94 347.558 264.875C347.584 264.982 347.615 265.08 347.646 265.177ZM316.167 185.225C321.315 190.231 326.117 195.723 330.164 201.662C332.239 204.7 334.011 207.918 335.191 211.425C336.315 214.75 336.965 218.202 337.583 221.65C338.848 228.689 340.23 235.706 341.811 242.676C343.483 250.03 345.288 257.396 347.474 264.633C347.465 264.628 347.47 264.619 347.461 264.615C343.535 259.496 339.898 253.909 337.647 247.829C336.523 244.795 335.757 241.633 335.515 238.403C335.258 234.887 335.492 231.368 335.055 227.863C334.623 224.348 333.825 220.889 332.902 217.47C332.014 214.162 330.922 210.888 329.364 207.839C325.958 201.159 319.985 196.6 314.931 191.257C309.636 185.661 305.278 179.268 301.069 172.836C306.45 176.54 311.501 180.679 316.167 185.225ZM282.122 170.011C284.975 169.555 287.86 169.198 290.75 169.299C293.599 169.389 296.305 170.048 298.936 171.052C298.92 171.172 298.941 171.288 299.018 171.409C301.722 175.52 304.412 179.659 307.337 183.615C306.731 183.079 306.102 182.543 305.435 182.103C300.938 177.972 294.763 176.154 288.831 175.302C286.72 175 284.598 174.808 282.465 174.681C282.578 174.867 282.662 175.063 282.761 175.254C281.684 173.61 280.546 172.016 279.333 170.476C280.255 170.313 281.186 170.155 282.122 170.011ZM269.871 162.331C275.18 166.511 279.488 171.723 283.029 177.47C286.643 183.325 289.678 189.556 292.564 195.803C295.424 201.989 298.037 208.293 300.399 214.699C301.735 218.309 302.987 221.946 304.155 225.61C304.982 228.186 305.738 230.807 306.979 233.189C306.357 232.75 305.731 232.32 305.11 231.881C301.114 227.682 297.253 223.356 294.655 218.099C293.283 215.321 292.147 212.422 290.975 209.55C289.753 206.57 288.532 203.591 287.32 200.616C284.966 194.844 282.833 188.872 279.678 183.477C276.478 178.012 271.915 173.741 267.577 169.214C262.898 164.335 258.539 159.131 254.269 153.892C259.897 155.776 265.196 158.656 269.871 162.331ZM271.281 174.334C270.422 174.331 269.558 174.337 268.694 174.344C266.452 174.382 264.201 174.484 261.96 174.721C264.473 173.937 267.007 173.223 269.564 172.579C270.145 173.161 270.713 173.747 271.281 174.334ZM200.267 141.045C194.786 139.727 189.215 138.853 183.623 138.131C180.921 137.779 178.215 137.435 175.513 137.083C183.116 135.792 190.99 135.995 198.511 137.706C200.61 138.189 202.675 138.783 204.71 139.478C204.745 139.59 204.817 139.697 204.955 139.768C207.539 141.064 209.834 142.804 212.064 144.626C212.301 144.819 212.529 145.008 212.766 145.201C208.758 143.376 204.529 142.067 200.267 141.045ZM217.563 162.777C214.397 162.848 211.242 162.832 208.088 162.769C213.905 161.624 219.731 160.484 225.531 159.26C226.616 159.03 227.692 158.795 228.763 158.524C229.994 159.536 231.211 160.553 232.409 161.583C231.321 161.73 230.233 161.876 229.145 162C225.303 162.455 221.436 162.688 217.563 162.777ZM180.947 228.036C178.016 229.828 175.054 231.568 171.966 233.057C175.635 229.91 179.296 226.735 182.956 223.584C186.682 220.373 190.501 217.141 194.881 214.865C196.903 213.815 199.014 213.044 201.203 212.501C201.304 212.576 201.446 212.615 201.604 212.58C205.916 211.646 210.196 212.923 214.181 214.502C214.442 214.603 214.69 214.708 214.952 214.809C202.409 214.189 191.271 221.729 180.947 228.036ZM240.693 216.378C236.508 217.986 232.062 218.886 227.593 218.175C223.21 217.475 219.168 215.47 215.098 213.811C212.275 212.661 209.335 211.648 206.323 211.355C209.109 210.76 211.938 210.398 214.782 210.275C217.005 210.182 219.227 210.227 221.441 210.42C223.711 210.618 225.945 211.02 228.195 211.348C230.389 211.67 232.625 211.91 234.837 211.728C237.011 211.55 239.128 210.969 241.155 210.201C245.167 208.68 248.882 206.408 252.992 205.124C256.67 203.977 260.909 203.518 264.395 205.339C264.734 205.562 265.067 205.793 265.396 206.011C256.518 207.562 249.006 213.181 240.693 216.378ZM283.673 217.274C278.171 213.577 272.655 209.885 267.149 206.197C267.188 206.078 267.176 205.943 267.053 205.821C262.6 201.561 258.335 197.095 254.338 192.406C250.412 187.801 246.536 183.035 243.751 177.622C242.43 175.058 241.375 172.363 240.078 169.776C238.794 167.208 237.244 164.84 235.184 162.825C233.529 161.196 231.714 159.717 229.914 158.234C229.928 158.23 229.928 158.23 229.942 158.225C229.873 158.178 229.795 158.126 229.727 158.079C229.23 157.669 228.733 157.26 228.236 156.85C225.839 154.858 223.455 152.863 221.058 150.871C218.451 148.701 215.849 146.521 213.232 144.37C212.179 143.508 211.121 142.655 210.021 141.862C213.892 143.546 217.692 145.413 221.391 147.451C226.739 150.391 231.999 153.658 236.825 157.401C239.353 159.366 241.445 161.631 243.109 164.385C244.76 167.121 246.07 170.064 247.464 172.935C250.208 178.583 253.022 184.209 256.157 189.663C259.678 195.785 263.628 201.709 268.37 206.96C268.642 207.264 269.088 206.831 268.83 206.522C260.465 196.801 254.61 185.407 249.009 173.947C246.872 169.594 244.962 164.962 241.966 161.143C244.478 160.919 246.998 160.839 249.527 161.009C253.376 161.28 257.187 162.139 260.613 163.942C260.76 164.018 260.88 163.987 260.97 163.905C261.427 164.212 261.884 164.496 262.312 164.859C262.321 164.863 262.326 164.877 262.344 164.887C263.333 166.007 264.326 167.118 265.353 168.211C266.501 169.449 267.692 170.65 268.887 171.866C268.043 172.081 267.207 172.3 266.372 172.52C263.026 173.431 259.71 174.463 256.425 175.616C255.941 175.785 256.117 176.611 256.627 176.502C261.709 175.407 266.888 175.133 272.067 175.15C274.206 177.416 276.237 179.777 277.922 182.402C281.282 187.623 283.435 193.559 285.78 199.28C287.002 202.26 288.223 205.239 289.435 208.214C290.635 211.146 291.782 214.111 293.112 216.994C294.561 220.162 296.333 223.112 298.501 225.836C299.479 227.067 300.513 228.257 301.575 229.415C295.636 225.305 289.655 221.278 283.673 217.274ZM308.363 234.153C306.912 231.591 306.105 228.71 305.232 225.912C304.196 222.597 303.081 219.3 301.906 216.03C299.546 209.508 296.94 203.08 294.064 196.768C291.165 190.41 288.1 184.081 284.516 178.079C283.995 177.201 283.45 176.324 282.891 175.473C287.401 175.75 291.909 176.341 296.192 177.771C299.542 178.892 302.577 180.573 305.284 182.841C305.339 182.893 305.408 182.917 305.477 182.918C306.079 183.417 306.713 183.898 307.291 184.42C307.988 185.05 308.618 185.762 309.338 186.37C309.379 186.403 309.425 186.426 309.471 186.427C310.381 187.588 311.318 188.716 312.284 189.836C314.782 192.708 317.558 195.293 320.282 197.955C322.928 200.543 325.499 203.254 327.419 206.433C329.218 209.42 330.458 212.701 331.442 216.047C332.44 219.458 333.288 222.955 333.835 226.471C334.387 230.001 334.292 233.522 334.423 237.078C334.542 240.255 335.105 243.382 336.071 246.404C338.001 252.411 341.281 257.766 344.982 262.802C338.397 257.003 331.571 251.464 324.655 246.147C319.317 242.022 313.866 238.048 308.363 234.153ZM272.408 321.28C269.003 323.514 265.756 325.982 262.613 328.562C259.363 331.238 256.199 333.971 253.185 336.909C250.194 339.824 247.307 342.852 244.498 345.932C241.892 348.779 239.354 351.696 236.834 354.623C239.934 346.748 244.59 339.528 250.456 333.427C251.401 332.436 252.382 331.487 253.391 330.552C253.521 330.55 253.651 330.5 253.772 330.4C260.125 325.088 267.432 320.961 275.27 318.298C276.641 317.832 278.034 317.411 279.44 317.033C277.012 318.327 274.677 319.799 272.408 321.28ZM347.947 301.338C340.928 305.359 333.734 309.312 325.908 311.502C317.92 313.737 309.681 313.565 301.476 313.529C297.346 313.508 293.21 313.542 289.1 313.998C285.041 314.446 281.022 315.264 277.107 316.44C270.575 318.404 264.33 321.357 258.668 325.184C260.342 323.124 261.929 320.985 263.649 318.973C266.409 315.763 269.579 312.905 273.029 310.45C279.878 305.57 287.874 302.313 296.156 300.99C300.492 300.301 304.864 300.238 309.238 300.572C313.862 300.919 318.491 301.526 323.147 301.272C330.773 300.856 338.039 298.107 345.164 295.564C352.219 293.044 359.569 290.513 367.159 290.838C367.446 290.846 367.736 290.869 368.027 290.891C361.01 293.676 354.491 297.584 347.947 301.338ZM265.199 362.385C258.619 367.754 252.619 373.867 247.376 380.56C244.926 383.687 242.669 386.937 240.526 390.281C242.929 382.067 246.998 374.321 252.406 367.69C253.594 366.23 254.869 364.85 256.144 363.471C256.25 363.467 256.348 363.436 256.446 363.359C263.049 358.236 270.943 355.019 279.254 354.201C274.072 355.78 269.385 358.959 265.199 362.385ZM375.145 340.426C370.615 340.548 366.299 342.029 362.225 343.938C357.783 346.019 353.569 348.556 349.082 350.567C345.08 352.362 340.926 353.798 336.68 354.873C328.171 357.035 319.326 357.762 310.597 356.987C305.97 356.58 301.467 355.619 296.943 354.588C292.344 353.542 287.738 352.667 283.007 352.707C276.136 352.768 269.274 354.468 263.134 357.58C267.753 354.016 272.77 350.962 278.107 348.635C286.139 345.129 294.847 343.501 303.579 344.383C308.399 344.867 313.14 345.952 317.934 346.598C322.65 347.238 327.375 347.3 332.103 346.64C336.72 345.992 341.236 344.754 345.645 343.252C350.096 341.736 354.374 339.792 358.794 338.202C363.182 336.607 367.787 335.556 372.464 336.293C376.713 336.959 380.765 338.899 383.928 341.813C384.188 342.053 384.433 342.297 384.679 342.541C381.799 340.964 378.459 340.339 375.145 340.426ZM424.912 251.452C425.817 260.508 426.707 269.592 427.306 278.677C427.831 286.626 428.209 294.861 426.048 302.629C424.958 306.566 423.137 310.229 420.667 313.485C418.037 316.938 414.814 319.897 411.402 322.57C404.278 328.159 396.213 332.535 389.642 338.83C389.205 339.245 388.773 339.674 388.355 340.098C392.316 332.716 397.285 325.834 402.94 319.67C408.463 313.647 415.429 308.386 418.99 300.831C420.786 297.015 421.264 292.912 421.264 288.746C421.258 284.59 421.04 280.44 420.835 276.285C420.421 268.078 419.876 259.874 419.808 251.648C419.734 243.548 420.122 235.384 421.649 227.403C421.674 227.288 421.699 227.173 421.715 227.052C423.12 235.144 424.099 243.294 424.912 251.452ZM356.396 190.77C352.646 188.426 348.457 187.197 344.401 185.487C337.175 182.424 330.698 177.894 323.648 174.468C320.554 172.966 317.342 171.671 314.001 170.87C319.83 170.35 325.709 171.081 331.264 172.973C334.687 174.132 337.984 175.645 341.281 177.113C344.804 178.685 348.322 180.266 351.844 181.838C355.591 183.516 359.348 185.174 363.09 186.838C363.09 186.838 363.095 186.851 363.09 186.861C363.949 190.807 364.971 194.709 366.127 198.576C363.059 195.77 359.931 192.99 356.396 190.77ZM365.635 210.232C361.547 207.329 357.382 204.373 352.676 202.594C354.122 202.61 355.543 202.986 356.936 203.441C359.229 204.2 361.497 205.074 363.756 205.943C365.592 206.64 367.419 207.355 369.256 208.052C369.388 208.424 369.53 208.801 369.662 209.174C370.277 210.858 370.914 212.542 371.571 214.213C369.549 212.953 367.58 211.616 365.635 210.232ZM370.315 269.189C371.066 265.974 372.194 262.837 373.634 259.863C375.145 256.751 376.972 253.791 378.428 250.651C379.841 247.616 380.831 244.432 380.961 241.069C381.087 237.868 380.474 234.679 379.559 231.626C378.613 228.474 377.337 225.443 376.056 222.422C374.552 218.888 373.096 215.331 371.727 211.739C368.959 204.48 366.484 197.058 364.729 189.485C364.681 189.308 364.647 189.127 364.613 188.946C366.406 191.429 368.101 193.989 369.647 196.635C371.579 199.948 373.209 203.396 374.656 206.948C377.588 214.117 380.393 221.349 383.134 228.593C385.583 235.057 387.483 241.702 387.114 248.685C386.79 254.887 384.897 261.021 381.608 266.302C380.545 268.013 379.309 269.611 378.149 271.261C376.924 272.994 375.86 274.798 374.969 276.715C374.097 278.573 373.363 280.502 372.607 282.407C371.773 284.506 370.953 286.6 370.197 288.728C368.736 282.334 368.819 275.611 370.315 269.189ZM370.691 289.614C370.714 289.592 370.733 289.555 370.748 289.527C372.416 285.843 373.883 282.078 375.5 278.379C376.264 276.618 377.128 274.908 378.185 273.298C379.247 271.679 380.436 270.15 381.539 268.564C385.173 263.311 387.432 257.192 388.132 250.847C388.475 247.7 388.426 244.524 387.969 241.394C387.454 237.86 386.434 234.425 385.246 231.067C383.979 227.481 382.531 223.952 381.139 220.406C379.906 217.292 378.696 214.179 377.462 211.065C377.522 211.084 377.573 211.099 377.628 211.127C382.296 212.711 387.042 214.009 391.913 214.799C397.069 215.645 402.282 216.134 407.356 217.428C410.057 218.118 412.709 218.993 415.283 220.038C417.463 220.925 420.039 221.924 421.504 223.851C421.387 223.919 421.293 224.033 421.258 224.213C420.634 227.028 420.139 229.863 419.764 232.713C412.529 226.53 402.831 225.135 393.85 223.12C389.441 222.137 385.128 220.878 380.97 219.14C381.015 219.233 381.055 219.335 381.1 219.428C381.184 219.624 381.148 219.827 381.053 219.988C384.371 221.349 387.786 222.434 391.288 223.283C395.936 224.413 400.658 225.22 405.286 226.479C410.35 227.86 415.335 229.842 419.343 233.323C419.461 233.431 419.591 233.428 419.698 233.379C419.066 238.382 418.793 243.433 418.738 248.468C418.644 256.691 419.11 264.889 419.53 273.087C419.735 277.149 419.927 281.216 420.036 285.286C420.147 289.508 420.242 293.828 418.905 297.882C416.313 305.764 409.354 311.17 403.848 316.98C397.599 323.571 392.237 331.03 387.998 339.061C387.721 339.594 387.44 340.136 387.163 340.669C386.926 331.446 385.543 322.281 382.774 313.412C380.024 304.727 375.894 296.843 370.691 289.614ZM400.114 350.719C404.842 345.31 409.832 339.932 416.173 336.411C427.504 330.114 441.047 329.772 453.534 331.775C460.621 332.912 467.549 334.782 474.447 336.73C469.039 337.13 463.614 336.939 458.192 336.784C452.013 336.609 445.779 336.452 439.642 337.361C436.646 337.8 433.672 338.508 430.823 339.561C427.625 340.747 424.627 342.399 421.827 344.34C415.911 348.432 410.891 353.642 405.387 358.24C402.632 360.543 399.742 362.682 396.599 364.434C393.41 366.208 390.019 367.586 386.501 368.536C390.651 362.291 395.198 356.333 400.114 350.719ZM269.992 397.332C263.856 402.137 258.331 407.716 253.345 413.713C250.898 416.655 248.58 419.71 246.339 422.816C249.465 412.807 254.856 403.566 261.982 395.868C263.017 394.748 264.102 393.666 265.205 392.617C265.297 392.642 265.389 392.643 265.492 392.603C272.274 390.069 279.263 388.191 286.418 387.158C280.566 389.871 275.075 393.344 269.992 397.332ZM361.81 372.226C354.255 374.591 347.022 377.836 339.576 380.527C335.783 381.894 331.933 383.127 327.991 384.02C323.975 384.922 319.906 385.388 315.794 385.423C311.621 385.461 307.454 385.153 303.28 385.016C299.239 384.889 295.195 384.971 291.165 385.341C283.646 386.022 276.127 387.555 268.99 390.032C274.705 385.813 280.67 381.828 287.252 379.144C291.15 377.551 295.242 376.502 299.435 376.112C303.483 375.729 307.557 375.837 311.62 375.964C315.721 376.086 319.84 376.241 323.943 375.933C327.842 375.636 331.681 374.853 335.454 373.813C342.959 371.748 350.165 368.734 357.714 366.808C361.439 365.861 365.262 365.197 369.108 365.094C372.99 364.986 377.09 365.447 380.504 367.429C381.337 367.908 382.108 368.484 382.809 369.151C375.697 368.667 368.605 370.095 361.81 372.226Z" fill="#FFDEDD"></path> </g> </svg> 