<?xml version="1.0" encoding="UTF-8"?> <svg xmlns="http://www.w3.org/2000/svg" viewBox="5991.326171875 4594.5 366.173828125 12.1298828125"> <path fill="#EF4424" fill-opacity="1" stroke="" stroke-opacity="1" stroke-width="1" id="tSvg123f2ba69d3" d="M 5998.58383 4595.635742 C 5998.58383 4596.79538 5998.58383 4596.79538 5998.58383 4596.79538 C 5998.58383 4596.79538 5993.7827 4596.79538 5993.7827 4596.79538 C 5993.7827 4596.79538 5993.7827 4599.97876 5993.7827 4599.97876 C 5993.7827 4599.97876 5997.65597 4599.97876 5997.65597 4599.97876 C 5997.65597 4599.97876 5997.65597 4601.09291 5997.65597 4601.09291 C 5997.65597 4601.09291 5993.7827 4601.09291 5993.7827 4601.09291 C 5993.7827 4601.09291 5993.7827 4604.36722 5993.7827 4604.36722 C 5993.7827 4604.36722 5998.58383 4604.36722 5998.58383 4604.36722 C 5998.58383 4604.36722 5998.58383 4605.5155 5998.58383 4605.5155 C 5998.58383 4605.5155 5992.326172 4605.5155 5992.326172 4605.5155 C 5992.326172 4605.5155 5992.326172 4595.635742 5992.326172 4595.635742 C 5992.326172 4595.635742 5998.58383 4595.635742 5998.58383 4595.635742" fill-rule="evenodd" clip-rule="evenodd"></path> <path fill="#EF4424" fill-opacity="1" stroke="" stroke-opacity="1" stroke-width="1" id="tSvg700682b6f4" d="M 6005.985 4595.63638 C 6007.1503 4595.63638 6007.1503 4595.63638 6007.1503 4595.63638 C 6007.2797 4595.63638 6007.3876 4595.670472 6007.4631 4595.727318 C 6007.5495 4595.784164 6007.6034 4595.875142 6007.6466 4595.966095 C 6010.4193 4602.75346 6010.4193 4602.75346 6010.4193 4602.75346 C 6010.4841 4602.91263 6010.5488 4603.09454 6010.6028 4603.28782 C 6010.6567 4603.48109 6010.7214 4603.68571 6010.7646 4603.90172 C 6010.8077 4603.68571 6010.8617 4603.49246 6010.9156 4603.28782 C 6010.9696 4603.09454 6011.0343 4602.91263 6011.099 4602.75346 C 6013.8718 4595.966095 6013.8718 4595.966095 6013.8718 4595.966095 C 6013.9042 4595.875142 6013.9582 4595.795533 6014.0445 4595.727318 C 6014.1308 4595.659103 6014.2387 4595.625 6014.3573 4595.625 C 6015.5226 4595.625 6015.5226 4595.625 6015.5226 4595.625 C 6015.5226 4595.625 6011.4011 4605.5048 6011.4011 4605.5048 C 6011.4011 4605.5048 6010.0957 4605.5048 6010.0957 4605.5048 C 6010.0957 4605.5048 6005.985 4595.63638 6005.985 4595.63638" fill-rule="evenodd" clip-rule="evenodd"></path> <path fill="#EF4424" fill-opacity="1" stroke="" stroke-opacity="1" stroke-width="1" id="tSvg9c9f4d092a" d="M 6029.8289 4595.635742 C 6029.8289 4596.79538 6029.8289 4596.79538 6029.8289 4596.79538 C 6029.8289 4596.79538 6025.0386 4596.79538 6025.0386 4596.79538 C 6025.0386 4596.79538 6025.0386 4599.97876 6025.0386 4599.97876 C 6025.0386 4599.97876 6028.9011 4599.97876 6028.9011 4599.97876 C 6028.9011 4599.97876 6028.9011 4601.09291 6028.9011 4601.09291 C 6028.9011 4601.09291 6025.0386 4601.09291 6025.0386 4601.09291 C 6025.0386 4601.09291 6025.0386 4604.36722 6025.0386 4604.36722 C 6025.0386 4604.36722 6029.8397 4604.36722 6029.8397 4604.36722 C 6029.8397 4604.36722 6029.8289 4605.5155 6029.8289 4605.5155 C 6029.8289 4605.5155 6023.5713 4605.5155 6023.5713 4605.5155 C 6023.5713 4605.5155 6023.5713 4595.635742 6023.5713 4595.635742 C 6023.5713 4595.635742 6029.8289 4595.635742 6029.8289 4595.635742" fill-rule="evenodd" clip-rule="evenodd"></path> <path fill="#EF4424" fill-opacity="1" stroke="" stroke-opacity="1" stroke-width="1" id="tSvg11d939c32e8" d="M 6039.5175 4595.682638 C 6039.5823 4595.705376 6039.6578 4595.773583 6039.7333 4595.887274 C 6045.4947 4603.17489 6045.4947 4603.17489 6045.4947 4603.17489 C 6045.4839 4603.04983 6045.4731 4602.92475 6045.4731 4602.79969 C 6045.4623 4602.67463 6045.4623 4602.56095 6045.4623 4602.45863 C 6045.4623 4595.648532 6045.4623 4595.648532 6045.4623 4595.648532 C 6045.4623 4595.648532 6046.7354 4595.648532 6046.7354 4595.648532 C 6046.7354 4595.648532 6046.7354 4605.5283 6046.7354 4605.5283 C 6046.7354 4605.5283 6046.0017 4605.5283 6046.0017 4605.5283 C 6045.8939 4605.5283 6045.7968 4605.5055 6045.7212 4605.47144 C 6045.6457 4605.43733 6045.5702 4605.36914 6045.4947 4605.27818 C 6039.7333 4597.99057 6039.7333 4597.99057 6039.7333 4597.99057 C 6039.7441 4598.11563 6039.7549 4598.22932 6039.7549 4598.34301 C 6039.7657 4598.4567 6039.7657 4598.5704 6039.7657 4598.67272 C 6039.7657 4605.5283 6039.7657 4605.5283 6039.7657 4605.5283 C 6039.7657 4605.5283 6038.4926 4605.5283 6038.4926 4605.5283 C 6038.4926 4605.5283 6038.4926 4595.648532 6038.4926 4595.648532 C 6038.4926 4595.648532 6039.2478 4595.648532 6039.2478 4595.648532 C 6039.3557 4595.637163 6039.4528 4595.6599 6039.5175 4595.682638Z" fill-rule="evenodd" clip-rule="evenodd"></path> <path fill="#EF4424" fill-opacity="1" stroke="" stroke-opacity="1" stroke-width="1" id="tSvge92348f2ec" d="M 6062.9081 4595.635742 C 6062.9081 4596.82949 6062.9081 4596.82949 6062.9081 4596.82949 C 6062.9081 4596.82949 6059.6714 4596.82949 6059.6714 4596.82949 C 6059.6714 4596.82949 6059.6714 4605.5155 6059.6714 4605.5155 C 6059.6714 4605.5155 6058.2149 4605.5155 6058.2149 4605.5155 C 6058.2149 4605.5155 6058.2149 4596.82949 6058.2149 4596.82949 C 6058.2149 4596.82949 6054.9781 4596.82949 6054.9781 4596.82949 C 6054.9781 4596.82949 6054.9781 4595.635742 6054.9781 4595.635742 C 6054.9781 4595.635742 6062.9081 4595.635742 6062.9081 4595.635742" fill-rule="evenodd" clip-rule="evenodd"></path> <path fill="#EF4424" fill-opacity="1" stroke="" stroke-opacity="1" stroke-width="1" id="tSvg69da4461f7" d="M 6076.3514 4597.2281 C 6076.3083 4597.29631 6076.2651 4597.35317 6076.2111 4597.38728 C 6076.1572 4597.42139 6076.0925 4597.44411 6076.0169 4597.44411 C 6075.9306 4597.44411 6075.8335 4597.41 6075.7256 4597.33041 C 6075.6178 4597.25083 6075.4775 4597.17124 6075.3157 4597.08029 C 6075.1538 4596.98934 6074.9596 4596.89838 6074.733 4596.83017 C 6074.5065 4596.75058 6074.2368 4596.71651 6073.9239 4596.71651 C 6073.6218 4596.71651 6073.3628 4596.75058 6073.1363 4596.83017 C 6072.9097 4596.90975 6072.7155 4597.01207 6072.5644 4597.1485 C 6072.4134 4597.28493 6072.2947 4597.43274 6072.2192 4597.61464 C 6072.1437 4597.79655 6072.1005 4597.98984 6072.1005 4598.20586 C 6072.1005 4598.47872 6072.1653 4598.69473 6072.3055 4598.87663 C 6072.4458 4599.04717 6072.6292 4599.19496 6072.8557 4599.33139 C 6073.0823 4599.45645 6073.3413 4599.57015 6073.6326 4599.66111 C 6073.9239 4599.75206 6074.2152 4599.84301 6074.5173 4599.94533 C 6074.8193 4600.04766 6075.1107 4600.16133 6075.402 4600.28639 C 6075.6933 4600.41145 6075.9522 4600.57064 6076.1788 4600.76391 C 6076.4053 4600.95719 6076.5888 4601.19594 6076.729 4601.48017 C 6076.8693 4601.7644 6076.934 4602.10544 6076.934 4602.51473 C 6076.934 4602.94676 6076.8585 4603.35606 6076.7074 4603.73124 C 6076.5564 4604.10642 6076.3298 4604.43612 6076.0385 4604.72035 C 6075.7472 4605.00457 6075.3912 4605.22058 6074.9704 4605.39112 C 6074.5496 4605.5503 6074.0641 4605.6299 6073.5247 4605.6299 C 6073.201 4605.6299 6072.8881 4605.5958 6072.586 4605.5389 C 6072.2839 4605.48208 6071.9926 4605.39115 6071.7229 4605.27746 C 6071.4532 4605.16377 6071.1942 4605.02732 6070.9569 4604.86815 C 6070.7195 4604.70898 6070.5037 4604.52708 6070.3203 4604.3338 C 6070.7411 4603.66303 6070.7411 4603.66303 6070.7411 4603.66303 C 6070.7842 4603.60618 6070.8274 4603.56071 6070.8813 4603.5266 C 6070.9353 4603.49249 6071 4603.46977 6071.0756 4603.46977 C 6071.1727 4603.46977 6071.2913 4603.51522 6071.4208 4603.61754 C 6071.5503 4603.71986 6071.7121 4603.83356 6071.8955 4603.94725 C 6072.0897 4604.07231 6072.3163 4604.17465 6072.586 4604.27697 C 6072.8557 4604.37929 6073.1794 4604.42477 6073.557 4604.42477 C 6073.8699 4604.42477 6074.1504 4604.37928 6074.3986 4604.29969 C 6074.6467 4604.22011 6074.8625 4604.09505 6075.0243 4603.94725 C 6075.197 4603.79946 6075.3264 4603.61754 6075.4127 4603.40152 C 6075.4991 4603.18551 6075.5422 4602.94679 6075.5422 4602.6853 C 6075.5422 4602.3897 6075.4775 4602.15094 6075.3372 4601.96904 C 6075.197 4601.78713 6075.0136 4601.62796 6074.787 4601.5029 C 6074.5604 4601.37784 6074.3015 4601.27552 6074.021 4601.18456 C 6073.7297 4601.09361 6073.4384 4601.00267 6073.1363 4600.91172 C 6072.8342 4600.82076 6072.5429 4600.70706 6072.2516 4600.582 C 6071.9603 4600.45694 6071.7121 4600.29778 6071.4855 4600.09314 C 6071.259 4599.89986 6071.0756 4599.64974 6070.9353 4599.34277 C 6070.795 4599.04717 6070.7303 4598.67199 6070.7303 4598.23996 C 6070.7303 4597.88752 6070.795 4597.54645 6070.9461 4597.21675 C 6071.0863 4596.88704 6071.2913 4596.59143 6071.5611 4596.341304 C 6071.8308 4596.091184 6072.1545 4595.88653 6072.5537 4595.727362 C 6072.9421 4595.568194 6073.3952 4595.5 6073.9023 4595.5 C 6074.4741 4595.5 6074.992 4595.5909655 6075.4667 4595.761502 C 6075.9414 4595.932039 6076.3514 4596.19351 6076.7074 4596.52321 C 6076.3514 4597.2281 6076.3514 4597.2281 6076.3514 4597.2281" fill-rule="evenodd" clip-rule="evenodd"></path> <path fill="#EF4424" fill-opacity="1" stroke="" stroke-opacity="1" stroke-width="1" id="tSvg13b47675efa" d="M 6103.734 4605.5159 C 6102.601 4605.5159 6102.601 4605.5159 6102.601 4605.5159 C 6102.472 4605.5159 6102.375 4605.48176 6102.288 4605.42492 C 6102.213 4605.3567 6102.148 4605.27709 6102.105 4605.18614 C 6101.199 4602.86686 6101.199 4602.86686 6101.199 4602.86686 C 6101.199 4602.86686 6096.711 4602.86686 6096.711 4602.86686 C 6096.711 4602.86686 6095.804 4605.18614 6095.804 4605.18614 C 6095.772 4605.27709 6095.718 4605.3567 6095.632 4605.42492 C 6095.545 4605.49313 6095.437 4605.5272 6095.319 4605.5272 C 6094.197 4605.5272 6094.197 4605.5272 6094.197 4605.5272 C 6094.197 4605.5272 6098.232 4595.647461 6098.232 4595.647461 C 6098.232 4595.647461 6099.71 4595.647461 6099.71 4595.647461 C 6099.71 4595.647461 6103.734 4605.5159 6103.734 4605.5159 M 6097.12 4601.84361 C 6100.81 4601.84361 6100.81 4601.84361 6100.81 4601.84361 C 6100.81 4601.84361 6099.278 4597.95539 6099.278 4597.95539 C 6099.224 4597.83033 6099.17 4597.6939 6099.116 4597.52336 C 6099.063 4597.36419 6099.009 4597.18228 6098.955 4596.98901 C 6098.901 4597.18228 6098.858 4597.36419 6098.804 4597.52336 C 6098.75 4597.6939 6098.706 4597.83033 6098.653 4597.95539 C 6097.12 4601.84361 6097.12 4601.84361 6097.12 4601.84361" fill-rule="evenodd" clip-rule="evenodd"></path> <path fill="#EF4424" fill-opacity="1" stroke="" stroke-opacity="1" stroke-width="1" id="tSvg143ee9dd48a" d="M 6113.239 4604.32177 C 6117.555 4604.32177 6117.555 4604.32177 6117.555 4604.32177 C 6117.555 4604.32177 6117.555 4605.5155 6117.555 4605.5155 C 6117.555 4605.5155 6111.783 4605.5155 6111.783 4605.5155 C 6111.783 4605.5155 6111.783 4595.635742 6111.783 4595.635742 C 6111.783 4595.635742 6113.239 4595.635742 6113.239 4595.635742 C 6113.239 4595.635742 6113.239 4604.32177 6113.239 4604.32177" fill-rule="evenodd" clip-rule="evenodd"></path> <path fill="#EF4424" fill-opacity="1" stroke="" stroke-opacity="1" stroke-width="1" id="tSvg1579f66cc0b" d="M 6123.834 4595.636007 C 6125.053 4595.636007 6125.053 4595.636007 6125.053 4595.636007 C 6125.183 4595.636007 6125.291 4595.670099 6125.377 4595.726945 C 6125.463 4595.78379 6125.517 4595.874745 6125.549 4595.977067 C 6127.567 4602.66212 6127.567 4602.66212 6127.567 4602.66212 C 6127.599 4602.78718 6127.632 4602.93497 6127.664 4603.08277 C 6127.696 4603.23057 6127.729 4603.38974 6127.761 4603.54891 C 6127.794 4603.37837 6127.826 4603.23059 6127.869 4603.07143 C 6127.901 4602.92363 6127.945 4602.7872 6127.988 4602.65077 C 6130.297 4595.965721 6130.297 4595.965721 6130.297 4595.965721 C 6130.329 4595.874768 6130.383 4595.79516 6130.469 4595.726945 C 6130.556 4595.65873 6130.6630000000005 4595.624627 6130.782 4595.624627 C 6131.203 4595.624627 6131.203 4595.624627 6131.203 4595.624627 C 6131.332 4595.624627 6131.43 4595.658754 6131.516 4595.715599 C 6131.591 4595.772445 6131.656 4595.863388 6131.699 4595.954341 C 6134.008 4602.63939 6134.008 4602.63939 6134.008 4602.63939 C 6134.094 4602.90088 6134.17 4603.18511 6134.235 4603.49208 C 6134.256 4603.33291 6134.289 4603.17375 6134.321 4603.03732 C 6134.353 4602.90089 6134.386 4602.76445 6134.418 4602.63939 C 6136.446 4595.954341 6136.446 4595.954341 6136.446 4595.954341 C 6136.468 4595.863388 6136.522 4595.783814 6136.619 4595.715599 C 6136.705 4595.647384 6136.813 4595.613281 6136.943 4595.613281 C 6138.076 4595.613281 6138.076 4595.613281 6138.076 4595.613281 C 6138.076 4595.613281 6134.914 4605.49306 6134.914 4605.49306 C 6134.914 4605.49306 6133.609 4605.49306 6133.609 4605.49306 C 6133.609 4605.49306 6131.106 4598.10312 6131.106 4598.10312 C 6131.084 4598.03491 6131.063 4597.94393 6131.03 4597.86435 C 6131.009 4597.77339 6130.976 4597.68245 6130.955 4597.5915 C 6130.912 4597.78477 6130.868 4597.95532 6130.815 4598.10312 C 6128.301 4605.49306 6128.301 4605.49306 6128.301 4605.49306 C 6128.301 4605.49306 6126.995 4605.49306 6126.995 4605.49306 C 6126.995 4605.49306 6123.834 4595.636007 6123.834 4595.636007" fill-rule="evenodd" clip-rule="evenodd"></path> <path fill="#EF4424" fill-opacity="1" stroke="" stroke-opacity="1" stroke-width="1" id="tSvg11b01aba231" d="M 6153.989 4605.5159 C 6152.857 4605.5159 6152.857 4605.5159 6152.857 4605.5159 C 6152.727 4605.5159 6152.63 4605.48176 6152.544 4605.42492 C 6152.468 4605.3567 6152.403 4605.27709 6152.36 4605.18614 C 6151.454 4602.86686 6151.454 4602.86686 6151.454 4602.86686 C 6151.454 4602.86686 6146.966 4602.86686 6146.966 4602.86686 C 6146.966 4602.86686 6146.06 4605.18614 6146.06 4605.18614 C 6146.027 4605.27709 6145.973 4605.3567 6145.887 4605.42492 C 6145.801 4605.49313 6145.693 4605.5272 6145.574 4605.5272 C 6144.441 4605.5272 6144.441 4605.5272 6144.441 4605.5272 C 6144.441 4605.5272 6148.476 4595.647461 6148.476 4595.647461 C 6148.476 4595.647461 6149.954 4595.647461 6149.954 4595.647461 C 6149.954 4595.647461 6153.989 4605.5159 6153.989 4605.5159 M 6147.376 4601.84361 C 6151.066 4601.84361 6151.066 4601.84361 6151.066 4601.84361 C 6151.066 4601.84361 6149.534 4597.95539 6149.534 4597.95539 C 6149.48 4597.83033 6149.426 4597.6939 6149.372 4597.52336 C 6149.318 4597.36419 6149.264 4597.18228 6149.21 4596.98901 C 6149.156 4597.18228 6149.113 4597.36419 6149.059 4597.52336 C 6149.005 4597.6939 6148.951 4597.83033 6148.908 4597.95539 C 6147.376 4601.84361 6147.376 4601.84361 6147.376 4601.84361" fill-rule="evenodd" clip-rule="evenodd"></path> <path fill="#EF4424" fill-opacity="1" stroke="" stroke-opacity="1" stroke-width="1" id="tSvgc1d2202457" d="M 6164.94 4601.60453 C 6164.94 4605.5155 6164.94 4605.5155 6164.94 4605.5155 C 6164.94 4605.5155 6163.484 4605.5155 6163.484 4605.5155 C 6163.484 4605.5155 6163.484 4601.60453 6163.484 4601.60453 C 6163.484 4601.60453 6159.772 4595.635742 6159.772 4595.635742 C 6159.772 4595.635742 6161.056 4595.635742 6161.056 4595.635742 C 6161.186 4595.635742 6161.283 4595.669834 6161.358 4595.72668 C 6161.434 4595.783526 6161.498 4595.863134 6161.552 4595.965457 C 6163.786 4599.70587 6163.786 4599.70587 6163.786 4599.70587 C 6163.872 4599.87641 6163.958 4600.03559 6164.023 4600.18339 C 6164.088 4600.33119 6164.153 4600.47901 6164.217 4600.62681 C 6164.271 4600.47901 6164.325 4600.33119 6164.401 4600.18339 C 6164.465 4600.03559 6164.541 4599.87642 6164.627 4599.71725 C 6166.85 4595.976802 6166.85 4595.976802 6166.85 4595.976802 C 6166.893 4595.897218 6166.958 4595.817655 6167.044 4595.74944 C 6167.12 4595.681226 6167.227 4595.647122 6167.346 4595.647122 C 6168.641 4595.647122 6168.641 4595.647122 6168.641 4595.647122 C 6168.641 4595.647122 6164.94 4601.60453 6164.94 4601.60453" fill-rule="evenodd" clip-rule="evenodd"></path> <path fill="#EF4424" fill-opacity="1" stroke="" stroke-opacity="1" stroke-width="1" id="tSvg2c5144ea72" d="M 6181.566 4597.2281 C 6181.523 4597.29631 6181.48 4597.35317 6181.426 4597.38728 C 6181.372 4597.42139 6181.307 4597.44411 6181.232 4597.44411 C 6181.145 4597.44411 6181.048 4597.41 6180.94 4597.33041 C 6180.833 4597.25083 6180.692 4597.17124 6180.53 4597.08029 C 6180.369 4596.98934 6180.174 4596.89838 6179.948 4596.83017 C 6179.721 4596.75058 6179.452 4596.71651 6179.139 4596.71651 C 6178.8369999999995 4596.71651 6178.578 4596.75058 6178.351 4596.83017 C 6178.125 4596.90975 6177.93 4597.01207 6177.779 4597.1485 C 6177.628 4597.28493 6177.51 4597.43274 6177.434 4597.61464 C 6177.359 4597.79655 6177.315 4597.98984 6177.315 4598.20586 C 6177.315 4598.47872 6177.38 4598.69473 6177.52 4598.87663 C 6177.661 4599.04717 6177.844 4599.19496 6178.071 4599.33139 C 6178.297 4599.45645 6178.556 4599.57015 6178.847 4599.66111 C 6179.139 4599.75206 6179.43 4599.84301 6179.732 4599.94533 C 6180.034 4600.04766 6180.325 4600.16133 6180.617 4600.28639 C 6180.908 4600.41145 6181.167 4600.57064 6181.394 4600.76391 C 6181.62 4600.95719 6181.804 4601.19594 6181.944 4601.48017 C 6182.084 4601.7644 6182.149 4602.10544 6182.149 4602.51473 C 6182.149 4602.94676 6182.073 4603.35606 6181.922 4603.73124 C 6181.771 4604.10642 6181.545 4604.43612 6181.253 4604.72035 C 6180.9619999999995 4605.00457 6180.606 4605.22058 6180.185 4605.39112 C 6179.764 4605.5503 6179.279 4605.6299 6178.74 4605.6299 C 6178.416 4605.6299 6178.103 4605.5958 6177.801 4605.5389 C 6177.499 4605.48208 6177.207 4605.39115 6176.938 4605.27746 C 6176.668 4605.16377 6176.409 4605.02732 6176.172 4604.86815 C 6175.934 4604.70898 6175.719 4604.52708 6175.535 4604.3338 C 6175.956 4603.66303 6175.956 4603.66303 6175.956 4603.66303 C 6175.988 4603.60618 6176.042 4603.56071 6176.096 4603.5266 C 6176.15 4603.49249 6176.215 4603.46977 6176.29 4603.46977 C 6176.388 4603.46977 6176.506 4603.51522 6176.636 4603.61754 C 6176.765 4603.71986 6176.927 4603.83356 6177.11 4603.94725 C 6177.305 4604.07231 6177.531 4604.17465 6177.801 4604.27697 C 6178.071 4604.37929 6178.394 4604.42477 6178.772 4604.42477 C 6179.085 4604.42477 6179.365 4604.37928 6179.613 4604.29969 C 6179.862 4604.22011 6180.077 4604.09505 6180.239 4603.94725 C 6180.412 4603.79946 6180.541 4603.61754 6180.628 4603.40152 C 6180.714 4603.18551 6180.768 4602.94679 6180.768 4602.6853 C 6180.768 4602.3897 6180.703 4602.15094 6180.563 4601.96904 C 6180.423 4601.78713 6180.239 4601.62796 6180.013 4601.5029 C 6179.786 4601.37784 6179.527 4601.27552 6179.247 4601.18456 C 6178.955 4601.09361 6178.664 4601.00267 6178.362 4600.91172 C 6178.06 4600.82076 6177.768 4600.70706 6177.477 4600.582 C 6177.186 4600.45694 6176.938 4600.29778 6176.711 4600.09314 C 6176.485 4599.89986 6176.301 4599.64974 6176.161 4599.34277 C 6176.021 4599.04717 6175.956 4598.67199 6175.956 4598.23996 C 6175.956 4597.88752 6176.021 4597.54645 6176.172 4597.21675 C 6176.312 4596.88704 6176.517 4596.59143 6176.787 4596.341304 C 6177.056 4596.091184 6177.38 4595.88653 6177.779 4595.727362 C 6178.168 4595.568194 6178.621 4595.5 6179.128 4595.5 C 6179.7 4595.5 6180.218 4595.5909655 6180.692 4595.761502 C 6181.167 4595.932039 6181.577 4596.19351 6181.933 4596.52321 C 6181.566 4597.2281 6181.566 4597.2281 6181.566 4597.2281" fill-rule="evenodd" clip-rule="evenodd"></path> <path fill="#EF4424" fill-opacity="1" stroke="" stroke-opacity="1" stroke-width="1" id="tSvg10347007fa6" d="M 6202.583 4601.44538 C 6202.583 4605.5155 6202.583 4605.5155 6202.583 4605.5155 C 6202.583 4605.5155 6201.127 4605.5155 6201.127 4605.5155 C 6201.127 4605.5155 6201.127 4595.635742 6201.127 4595.635742 C 6201.127 4595.635742 6204.029 4595.635742 6204.029 4595.635742 C 6204.676 4595.635742 6205.237 4595.703972 6205.701 4595.829033 C 6206.176 4595.954093 6206.565 4596.147357 6206.867 4596.386109 C 6207.169 4596.62486 6207.395 4596.92045 6207.546 4597.26152 C 6207.697 4597.60259 6207.762 4597.97777 6207.762 4598.39843 C 6207.762 4598.75087 6207.708 4599.06923 6207.6 4599.37619 C 6207.492 4599.68316 6207.331 4599.95602 6207.126 4600.19477 C 6206.921 4600.43352 6206.662 4600.63816 6206.36 4600.82006 C 6206.057 4600.9906 6205.7119999999995 4601.12703 6205.324 4601.21799 C 6205.507 4601.32031 6205.669 4601.46809 6205.798 4601.66137 C 6208.679 4605.5269 6208.679 4605.5269 6208.679 4605.5269 C 6208.679 4605.5269 6207.384 4605.5269 6207.384 4605.5269 C 6207.126 4605.5269 6206.931 4605.42455 6206.802 4605.21991 C 6204.266 4601.75234 6204.266 4601.75234 6204.266 4601.75234 C 6204.18 4601.63865 6204.094 4601.55907 6204.008 4601.5136 C 6203.91 4601.46812 6203.77 4601.44538 6203.5869999999995 4601.44538 C 6202.583 4601.44538 6202.583 4601.44538 6202.583 4601.44538 M 6202.583 4600.39941 C 6203.975 4600.39941 6203.975 4600.39941 6203.975 4600.39941 C 6204.364 4600.39941 6204.709 4600.35394 6205 4600.26299 C 6205.291 4600.17203 6205.54 4600.0356 6205.745 4599.86506 C 6205.939 4599.69452 6206.09 4599.48988 6206.187 4599.2625 C 6206.284 4599.03511 6206.338 4598.77363 6206.338 4598.4894 C 6206.338 4597.92095 6206.144 4597.47756 6205.766 4597.18196 C 6205.378 4596.88636 6204.795 4596.73855 6204.029 4596.73855 C 6202.583 4596.73855 6202.583 4596.73855 6202.583 4596.73855 C 6202.583 4596.73855 6202.583 4600.39941 6202.583 4600.39941" fill-rule="evenodd" clip-rule="evenodd"></path> <path fill="#EF4424" fill-opacity="1" stroke="" stroke-opacity="1" stroke-width="1" id="tSvg10e691a52d0" d="M 6223.029 4595.635742 C 6223.029 4596.79538 6223.029 4596.79538 6223.029 4596.79538 C 6223.029 4596.79538 6218.228 4596.79538 6218.228 4596.79538 C 6218.228 4596.79538 6218.228 4599.97876 6218.228 4599.97876 C 6218.228 4599.97876 6222.101 4599.97876 6222.101 4599.97876 C 6222.101 4599.97876 6222.101 4601.09291 6222.101 4601.09291 C 6222.101 4601.09291 6218.228 4601.09291 6218.228 4601.09291 C 6218.228 4601.09291 6218.228 4604.36722 6218.228 4604.36722 C 6218.228 4604.36722 6223.039 4604.36722 6223.039 4604.36722 C 6223.039 4604.36722 6223.029 4605.5155 6223.029 4605.5155 C 6223.029 4605.5155 6216.771 4605.5155 6216.771 4605.5155 C 6216.771 4605.5155 6216.771 4595.635742 6216.771 4595.635742 C 6216.771 4595.635742 6223.029 4595.635742 6223.029 4595.635742" fill-rule="evenodd" clip-rule="evenodd"></path> <path fill="#EF4424" fill-opacity="1" stroke="" stroke-opacity="1" stroke-width="1" id="tSvg254b52947f" d="M 6237 4602.60573 C 6237.054 4602.4693 6237.108 4602.34425 6237.162 4602.21919 C 6237.216 4602.09413 6237.27 4601.96906 6237.335 4601.85537 C 6240.69 4595.897956 6240.69 4595.897956 6240.69 4595.897956 C 6240.755 4595.784265 6240.82 4595.716024 6240.895 4595.693286 C 6240.971 4595.670547 6241.068 4595.65918 6241.197 4595.65918 C 6242.276 4595.65918 6242.276 4595.65918 6242.276 4595.65918 C 6242.276 4595.65918 6242.276 4605.539 6242.276 4605.539 C 6242.276 4605.539 6241.003 4605.539 6241.003 4605.539 C 6241.003 4605.539 6241.003 4598.43325 6241.003 4598.43325 C 6241.003 4598.33093 6241.003 4598.22861 6241.014 4598.11492 C 6241.014 4598.00122 6241.025 4597.88754 6241.035 4597.76248 C 6237.637 4603.83358 6237.637 4603.83358 6237.637 4603.83358 C 6237.583 4603.93591 6237.518 4604.01552 6237.421 4604.07236 C 6237.324 4604.12921 6237.227 4604.15192 6237.119 4604.15192 C 6236.914 4604.15192 6236.914 4604.15192 6236.914 4604.15192 C 6236.677 4604.15192 6236.493 4604.0496 6236.385 4603.83358 C 6232.922 4597.73975 6232.922 4597.73975 6232.922 4597.73975 C 6232.933 4597.86481 6232.944 4597.98988 6232.954 4598.10357 C 6232.965 4598.22863 6232.965 4598.33094 6232.965 4598.44463 C 6232.965 4605.5503 6232.965 4605.5503 6232.965 4605.5503 C 6232.965 4605.5503 6231.692 4605.5503 6231.692 4605.5503 C 6231.692 4605.5503 6231.692 4595.67056 6231.692 4595.67056 C 6231.692 4595.67056 6232.771 4595.67056 6232.771 4595.67056 C 6232.9 4595.67056 6232.997 4595.681928 6233.073 4595.704666 C 6233.149 4595.727404 6233.213 4595.795611 6233.278 4595.909302 C 6236.698 4601.87809 6236.698 4601.87809 6236.698 4601.87809 C 6236.784 4602.08274 6236.892 4602.33288 6237 4602.60573Z" fill-rule="evenodd" clip-rule="evenodd"></path> <path fill="#EF4424" fill-opacity="1" stroke="" stroke-opacity="1" stroke-width="1" id="tSvg1636da70d5c" d="M 6257.823 4595.635742 C 6257.823 4596.79538 6257.823 4596.79538 6257.823 4596.79538 C 6257.823 4596.79538 6253.022 4596.79538 6253.022 4596.79538 C 6253.022 4596.79538 6253.022 4599.97876 6253.022 4599.97876 C 6253.022 4599.97876 6256.885 4599.97876 6256.885 4599.97876 C 6256.885 4599.97876 6256.885 4601.09291 6256.885 4601.09291 C 6256.885 4601.09291 6253.022 4601.09291 6253.022 4601.09291 C 6253.022 4601.09291 6253.022 4604.36722 6253.022 4604.36722 C 6253.022 4604.36722 6257.823 4604.36722 6257.823 4604.36722 C 6257.823 4604.36722 6257.823 4605.5155 6257.823 4605.5155 C 6257.823 4605.5155 6251.555 4605.5155 6251.555 4605.5155 C 6251.555 4605.5155 6251.555 4595.635742 6251.555 4595.635742 C 6251.555 4595.635742 6257.823 4595.635742 6257.823 4595.635742" fill-rule="evenodd" clip-rule="evenodd"></path> <path fill="#EF4424" fill-opacity="1" stroke="" stroke-opacity="1" stroke-width="1" id="tSvg11b305a7d34" d="M 6271.784 4602.60573 C 6271.838 4602.4693 6271.892 4602.34425 6271.946 4602.21919 C 6272 4602.09413 6272.054 4601.96906 6272.129 4601.85537 C 6275.485 4595.897956 6275.485 4595.897956 6275.485 4595.897956 C 6275.55 4595.784265 6275.614 4595.716024 6275.69 4595.693286 C 6275.765 4595.670547 6275.862 4595.65918 6275.992 4595.65918 C 6277.071 4595.65918 6277.071 4595.65918 6277.071 4595.65918 C 6277.071 4595.65918 6277.071 4605.539 6277.071 4605.539 C 6277.071 4605.539 6275.798 4605.539 6275.798 4605.539 C 6275.798 4605.539 6275.798 4598.43325 6275.798 4598.43325 C 6275.798 4598.33093 6275.798 4598.22861 6275.808 4598.11492 C 6275.808 4598.00122 6275.819 4597.88754 6275.83 4597.76248 C 6272.431 4603.83358 6272.431 4603.83358 6272.431 4603.83358 C 6272.378 4603.93591 6272.313 4604.01552 6272.216 4604.07236 C 6272.119 4604.12921 6272.021 4604.15192 6271.914 4604.15192 C 6271.709 4604.15192 6271.709 4604.15192 6271.709 4604.15192 C 6271.471 4604.15192 6271.2880000000005 4604.0496 6271.18 4603.83358 C 6267.717 4597.73975 6267.717 4597.73975 6267.717 4597.73975 C 6267.727 4597.86481 6267.738 4597.98988 6267.749 4598.10357 C 6267.76 4598.22863 6267.76 4598.33094 6267.76 4598.44463 C 6267.76 4605.5503 6267.76 4605.5503 6267.76 4605.5503 C 6267.76 4605.5503 6266.487 4605.5503 6266.487 4605.5503 C 6266.487 4605.5503 6266.487 4595.67056 6266.487 4595.67056 C 6266.487 4595.67056 6267.566 4595.67056 6267.566 4595.67056 C 6267.695 4595.67056 6267.792 4595.681928 6267.868 4595.704666 C 6267.943 4595.727404 6268.008 4595.795611 6268.073 4595.909302 C 6271.493 4601.87809 6271.493 4601.87809 6271.493 4601.87809 C 6271.579 4602.08274 6271.687 4602.33288 6271.784 4602.60573Z" fill-rule="evenodd" clip-rule="evenodd"></path> <path fill="#EF4424" fill-opacity="1" stroke="" stroke-opacity="1" stroke-width="1" id="tSvgdd0ef7cafd" d="M 6286.35 4605.5155 C 6286.35 4595.635742 6286.35 4595.635742 6286.35 4595.635742 C 6286.35 4595.635742 6289.619 4595.635742 6289.619 4595.635742 C 6290.244 4595.635742 6290.795 4595.692592 6291.237 4595.817652 C 6291.69 4595.931344 6292.057 4596.113264 6292.348 4596.329277 C 6292.64 4596.55666 6292.855 4596.81812 6292.996 4597.14782 C 6293.136 4597.46616 6293.201 4597.82998 6293.201 4598.2279 C 6293.201 4598.46665 6293.168 4598.69405 6293.082 4598.92144 C 6293.006 4599.14882 6292.888 4599.35345 6292.737 4599.54672 C 6292.586 4599.74 6292.391 4599.91055 6292.154 4600.05835 C 6291.917 4600.20615 6291.647 4600.33119 6291.323 4600.43352 C 6292.057 4600.56994 6292.596 4600.83144 6292.974 4601.21799 C 6293.352 4601.59317 6293.535 4602.0934 6293.535 4602.69596 C 6293.535 4603.11662 6293.46 4603.50318 6293.298 4603.84425 C 6293.136 4604.18533 6292.909 4604.49229 6292.596 4604.73104 C 6292.294 4604.98116 6291.917 4605.17445 6291.474 4605.31088 C 6291.032 4605.44731 6290.525 4605.5155 6289.9529999999995 4605.5155 C 6286.35 4605.5155 6286.35 4605.5155 6286.35 4605.5155 M 6287.806 4600.03559 C 6289.565 4600.03559 6289.565 4600.03559 6289.565 4600.03559 C 6289.942 4600.03559 6290.266 4600.00147 6290.5470000000005 4599.92189 C 6290.827 4599.84231 6291.054 4599.72864 6291.237 4599.59221 C 6291.42 4599.44441 6291.55 4599.27386 6291.636 4599.08059 C 6291.723 4598.87594 6291.766 4598.64856 6291.766 4598.40981 C 6291.766 4597.84136 6291.593 4597.42069 6291.237 4597.1592 C 6290.892 4596.89771 6290.342 4596.76127 6289.619 4596.76127 C 6287.795 4596.76127 6287.795 4596.76127 6287.795 4596.76127 C 6287.795 4596.76127 6287.795 4600.03559 6287.795 4600.03559 C 6287.795 4600.03559 6287.806 4600.03559 6287.806 4600.03559 M 6287.806 4601.04746 C 6287.806 4604.38998 6287.806 4604.38998 6287.806 4604.38998 C 6287.806 4604.38998 6289.9529999999995 4604.38998 6289.9529999999995 4604.38998 C 6290.342 4604.38998 6290.665 4604.34448 6290.946 4604.25353 C 6291.215 4604.16257 6291.442 4604.04891 6291.615 4603.88974 C 6291.787 4603.73057 6291.917 4603.54865 6292.003 4603.34401 C 6292.089 4603.128 6292.133 4602.90063 6292.133 4602.65051 C 6292.133 4602.15027 6291.949 4601.76371 6291.593 4601.46811 C 6291.237 4601.18388 6290.698 4601.03608 6289.964 4601.03608 C 6287.806 4601.03608 6287.806 4601.03608 6287.806 4601.03608 C 6287.806 4601.03608 6287.806 4601.04746 6287.806 4601.04746" fill-rule="evenodd" clip-rule="evenodd"></path> <path fill="#EF4424" fill-opacity="1" stroke="" stroke-opacity="1" stroke-width="1" id="tSvg168ab42c634" d="M 6308.521 4595.635742 C 6308.521 4596.79538 6308.521 4596.79538 6308.521 4596.79538 C 6308.521 4596.79538 6303.72 4596.79538 6303.72 4596.79538 C 6303.72 4596.79538 6303.72 4599.97876 6303.72 4599.97876 C 6303.72 4599.97876 6307.582 4599.97876 6307.582 4599.97876 C 6307.582 4599.97876 6307.582 4601.09291 6307.582 4601.09291 C 6307.582 4601.09291 6303.72 4601.09291 6303.72 4601.09291 C 6303.72 4601.09291 6303.72 4604.36722 6303.72 4604.36722 C 6303.72 4604.36722 6308.521 4604.36722 6308.521 4604.36722 C 6308.521 4604.36722 6308.521 4605.5155 6308.521 4605.5155 C 6308.521 4605.5155 6302.263 4605.5155 6302.263 4605.5155 C 6302.263 4605.5155 6302.263 4595.635742 6302.263 4595.635742 C 6302.263 4595.635742 6308.521 4595.635742 6308.521 4595.635742" fill-rule="evenodd" clip-rule="evenodd"></path> <path fill="#EF4424" fill-opacity="1" stroke="" stroke-opacity="1" stroke-width="1" id="tSvgd971e4de2a" d="M 6318.609 4601.44538 C 6318.609 4605.5155 6318.609 4605.5155 6318.609 4605.5155 C 6318.609 4605.5155 6317.1630000000005 4605.5155 6317.1630000000005 4605.5155 C 6317.1630000000005 4605.5155 6317.1630000000005 4595.635742 6317.1630000000005 4595.635742 C 6317.1630000000005 4595.635742 6320.054 4595.635742 6320.054 4595.635742 C 6320.702 4595.635742 6321.263 4595.703972 6321.727 4595.829033 C 6322.201 4595.954093 6322.59 4596.147357 6322.892 4596.386109 C 6323.194 4596.62486 6323.431 4596.92045 6323.572 4597.26152 C 6323.723 4597.60259 6323.787 4597.97777 6323.787 4598.39843 C 6323.787 4598.75087 6323.734 4599.06923 6323.626 4599.37619 C 6323.518 4599.68316 6323.356 4599.95602 6323.151 4600.19477 C 6322.946 4600.43352 6322.687 4600.63816 6322.385 4600.82006 C 6322.083 4600.9906 6321.738 4601.12703 6321.349 4601.21799 C 6321.533 4601.32031 6321.694 4601.46809 6321.824 4601.66137 C 6324.705 4605.5269 6324.705 4605.5269 6324.705 4605.5269 C 6324.705 4605.5269 6323.41 4605.5269 6323.41 4605.5269 C 6323.151 4605.5269 6322.957 4605.42455 6322.827 4605.21991 C 6320.292 4601.75234 6320.292 4601.75234 6320.292 4601.75234 C 6320.216 4601.63865 6320.119 4601.55907 6320.033 4601.5136 C 6319.936 4601.46812 6319.796 4601.44538 6319.612 4601.44538 C 6318.609 4601.44538 6318.609 4601.44538 6318.609 4601.44538 M 6318.609 4600.39941 C 6320.011 4600.39941 6320.011 4600.39941 6320.011 4600.39941 C 6320.4 4600.39941 6320.745 4600.35394 6321.036 4600.26299 C 6321.3279999999995 4600.17203 6321.576 4600.0356 6321.781 4599.86506 C 6321.975 4599.69452 6322.126 4599.48988 6322.234 4599.2625 C 6322.331 4599.03511 6322.385 4598.77363 6322.385 4598.4894 C 6322.385 4597.92095 6322.191 4597.47756 6321.802 4597.18196 C 6321.414 4596.88636 6320.831 4596.73855 6320.065 4596.73855 C 6318.619 4596.73855 6318.619 4596.73855 6318.619 4596.73855 C 6318.619 4596.73855 6318.619 4600.39941 6318.619 4600.39941 C 6318.619 4600.39941 6318.609 4600.39941 6318.609 4600.39941" fill-rule="evenodd" clip-rule="evenodd"></path> <path fill="#EF4424" fill-opacity="1" stroke="" stroke-opacity="1" stroke-width="1" id="tSvg74e4948935" d="M 6339.054 4595.635742 C 6339.054 4596.79538 6339.054 4596.79538 6339.054 4596.79538 C 6339.054 4596.79538 6334.253 4596.79538 6334.253 4596.79538 C 6334.253 4596.79538 6334.253 4599.97876 6334.253 4599.97876 C 6334.253 4599.97876 6338.126 4599.97876 6338.126 4599.97876 C 6338.126 4599.97876 6338.126 4601.09291 6338.126 4601.09291 C 6338.126 4601.09291 6334.253 4601.09291 6334.253 4601.09291 C 6334.253 4601.09291 6334.253 4604.36722 6334.253 4604.36722 C 6334.253 4604.36722 6339.065 4604.36722 6339.065 4604.36722 C 6339.065 4604.36722 6339.054 4605.5155 6339.054 4605.5155 C 6339.054 4605.5155 6332.796 4605.5155 6332.796 4605.5155 C 6332.796 4605.5155 6332.796 4595.635742 6332.796 4595.635742 C 6332.796 4595.635742 6339.054 4595.635742 6339.054 4595.635742" fill-rule="evenodd" clip-rule="evenodd"></path> <path fill="#EF4424" fill-opacity="1" stroke="" stroke-opacity="1" stroke-width="1" id="tSvg137585c995e" d="M 6356.5 4600.58132 C 6356.5 4601.32031 6356.381 4601.99109 6356.133 4602.60502 C 6355.896 4603.20759 6355.55 4603.73056 6355.108 4604.16259 C 6354.666 4604.59461 6354.137 4604.93569 6353.522 4605.16308 C 6352.907 4605.40183 6352.227 4605.5155 6351.483 4605.5155 C 6347.696 4605.5155 6347.696 4605.5155 6347.696 4605.5155 C 6347.696 4605.5155 6347.696 4595.635742 6347.696 4595.635742 C 6347.696 4595.635742 6351.483 4595.635742 6351.483 4595.635742 C 6352.227 4595.635742 6352.907 4595.760811 6353.522 4595.999563 C 6354.137 4596.238314 6354.666 4596.56802 6355.108 4597.00005 C 6355.55 4597.43208 6355.885 4597.95505 6356.133 4598.55762 C 6356.381 4599.17155 6356.5 4599.84233 6356.5 4600.58132Z M 6355.011 4600.58132 C 6355.011 4599.99012 6354.925 4599.45578 6354.763 4598.98965 C 6354.601 4598.52351 6354.364 4598.12557 6354.051 4597.79587 C 6353.749 4597.47753 6353.371 4597.22742 6352.94 4597.05688 C 6352.508 4596.88635 6352.022 4596.79538 6351.483 4596.79538 C 6349.153 4596.79538 6349.153 4596.79538 6349.153 4596.79538 C 6349.153 4596.79538 6349.153 4604.3786 6349.153 4604.3786 C 6349.153 4604.3786 6351.483 4604.3786 6351.483 4604.3786 C 6352.022 4604.3786 6352.508 4604.28764 6352.94 4604.1171 C 6353.371 4603.94656 6353.749 4603.69645 6354.051 4603.37811 C 6354.364 4603.05978 6354.59 4602.66187 6354.763 4602.18437 C 6354.935 4601.70687 6355.011 4601.17251 6355.011 4600.58132Z" fill-rule="evenodd" clip-rule="evenodd"></path> <defs></defs> </svg> 