<?xml version="1.0" encoding="UTF-8"?> <svg xmlns="http://www.w3.org/2000/svg" width="24" height="24" viewBox="0 0 24 24" fill="none"> <path fill-rule="evenodd" clip-rule="evenodd" d="M12.1265 23.0244C18.4365 23.0244 23.5518 17.9091 23.5518 11.5991C23.5518 5.28911 18.4365 0.173828 12.1265 0.173828C5.81646 0.173828 0.701172 5.28911 0.701172 11.5991C0.701172 17.9091 5.81646 23.0244 12.1265 23.0244ZM13.3821 5.88963C13.0267 5.89011 12.6707 5.89059 12.3136 5.89612L12.3139 5.89648C12.3045 7.12367 12.3051 8.35116 12.3057 9.58018C12.3061 10.2671 12.3064 10.9545 12.305 11.6426C12.3034 11.8733 12.3037 12.1038 12.3039 12.3342C12.3045 12.954 12.3052 13.573 12.2711 14.1938C12.2661 14.3661 12.1797 14.5176 12.0958 14.6647C12.0891 14.6764 12.0824 14.6881 12.0758 14.6998C11.7987 15.1514 11.2892 15.46 10.7575 15.4657C9.95554 15.5367 9.20428 14.8801 9.09111 14.0988C9.09026 14.0606 9.08889 14.022 9.08754 13.9833C9.0798 13.763 9.07189 13.5383 9.15573 13.333C9.27498 12.9944 9.50386 12.6952 9.80523 12.4999C10.218 12.2132 10.77 12.1704 11.2424 12.3232C11.2424 12.022 11.2475 11.721 11.2527 11.42C11.2596 11.0162 11.2665 10.6124 11.261 10.2083C10.2269 10.0148 9.12253 10.3419 8.33413 11.0285C7.63859 11.618 7.19049 12.4846 7.10477 13.3904C7.09515 13.6229 7.09906 13.8607 7.11049 14.0988C7.20904 15.2129 7.88567 16.2508 8.84724 16.8178C9.42744 17.1599 10.1077 17.3456 10.7886 17.3067C11.8987 17.2881 12.9795 16.6929 13.6022 15.7799C13.9892 15.2314 14.2088 14.5691 14.246 13.9035C14.2556 12.9893 14.255 12.0733 14.2544 11.1562C14.2541 10.6836 14.2538 10.2108 14.2549 9.73771C14.5023 9.89947 14.7551 10.0576 15.0265 10.1805C15.6496 10.4761 16.3394 10.6189 17.026 10.6414V8.72438C16.2934 8.64262 15.5403 8.40088 15.0079 7.87278C14.4745 7.35755 14.2124 6.61522 14.1749 5.88647C13.9108 5.88892 13.6466 5.88926 13.3821 5.88963Z" fill="#FFDEDD"></path> </svg> 