<?xml version="1.0" encoding="UTF-8"?> <svg xmlns="http://www.w3.org/2000/svg" width="24" height="24" viewBox="0 0 24 24" fill="none"> <path fill-rule="evenodd" clip-rule="evenodd" d="M12.2749 23.0244C18.5849 23.0244 23.7002 17.9091 23.7002 11.5991C23.7002 5.28911 18.5849 0.173828 12.2749 0.173828C5.96489 0.173828 0.849609 5.28911 0.849609 11.5991C0.849609 17.9091 5.96489 23.0244 12.2749 23.0244ZM13.0828 5.43328C12.424 5.45165 11.7289 5.61023 11.2379 6.07677C10.8323 6.45189 10.628 6.99783 10.5821 7.54357C10.5681 7.93393 10.5701 8.32529 10.5721 8.7165C10.5736 9.00987 10.5751 9.30318 10.5699 9.5959C10.3895 9.59722 10.2086 9.59684 10.0277 9.59647C9.78631 9.59597 9.54483 9.59547 9.30432 9.59896C9.30432 9.83256 9.30467 10.0665 9.30501 10.3006C9.3057 10.7696 9.30636 11.2394 9.30432 11.7093C9.54483 11.7128 9.78631 11.7123 10.0277 11.7117C10.2086 11.7114 10.3895 11.711 10.5699 11.7123C10.574 12.6435 10.5732 13.5746 10.5725 14.5058C10.5715 15.6697 10.5706 16.8336 10.5791 17.9975C11.074 17.994 11.5678 17.9945 12.0618 17.995C12.4324 17.9954 12.803 17.9957 13.1743 17.9944C13.1773 16.9468 13.1766 15.9001 13.1758 14.8534C13.175 13.8066 13.1743 12.7598 13.1773 11.7123C13.427 11.711 13.6766 11.7114 13.9262 11.7117C14.2591 11.7123 14.5919 11.7128 14.9247 11.7093C15.0284 11.0078 15.1168 10.3002 15.1656 9.58978C14.8363 9.58827 14.5069 9.58827 14.1776 9.58827C13.8482 9.58827 13.5189 9.58827 13.1896 9.58674C13.1896 9.46396 13.1894 9.34118 13.1892 9.21843C13.1886 8.85022 13.1881 8.48207 13.1926 8.11381C13.2445 7.83012 13.5371 7.61359 13.8208 7.63196H15.1687C15.1717 6.89702 15.1717 6.16516 15.1687 5.43022C14.9949 5.43022 14.8211 5.43003 14.6473 5.42985C14.1258 5.42928 13.6043 5.42871 13.0828 5.43328Z" fill="#FFDEDD"></path> </svg> 