<?xml version="1.0" encoding="UTF-8"?> <svg xmlns="http://www.w3.org/2000/svg" width="23" height="24" viewBox="0 0 23 24" fill="none"> <path fill-rule="evenodd" clip-rule="evenodd" d="M11.4253 23.0244C17.7353 23.0244 22.8506 17.9091 22.8506 11.5991C22.8506 5.28911 17.7353 0.173828 11.4253 0.173828C5.11529 0.173828 0 5.28911 0 11.5991C0 17.9091 5.11529 23.0244 11.4253 23.0244ZM5.71265 9.17508C5.71265 7.36166 7.18802 5.88647 9.00126 5.88647H13.8493C15.6627 5.88647 17.1379 7.36184 17.1379 9.17508V14.0676C17.1379 15.8809 15.6627 17.3562 13.8493 17.3562H9.00126C7.18783 17.3562 5.71265 15.8809 5.71265 14.0676V9.17508ZM13.8493 16.2679C15.0625 16.2679 16.0496 15.2808 16.0496 14.0676V9.17508C16.0496 7.9619 15.0625 6.97482 13.8493 6.97482H9.00126C7.78807 6.97482 6.801 7.9619 6.801 9.17508V14.0676C6.801 15.2808 7.78807 16.2679 9.00126 16.2679H13.8493ZM8.45204 11.6004C8.45204 9.97323 9.79006 8.64961 11.4344 8.64961C13.0787 8.64961 14.4167 9.97323 14.4167 11.6004C14.4167 13.2273 13.0787 14.5509 11.4344 14.5509C9.78987 14.5509 8.45204 13.2273 8.45204 11.6004ZM9.53834 11.6004C9.53834 12.6281 10.3888 13.4646 11.4344 13.4646C12.4799 13.4646 13.3304 12.6283 13.3304 11.6004C13.3304 10.5724 12.4797 9.73609 11.4344 9.73609C10.3888 9.73609 9.53834 10.5724 9.53834 11.6004ZM14.4701 9.23077C14.8576 9.23077 15.1718 8.9166 15.1718 8.52905C15.1718 8.14153 14.8576 7.82736 14.4701 7.82736C14.0825 7.82736 13.7684 8.14153 13.7684 8.52905C13.7684 8.9166 14.0825 9.23077 14.4701 9.23077Z" fill="#FFDEDD"></path> </svg> 